<?xml version="1.0" encoding="UTF-8" standalone="no"?>
<!-- Created with Inkscape (http://www.inkscape.org/) -->

<svg
   width="82.050262mm"
   height="83.927971mm"
   viewBox="0 0 82.050262 83.927971"
   version="1.1"
   id="svg1"
   xml:space="preserve"
   xmlns="http://www.w3.org/2000/svg"
   xmlns:svg="http://www.w3.org/2000/svg"><defs
     id="defs1" /><g
     id="layer1"
     transform="translate(-77.306845,-107.13658)"><g
       id="g1"
       transform="matrix(0.27956785,0,0,0.27956785,88.445384,109.21155)"><path
         d="m 67.380965,-0.10970982 c -0.375512,0.279332 -0.375512,0.279332 -0.75861,0.564307 -5.460614,4.03007702 -5.460614,4.03007702 -10.618473,8.43152602 -0.389839,0.354461 -0.78117,0.707289 -1.174089,1.058334 -0.168827,0.1527958 -0.337654,0.3055928 -0.511596,0.4630198 -0.430982,0.33073 -0.430982,0.33073 -0.960148,0.33073 0,0.174625 0,0.34925 0,0.529166 -0.416513,0.410311 -0.416513,0.410311 -0.975652,0.876432 -0.664242,0.561961 -1.301944,1.122499 -1.901692,1.752865 -0.56224,0.545703 -0.56224,0.545703 -1.091406,0.545703 0,0.174625 0,0.34925 0,0.529167 -0.3514,0.345198 -0.3514,0.345198 -0.859896,0.760677 -2.077808,1.767798 -4.012223,3.724572 -5.778459,5.803263 -0.547657,0.628294 -1.114036,1.235907 -1.683618,1.844267 -1.112222,1.18933 -2.192794,2.365319 -3.141928,3.691313 -0.629396,0.854392 -1.298014,1.67591 -1.963703,2.502172 -5.132422,6.272573 -5.132422,6.272573 -9.326563,13.179558 -0.174625,0 -0.34925,0 -0.529166,0 -0.06753,0.229195 -0.135062,0.45839 -0.20464,0.694531 -0.33587,0.924181 -0.754086,1.653431 -1.283642,2.480469 -0.190328,0.301474 -0.380135,0.603276 -0.569473,0.905369 -0.145743,0.232521 -0.145743,0.232521 -0.294428,0.469742 -0.843378,1.369885 -1.62033,2.780093 -2.410317,4.181139 -0.13779,0.239426 -0.27558,0.478853 -0.417545,0.725537 -0.118692,0.20805 -0.237381,0.416097 -0.359669,0.630452 -0.100613,0.175308 -0.201229,0.350615 -0.30489,0.531233 -0.249957,0.512789 -0.387837,0.995498 -0.505396,1.552361 -0.174625,0 -0.34925,0 -0.529167,0 -0.04093,0.204639 -0.04093,0.204639 -0.08268,0.413411 -0.417402,1.479876 -1.147834,2.879646 -1.802474,4.266406 -0.252127,0.539954 -0.503648,1.080188 -0.755121,1.620444 -0.181062,0.388011 -0.362887,0.775668 -0.545447,1.162978 -1.818489,3.867936 -3.31471,7.828002 -4.751776,11.851344 -0.112337,0.310282 -0.224676,0.620567 -0.340418,0.940252 -1.6363685,4.528714 -3.0013063,9.071568 -4.1814643,13.735854 -0.2525898,0.9808 -0.5210255,1.956573 -0.7894214,2.933155 -0.4843145,1.813023 -0.8485929,3.624932 -1.1544512,5.475634 -0.054335,0.323223 -0.1086723,0.646446 -0.1646528,0.979461 -0.4030028,2.435598 -0.7808384,4.875138 -1.1388937,7.317738 -0.055361,0.37734 -0.1112388,0.75461 -0.1677379,1.13178 -0.88519,5.9444 -1.1471037,11.86452 -1.1277812,17.86696 0.00299,0.93783 0.00132,1.87558 -0.00185,2.8134 -0.019209,6.95936 0.3660908,13.84407 1.3441099,20.74027 0.051464,0.37195 0.051464,0.37195 0.1039653,0.75142 0.4783984,3.44822 1.0386192,6.83963 1.9235605,10.21005 0.1501987,0.61101 0.2698248,1.22369 0.386797,1.84188 0.2945316,1.50722 0.7076546,2.97167 1.1410157,4.44417 0.1224941,0.41772 0.1224941,0.41772 0.2474647,0.84388 0.623697,2.09339 1.3334127,4.1338 2.1368861,6.16397 0.2770876,0.70884 0.5398213,1.42279 0.8035683,2.13669 0.977186,2.63978 1.987815,5.25095 3.304707,7.74332 0.265136,0.55765 0.47983,1.09889 0.688332,1.67845 0.415658,1.12969 0.944499,2.17162 1.517219,3.22875 0.156069,0.29081 0.156069,0.29081 0.31529,0.58749 0.322821,0.59905 0.648176,1.19664 0.974553,1.79376 0.09912,0.18183 0.198245,0.36366 0.300368,0.551 2.0578,3.75942 4.264033,7.39929 6.843382,10.82608 0.239049,0.32637 0.477772,0.65299 0.716235,0.97978 1.735201,2.36427 3.570327,4.60854 5.52124,6.79778 0.318569,0.35863 0.63305,0.72088 0.946582,1.08391 2.750126,3.14767 5.726498,6.25808 9.030975,8.82427 0.729766,0.57962 1.4214,1.18924 2.116407,1.80952 1.990328,1.76949 4.068228,3.30718 6.291218,4.77057 0.487199,0.32345 0.968286,0.65417 1.448103,0.98844 5.973071,4.13156 12.464353,7.43878 19.351532,9.72564 1.271303,0.43329 2.52055,0.92622 3.772638,1.41167 2.690823,0.99163 5.431647,1.68786 8.236189,2.27066 0.466832,0.0998 0.466832,0.0998 0.943095,0.20154 6.266381,1.32324 12.525432,2.02226 18.931017,1.98553 0.87916,-0.004 1.75801,0 2.63717,0.005 5.93316,0.006 11.67314,-0.67304 17.44183,-2.04574 0.79673,-0.1842 1.59563,-0.35131 2.39675,-0.51534 7.61017,-1.5942 15.10322,-4.36479 21.92838,-8.08943 0.97898,-0.53369 1.97276,-1.02555 2.97553,-1.51309 2.5017,-1.24224 4.84915,-2.71689 7.11894,-4.34185 0.59161,-0.42177 1.18669,-0.83575 1.78594,-1.24644 2.36954,-1.63298 4.5854,-3.35889 6.73899,-5.26608 0.66351,-0.5775 1.35141,-1.12505 2.0336,-1.68026 1.64557,-1.37087 3.16185,-2.87294 4.67982,-4.38217 0.2316,-0.22917 0.46321,-0.45834 0.70183,-0.69446 1.37837,-1.38489 2.64834,-2.81983 3.87024,-4.34437 0.41399,-0.51611 0.83385,-1.02117 1.26943,-1.51891 4.72248,-5.41562 8.38031,-11.54615 11.85916,-17.80647 0.31607,-0.56541 0.63743,-1.12724 0.96177,-1.68794 0.39695,-0.70259 0.72071,-1.40283 1.02629,-2.14871 0.25147,-0.57579 0.54093,-1.12423 0.83302,-1.68052 1.64326,-3.27187 2.70681,-6.85043 3.89046,-10.30634 0.0985,-0.28718 0.19697,-0.57436 0.29843,-0.87023 0.0883,-0.25849 0.17655,-0.51697 0.26749,-0.78329 0.22348,-0.62437 0.22348,-0.62437 0.48806,-1.15353 -5.23875,0 -10.4775,0 -15.875,0 -0.0873,0.61118 -0.17462,1.22237 -0.26458,1.85208 -0.21084,0.58084 -0.21084,0.58084 -0.46302,1.09141 -0.45074,0.9564 -0.83908,1.91913 -1.20717,2.91041 -0.75584,1.9784 -1.63865,3.88432 -2.56315,5.78776 -0.12001,0.24864 -0.24002,0.49727 -0.36367,0.75345 -0.40502,0.8362 -0.8139,1.67042 -1.22383,2.50424 -0.1286,0.26511 -0.2572,0.53022 -0.3897,0.80337 -0.76378,1.53939 -1.60388,2.94456 -2.62303,4.32906 -0.45375,0.64388 -0.8387,1.30622 -1.2206,1.99478 -1.96622,3.4276 -4.27256,6.70482 -6.69726,9.82266 -0.11895,0.15411 -0.2379,0.30823 -0.36045,0.46702 -0.27991,0.35148 -0.57808,0.6883 -0.87979,1.02126 -0.17462,0 -0.34925,0 -0.52917,0 -0.0875,0.21333 -0.0875,0.21333 -0.17673,0.43098 -0.47163,0.83953 -1.10277,1.50128 -1.75803,2.19831 -0.12534,0.13558 -0.25068,0.27115 -0.37982,0.41083 -0.79719,0.85826 -1.61633,1.69101 -2.44792,2.51613 -0.25,0.25264 -0.49976,0.50552 -0.7493,0.75861 -0.26286,0.26528 -0.52572,0.53055 -0.78859,0.79581 -0.12772,0.12995 -0.25545,0.2599 -0.38705,0.39378 -1.78202,1.79366 -3.71606,3.38615 -5.7149,4.93096 -0.31559,0.24416 -0.31559,0.24416 -0.63756,0.49326 -3.70612,2.85483 -7.58217,5.464 -11.83093,7.44424 -0.19304,0.0969 -0.38608,0.19373 -0.58498,0.29352 -1.67395,0.80898 -3.44551,1.24457 -5.24244,1.69086 -0.49728,0.12589 -0.99217,0.26114 -1.48686,0.39687 -2.15788,0.57845 -4.32135,0.99867 -6.52673,1.35599 -0.25678,0.0419 -0.51356,0.0839 -0.77812,0.12713 -0.85844,0.13369 -1.71762,0.25408 -2.57879,0.36897 -0.26281,0.0354 -0.26281,0.0354 -0.53094,0.0716 -3.42594,0.44904 -6.82427,0.54802 -10.27718,0.54106 -0.86016,-7.9e-4 -1.72008,0.005 -2.5802,0.0121 -5.41633,0.0168 -10.710312,-0.55694 -15.996954,-1.73272 -0.336119,-0.0721 -0.672238,-0.14427 -1.018543,-0.21859 -0.80212,-0.17254 -1.603562,-0.34766 -2.404504,-0.52556 0,-0.17462 0,-0.34925 0,-0.52916 -0.46453,-0.0256 -0.46453,-0.0256 -0.938444,-0.0517 -1.714972,-0.19137 -3.316315,-0.76457 -4.941042,-1.31969 -0.53827,-0.18361 -1.077845,-0.3629 -1.617731,-0.5417 -1.464316,-0.49225 -2.832166,-0.9587 -4.14445,-1.7911 -0.376611,-0.15802 -0.757244,-0.30675 -1.141015,-0.44648 -5.412445,-2.1317 -10.722167,-5.19368 -15.263151,-8.81394 -0.328696,-0.24457 -0.658471,-0.4877 -0.989087,-0.72967 -4.77067,-3.49487 -9.237896,-7.41864 -13.03383,-11.97033 -0.332538,-0.38574 -0.332538,-0.38574 -0.671793,-0.77928 -4.619873,-5.36904 -4.619873,-5.36904 -4.619873,-6.36447 -0.174625,0 -0.34925,0 -0.529167,0 -0.391708,-0.53433 -0.391708,-0.53433 -0.843359,-1.2733 -0.165077,-0.2674 -0.33015,-0.53479 -0.50023,-0.81029 -0.167801,-0.27285 -0.335605,-0.5457 -0.508494,-0.82682 -0.302604,-0.4689 -0.605759,-0.93744 -0.909505,-1.4056 -1.082906,-1.70101 -2.071069,-3.45199 -3.059245,-5.20899 -0.125852,-0.21862 -0.251706,-0.43724 -0.381373,-0.66249 -1.234454,-2.16319 -2.191888,-4.40252 -3.034245,-6.74313 -0.288999,-0.7977 -0.585483,-1.59218 -0.884896,-2.38603 -0.100444,-0.26637 -0.200885,-0.53274 -0.304374,-0.80718 -0.205105,-0.54303 -0.410435,-1.08598 -0.615982,-1.62884 -1.783585,-4.73394 -1.783585,-4.73394 -1.658297,-6.02858 -0.174625,0 -0.34925,0 -0.529166,0 -0.379466,-1.25212 -0.653871,-2.46756 -0.851628,-3.76411 -0.02736,-0.17715 -0.05472,-0.3543 -0.08291,-0.53681 -0.08648,-0.56159 -0.171318,-1.12342 -0.25609,-1.68527 -0.05673,-0.37037 -0.113578,-0.74072 -0.170532,-1.11105 -0.133657,-0.87049 -0.267089,-1.74101 -0.396217,-2.61219 -0.07167,-0.46106 -0.14933,-0.9212 -0.229825,-1.3808 -0.355737,-2.10453 -0.475286,-4.1396 -0.473633,-6.27201 -0.0011,-0.33369 -0.0024,-0.66738 -0.0034,-1.01119 -0.0016,-0.70242 -0.0019,-1.40475 -5.3e-4,-2.10716 0.0019,-1.05539 -0.0054,-2.11065 -0.01209,-3.16602 -0.02315,-9.33981 -0.02315,-9.33981 1.418519,-13.39505 0.126595,-0.72224 0.241339,-1.44117 0.347265,-2.16628 0.825045,-5.19688 2.283042,-10.59984 4.679818,-15.29622 0.131529,-0.34173 0.259088,-0.68499 0.383439,-1.0294 0.39768,-1.08838 0.890482,-2.10776 1.419035,-3.13779 0.189902,-0.37341 0.379727,-0.74686 0.569473,-1.12034 0.09239,-0.18128 0.184772,-0.36256 0.279958,-0.54932 0.22433,-0.4453 0.441074,-0.8944 0.656421,-1.34411 1.10513,-2.30472 2.449676,-4.434448 3.835424,-6.577375 0.109267,-0.170404 0.218538,-0.340809 0.331115,-0.516376 2.218955,-3.451413 4.674013,-6.633938 7.480294,-9.627706 0.531901,-0.571333 1.043726,-1.150419 1.548226,-1.745631 1.88656,-2.173645 3.977442,-4.333801 6.250781,-6.101953 0.174625,0 0.34925,0 0.529167,0 0,-0.174625 0,-0.34925 0,-0.529167 0.612989,-0.50183 1.228707,-0.973235 1.86862,-1.438672 0.191486,-0.140967 0.382972,-0.281932 0.580261,-0.427169 0.39901,-0.29354 0.798498,-0.586428 1.198441,-0.878695 0.540423,-0.396975 1.076566,-0.798914 1.611272,-1.203544 2.065917,-1.555425 4.183584,-2.949488 6.425189,-4.238501 0.484153,-0.278418 0.966294,-0.560088 1.448232,-0.842325 1.934746,-1.126773 3.900143,-2.170917 5.918024,-3.141927 0.310369,-0.152797 0.620738,-0.305594 0.940511,-0.463021 2.90396,-1.410874 5.871627,-2.377101 8.963342,-3.300314 0.647465,-0.195736 1.292533,-0.39782 1.937285,-0.60229 2.828512,-0.88892 5.600469,-1.554734 8.531779,-1.984375 0.289777,-0.04297 0.579553,-0.08595 0.878112,-0.130225 2.656012,-0.393536 2.656012,-0.393536 3.884451,-0.569087 0.445058,-0.06414 0.445058,-0.06414 0.899107,-0.129577 0.266499,-0.0379 0.532998,-0.0758 0.807572,-0.11485 0.703808,-0.101891 0.703808,-0.101891 1.468252,-0.379177 2.94727,-0.415449 5.97592,-0.350915 8.94623,-0.363802 0.26868,-0.0013 0.53737,-0.0024 0.8142,-0.0037 4.44299,-0.0071 8.59819,0.37714 12.9533,1.263013 1.40311,0.273796 2.81923,0.465145 4.23676,0.648345 1.32448,0.194572 2.5103,0.605793 3.76043,1.079262 1.32789,0.492503 2.68142,0.904306 4.03218,1.329052 1.11945,0.356783 2.23835,0.71528 3.3569,1.07487 0.19662,0.06314 0.39325,0.12628 0.59583,0.191331 2.37143,0.771377 4.55601,1.791793 6.75941,2.944654 0.62312,0.324903 1.24901,0.644051 1.87521,0.96299 2.03847,1.046033 4.01081,2.089952 5.857,3.457152 0.59331,0.432673 1.22038,0.785111 1.86139,1.14205 3.50302,2.02992 6.67988,4.652918 9.64695,7.39593 0.42206,0.370279 0.42206,0.370279 1.18546,0.574643 0.34313,0.349332 0.34313,0.349332 0.7276,0.826823 0.97621,1.155591 2.03387,2.211938 3.10886,3.274219 1.3357,1.323842 2.6314,2.655644 3.83646,4.101041 0.12142,0.137449 0.24283,0.274897 0.36793,0.416513 4.04127,4.585282 7.57474,9.952175 10.22057,15.460551 0.26493,0.56072 0.26493,0.56072 0.67283,1.18856 0.47911,0.83325 0.81356,1.6969 1.16065,2.59209 0.1883,0.48441 0.3821,0.96672 0.58084,1.44694 0.0965,0.23329 0.19304,0.46658 0.29249,0.70693 0.0887,0.21249 0.17735,0.42497 0.26872,0.64389 0.1943,0.56327 0.1943,0.56327 0.1943,1.35702 0.17463,0 0.34925,0 0.52917,0 0.0873,0.52388 0.17462,1.04775 0.26458,1.5875 -12.31106,0 -24.62212,0 -37.30625,0 -0.0873,-0.26194 -0.17462,-0.52387 -0.26458,-0.79375 -0.26194,-0.0873 -0.52388,-0.17462 -0.79375,-0.26458 -0.32393,-0.37315 -0.62937,-0.7624 -0.92604,-1.15755 -1.22485,-1.53458 -2.56635,-2.9261 -3.95222,-4.31602 -0.20805,-0.21039 -0.4161,-0.42079 -0.63045,-0.63756 -2.01202,-2.00246 -4.20201,-3.739 -6.5133,-5.38171 -0.15808,-0.11443 -0.31616,-0.22885 -0.47904,-0.34675 -0.68071,-0.48601 -1.25249,-0.858812 -2.05104,-1.124996 0,-0.174625 0,-0.34925 0,-0.529167 -0.25375,-0.09823 -0.25375,-0.09823 -0.51263,-0.198437 -1.51421,-0.618046 -2.99533,-1.282689 -4.4483,-2.033984 -1.56342,-0.790221 -3.1841,-1.401945 -4.82865,-2.000912 -0.19782,-0.07333 -0.39563,-0.146658 -0.59945,-0.222208 -5.15179,-1.818859 -10.55805,-2.737815 -16.00412,-2.737236 -0.60314,-5.29e-4 -1.20614,-0.0054 -1.80926,-0.0104 -5.5051,-0.02114 -11.909449,0.539956 -16.78198,3.254581 -0.550324,0.256742 -1.026674,0.361355 -1.623609,0.464572 -1.366717,0.288901 -2.493542,0.848264 -3.712435,1.516187 -0.326334,0.175638 -0.326334,0.175638 -0.659262,0.354822 -2.672039,1.457028 -5.2322,3.049528 -7.580028,4.995758 -0.44235,0.32142 -0.44235,0.32142 -0.971517,0.32142 0,0.17463 0,0.34925 0,0.52917 -0.406278,0.35669 -0.828651,0.6951 -1.256771,1.02526 -2.719982,2.18158 -5.100552,4.66299 -7.209895,7.44141 -0.121377,0.15983 -0.242753,0.31966 -0.367807,0.48433 -2.017933,2.68459 -3.679826,5.46823 -5.171778,8.47545 -0.184688,0.37116 -0.372449,0.74081 -0.563531,1.10872 -0.620377,1.20182 -1.115304,2.40511 -1.536728,3.68983 -0.06608,0.20084 -0.132163,0.40169 -0.200246,0.60862 -2.679518,8.36471 -3.694792,17.13437 -2.214077,25.84971 0.03551,0.21525 0.07103,0.43051 0.107616,0.65229 0.479788,2.83037 1.109478,5.44491 2.273634,8.07896 0.07674,0.18008 0.153479,0.36016 0.232544,0.5457 0.185872,0.43598 0.373482,0.8712 0.561206,1.30638 0.15706,0.45788 0.15706,0.45788 0.317293,0.92501 0.549783,1.47198 1.333357,2.8084 2.113566,4.16822 0.155206,0.27136 0.310412,0.54272 0.470321,0.8223 2.077213,3.60639 4.45443,6.79449 7.152987,9.95947 0.15625,0.18369 0.3125,0.36737 0.473485,0.55662 0.917957,1.06576 1.857144,2.0546 2.899952,2.99872 0.244202,0.2234 0.488405,0.4468 0.740007,0.67696 0.624538,0.57425 0.624538,0.57425 1.442806,0.79479 0.440972,0.44097 0.881944,0.88194 1.322916,1.32291 0.851215,0.67498 1.609969,1.24221 2.645833,1.5875 0,0.17463 0,0.34925 0,0.52917 0.174625,0.06 0.34925,0.12005 0.529167,0.1819 0.853915,0.37359 1.589098,0.83481 2.364714,1.34772 0.603926,0.35687 1.215774,0.59656 1.868619,0.85163 0.382137,0.19495 0.762418,0.39357 1.141016,0.59531 1.544944,0.78411 3.150799,1.37026 4.775936,1.96267 0.55184,0.20213 1.101534,0.411 1.64331,0.63872 0.776312,0.29378 1.550374,0.46538 2.361613,0.63976 1.585675,0.34085 1.585675,0.34085 2.348177,0.65939 5.739286,2.20348 14.594676,1.72196 20.520186,0.38886 0.59529,-0.13294 1.19266,-0.24891 1.79163,-0.36406 2.36449,-0.47013 4.49492,-1.13054 6.69313,-2.1394 0.45082,-0.1848 0.90279,-0.36681 1.35599,-0.5457 0.21589,-0.087 0.43178,-0.17395 0.65422,-0.26355 0.40719,-0.15957 0.81706,-0.31251 1.2299,-0.45682 4.7484,-1.7216 9.05574,-5.05917 12.89947,-8.25893 0.18725,-0.1545 0.37449,-0.309 0.56741,-0.46819 1.07078,-0.90699 2.01278,-1.86427 2.91765,-2.93625 0.32957,-0.3845 0.66916,-0.76056 1.01699,-1.12862 1.3179,-1.39849 2.45994,-2.87981 3.56774,-4.44624 0.20985,-0.29618 0.20985,-0.29618 0.42394,-0.59834 0.76876,-1.10022 0.76876,-1.10022 1.29585,-2.32861 -0.23674,0.004 -0.23674,0.004 -0.47828,0.008 -3.84465,0.0643 -7.68927,0.11247 -11.53434,0.14267 -1.85952,0.015 -3.71868,0.0354 -5.57797,0.0688 -1.79448,0.0322 -3.58858,0.049 -5.38332,0.0566 -0.68458,0.005 -1.36913,0.0159 -2.05354,0.0316 -0.9594,0.0211 -1.91726,0.024 -2.87685,0.0227 -0.28281,0.0105 -0.56561,0.0209 -0.85699,0.0317 -0.82732,-0.0126 -1.42541,-0.0545 -2.19496,-0.36209 -0.80273,-0.88579 -1.32195,-1.84535 -1.85208,-2.91042 -0.34009,-0.51797 -0.68202,-1.03474 -1.02733,-1.54926 -0.17709,-0.26445 -0.35419,-0.5289 -0.53666,-0.80137 -0.18238,-0.27204 -0.36477,-0.54408 -0.55268,-0.82437 -0.38532,-0.57763 -0.77048,-1.15538 -1.15548,-1.73322 -0.19653,-0.29482 -0.39308,-0.58964 -0.58963,-0.88444 -1.27382,-1.91074 -2.54765,-3.82148 -3.82147,-5.73221 -0.11138,-0.16706 -0.22276,-0.33412 -0.33751,-0.50624 -0.20825,-0.3124 -0.41647,-0.62483 -0.62464,-0.93728 -0.4821,-0.72351 -0.96498,-1.44648 -1.44907,-2.16867 -1.66042,-2.47907 -3.29425,-4.9754 -4.92786,-7.47217 -1.3522,-2.06649 -2.71007,-4.12859 -4.08554,-6.1797 -0.64625,-0.96913 -1.282295,-1.94485 -1.918231,-2.92076 -0.220483,-0.33796 -0.440968,-0.67593 -0.661458,-1.01389 -0.329502,-0.50512 -0.658742,-1.0104 -0.987021,-1.51631 -1.293505,-1.99344 -2.6158,-3.95477 -4.029178,-5.8659 -0.812903,-1.11298 -0.812903,-1.11298 -0.812903,-1.69837 50.117371,0 100.234741,0 151.870831,0 0.44806,3.58452 0.8353,6.9689 0.82889,10.55956 2.5e-4,0.31933 5.2e-4,0.63866 7.9e-4,0.96767 1.8e-4,0.67262 -2.7e-4,1.34525 -0.001,2.01787 -0.001,1.01418 -2e-5,2.02833 0.002,3.04252 8e-4,2.81789 -0.002,5.63307 -0.15399,8.44754 -0.0102,0.19111 -0.0205,0.38221 -0.0311,0.5791 -0.0493,0.77841 -0.13218,1.42265 -0.38029,2.16699 -0.0633,0.50363 -0.11582,1.00865 -0.16226,1.51412 -0.0295,0.30851 -0.059,0.61702 -0.0894,0.93489 -0.0316,0.33234 -0.0631,0.66469 -0.0956,1.00711 -0.26405,2.6562 -0.57211,5.29805 -0.97565,7.9375 -0.0407,0.27133 -0.0814,0.54267 -0.12331,0.82223 -0.33481,2.12345 -0.76831,4.22859 -1.45437,6.26887 -0.31614,0.95606 -0.57533,1.92283 -0.82838,2.89692 -0.0763,0.29049 -0.0763,0.29049 -0.15409,0.58685 -0.16135,0.61454 -0.32204,1.22925 -0.48256,1.84401 -0.21162,0.81044 -0.42393,1.6207 -0.63666,2.43086 -0.0477,0.1836 -0.0954,0.3672 -0.14453,0.55636 -0.27522,1.04787 -0.58504,2.07424 -0.9386,3.09819 -0.0823,0.24293 -0.16452,0.48585 -0.24928,0.73614 -1.66049,4.86391 -3.37001,9.65497 -5.51988,14.32586 -0.48711,1.05974 -0.94906,2.12076 -1.37253,3.20769 -0.4931,1.24781 -1.07164,2.42635 -1.70532,3.60805 -0.11293,0.21214 -0.22587,0.42428 -0.34223,0.64285 -2.30277,4.29786 -4.71526,8.51523 -7.36402,12.60957 -0.37391,0.57904 -0.74429,1.16021 -1.11388,1.74201 -2.21234,3.47022 -4.49809,6.89426 -7.14995,10.04693 -0.532,0.64425 -1.03972,1.30231 -1.54203,1.96984 -1.1126,1.47789 -2.28237,2.86209 -3.54855,4.2106 -0.74094,0.79228 -1.42858,1.60386 -2.09038,2.46296 -0.95235,1.2194 -2.01141,2.29033 -3.11473,3.37053 -0.70062,0.68723 -1.37241,1.37739 -1.99504,2.13611 -0.68511,0.82893 -1.46064,1.50213 -2.27893,2.19729 -0.61229,0.53953 -1.18339,1.10734 -1.75596,1.68878 -1.94329,1.96319 -4.07205,3.6879 -6.21771,5.42396 -0.14423,0.11767 -0.28845,0.23533 -0.43705,0.35657 -6.60636,5.38866 -13.6807,10.55642 -21.23088,14.54897 -0.64485,0.34554 -1.28095,0.69987 -1.91616,1.06249 -2.66156,1.50889 -5.37254,2.87501 -8.14937,4.15684 -0.16243,0.075 -0.32486,0.14999 -0.49221,0.22725 -4.06713,1.87288 -4.06713,1.87288 -5.0806,1.87288 0,0.17462 0,0.34925 0,0.52917 -2.33145,0.88111 -4.665,1.75035 -7.01766,2.57349 -0.72134,0.26421 -1.42599,0.54552 -2.13527,0.83921 -1.60314,0.64518 -3.24501,1.13165 -4.90306,1.61438 -0.31442,0.0923 -0.62884,0.1846 -0.95278,0.27969 -2.76087,0.80402 -5.52718,1.53755 -8.34071,2.13463 -0.93212,0.17029 -0.93212,0.17029 -1.47071,0.49506 -0.78654,0.36031 -1.52341,0.41762 -2.38229,0.51367 -1.35174,0.16126 -2.66985,0.37282 -4.00182,0.66145 -1.73377,0.3591 -3.4687,0.6082 -5.22552,0.82683 -0.36448,0.0455 -0.36448,0.0455 -0.73632,0.0919 -0.52835,0.0637 -1.05704,0.1246 -1.58595,0.18339 -0.67594,0.0759 -1.34973,0.15787 -2.0243,0.24418 -3.80808,0.46082 -7.61401,0.47159 -11.44426,0.459 -0.9189,-0.003 -1.83771,0 -2.756605,0.003 -6.198682,0.0175 -12.365642,-0.22193 -18.494227,-1.21181 -0.371747,-0.0587 -0.743494,-0.11732 -1.115242,-0.17595 -9.364485,-1.49744 -18.750864,-3.82455 -27.54244,-7.41511 -1.757019,-0.70834 -3.520879,-1.39179 -5.296834,-2.05155 -0.75752,-0.31671 -1.411141,-0.69826 -2.111499,-1.12345 -0.437104,-0.18576 -0.878215,-0.3624 -1.322917,-0.52916 -0.949924,-0.36849 -1.773984,-0.79521 -2.645833,-1.32292 -0.306276,-0.10914 -0.612553,-0.21828 -0.928108,-0.33073 -1.370698,-0.50591 -2.624381,-1.19523 -3.900538,-1.90169 -0.25309,-0.13928 -0.506182,-0.27856 -0.766942,-0.42207 -3.979863,-2.20575 -7.849259,-4.56297 -11.602328,-7.13509 -0.411835,-0.27882 -0.411835,-0.27882 -0.831991,-0.56328 -6.812896,-4.65333 -6.812896,-4.65333 -9.68313,-7.35355 -0.671701,-0.61825 -1.373238,-1.18629 -2.08566,-1.757 -1.0581431,-0.85574 -2.0349159,-1.74366 -2.9713954,-2.73058 -0.4956704,-0.48936 -1.0029004,-0.94042 -1.5306542,-1.39423 -1.2846474,-1.11567 -2.4836914,-2.30948 -3.6834974,-3.51504 -0.2146988,-0.21367 -0.4294003,-0.42735 -0.6506052,-0.6475 -1.28813442,-1.29021 -2.5104645,-2.61699 -3.6984833,-3.99924 -0.3848259,-0.42537 -0.7705222,-0.84995 -1.1575521,-1.27331 -1.0423657,-1.15543 -2.0360084,-2.34287 -3.0137681,-3.55327 -0.3789813,-0.46776 -0.7617672,-0.93248 -1.1492839,-1.3932 -1.7302612,-2.06494 -3.2900064,-4.24219 -4.8521594,-6.43552 -0.365861,-0.51138 -0.73529,-1.01978 -1.107168,-1.52678 -4.045132,-5.53481 -7.68945,-11.53339 -10.638758,-17.72179 -0.382929,-0.79993 -0.77216,-1.59672 -1.161039,-2.39378 -0.233228,-0.47955 -0.466214,-0.95921 -0.699045,-1.43895 -0.225602,-0.46473 -0.451636,-0.92924 -0.67768,-1.39376 -0.734782,-1.5235 -1.429152,-3.04747 -2.040379,-4.62478 -0.194974,-0.49863 -0.40739,-0.99038 -0.622959,-1.48046 -0.54537,-1.3052 -0.997448,-2.63798 -1.455208,-3.97599 -0.713314,-2.08806 -0.713314,-2.08806 -1.471745,-4.15995 -0.70467,-1.85752 -1.290074,-3.74039 -1.793171,-5.66167 -0.0551,-0.2085 -0.110189,-0.417 -0.166952,-0.63181 -0.115766,-0.43902 -0.231138,-0.87814 -0.346131,-1.31736 -0.171717,-0.6551 -0.345218,-1.30971 -0.518896,-1.96429 -1.195392,-4.52926 -2.170186,-9.05238 -2.895174,-13.6812 -0.116713,-0.74318 -0.236616,-1.4858 -0.356825,-2.22842 -1.14704,-7.18035 -1.507852,-14.28726 -1.513085,-21.55217 -5.3e-4,-0.32549 -7.94e-4,-0.65097 -0.0013,-0.98632 -5.3e-4,-5.36678 0.241194,-10.63288 0.861237,-15.96355 0.0344,-0.33889 0.06881,-0.67778 0.104256,-1.02694 0.310568,-2.99038 0.848561,-5.92659 1.424075,-8.8762 0.158099,-0.811 0.31346,-1.62249 0.468448,-2.43409 1.534032,-7.97884 1.534032,-7.97884 2.798794,-11.75639 0.367355,-1.11431 0.724926,-2.213008 0.994254,-3.355868 0.378536,-1.566539 0.984488,-3.059601 1.55236,-4.565097 0.118946,-0.31738 0.237892,-0.634764 0.360442,-0.961763 0.236048,-0.629753 0.472456,-1.259369 0.709261,-1.888839 0.2677,-0.715489 0.531116,-1.432163 0.790649,-2.150642 0.675486,-1.862261 1.43044,-3.636099 2.344044,-5.39502 0.323736,-0.644684 0.59785,-1.283415 0.85576,-1.95647 1.375876,-3.535553 3.165182,-6.857828 5.034447,-10.151835 0.374531,-0.663387 0.738394,-1.332267 1.100579,-2.002461 1.030455,-1.897579 2.096842,-3.775218 3.158464,-5.655469 0.174625,0 0.34925,0 0.529167,0 0.05969,-0.174284 0.119372,-0.348568 0.180866,-0.528132 0.459817,-1.049253 1.061215,-1.97126 1.687753,-2.927988 0.129712,-0.199223 0.259422,-0.398449 0.393065,-0.60371 0.950445,-1.446229 1.949651,-2.837953 3.004143,-4.210465 0.531516,-0.694831 1.040463,-1.401583 1.5471932,-2.114601 1.9817745,-2.736358 4.1520934,-5.363969 6.4161462,-7.871354 0.1896321,-0.210777 0.3792643,-0.421555 0.5746432,-0.63872 0.408186,-0.45339 0.8167714,-0.906425 1.2257643,-1.35909 0.519893,-0.580022 1.03118708,-1.166204 1.53995698,-1.755966 C 0.55934458,41.051372 1.3482712,40.251547 2.1609204,39.457077 2.5956282,39.029156 2.5956282,39.029156 3.0383873,38.403911 3.1420722,38.267484 3.2457544,38.13106 3.35258,37.9905 c 0.174625,0 0.34925,0 0.5291666,0 0.1023197,-0.236358 0.1023197,-0.236358 0.2067057,-0.477491 0.3510651,-0.632368 0.6905202,-0.95259 1.2485026,-1.407666 0.8824516,-0.744968 1.7031362,-1.525264 2.5135417,-2.348177 1.1052915,-1.115369 2.2396874,-2.163117 3.4395834,-3.175 0.27287,-0.233902 0.545719,-0.467825 0.818554,-0.701765 0.289253,-0.245792 0.578641,-0.491429 0.868164,-0.736907 0.138772,-0.11903 0.27754,-0.238064 0.420518,-0.360701 1.007124,-0.84646 1.007124,-0.84646 1.596912,-0.84646 0,-0.174625 0,-0.34925 0,-0.529167 0.628917,-0.523824 1.261977,-1.017066 1.918229,-1.504817 0.199736,-0.150282 0.39947,-0.300563 0.605261,-0.455399 0.431204,-0.324173 0.862938,-0.64764 1.29514,-0.970483 0.687099,-0.514738 1.370799,-1.033724 2.053879,-1.553781 2.225291,-1.689624 4.440266,-3.321973 6.82749,-4.775936 0.436981,-0.284309 0.872501,-0.570877 1.306381,-0.859896 0.273703,-0.182128 0.273703,-0.182128 0.552937,-0.367936 0.536321,-0.35973 0.536321,-0.35973 1.06867,-0.802018 0.511596,-0.3514 0.511596,-0.3514 1.305346,-0.3514 0,-0.174625 0,-0.34925 0,-0.529167 1.601544,-0.91959 3.204837,-1.836062 4.809783,-2.749703 0.462818,-0.263689 0.925375,-0.527839 1.387512,-0.792716 2.315573,-1.325778 4.656831,-2.5666458 7.064944,-3.7170858 0.228854,-0.109354 0.457709,-0.218707 0.693498,-0.331375 1.007729,-0.473891 2.010502,-0.920255 3.058211,-1.2985 0.851306,-0.323064 1.531046,-0.690015 2.300635,-1.164786 0.496888,-0.209973 0.99911,-0.407573 1.504818,-0.595313 0.452762,-0.16985 0.452762,-0.16985 0.914672,-0.343131 0.163583,-0.06122 0.327166,-0.122442 0.495706,-0.185519 0.558134,-0.211758 1.113454,-0.429863 1.668503,-0.649573 2.202973,-0.87113 4.409113,-1.694089 6.66316,-2.42362402 0.618461,-0.201312 1.234513,-0.410175 1.847949,-0.626319 0.426671,-0.149897 0.426671,-0.149897 0.861963,-0.302823 0.249659,-0.08936 0.499318,-0.178718 0.756542,-0.270785 0.63252,-0.159163 0.63252,-0.159163 1.42627,0.10542 z"
         fill="#0261b6"
         id="path2"
         style="stroke-width:0.264583" /><path
         d="m 109.66469,57.73482 c 0.26869,-0.0012 0.53737,-0.0024 0.8142,-0.0037 4.443,-0.0071 8.5982,0.377142 12.95331,1.263013 1.4031,0.273798 2.81922,0.465147 4.23675,0.648345 1.32449,0.194573 2.5103,0.605795 3.76043,1.079262 1.32789,0.492506 2.68143,0.904307 4.03218,1.329054 1.11946,0.356781 2.23835,0.71528 3.35691,1.074869 0.19662,0.06314 0.39324,0.126279 0.59582,0.191332 2.37143,0.771377 4.55602,1.791791 6.75941,2.944653 0.62313,0.324903 1.24902,0.644052 1.87521,0.96299 2.03848,1.046032 4.01081,2.089953 5.85701,3.457153 0.59331,0.432673 1.22038,0.78511 1.86138,1.142049 3.50302,2.02992 6.67989,4.652918 9.64696,7.395931 0.42206,0.370277 0.42206,0.370277 1.18546,0.574642 0.34313,0.349333 0.34313,0.349333 0.7276,0.826823 0.9762,1.155592 2.03386,2.211938 3.10885,3.274219 1.3357,1.323842 2.6314,2.655644 3.83646,4.101041 0.12142,0.137449 0.24284,0.274897 0.36794,0.416513 4.04126,4.585282 7.57473,9.952175 10.22056,15.460551 0.26493,0.56072 0.26493,0.56072 0.67283,1.18856 0.47912,0.83325 0.81357,1.6969 1.16065,2.59209 0.18831,0.48441 0.38211,0.96672 0.58085,1.44694 0.0965,0.23329 0.19304,0.46658 0.29248,0.70694 0.0887,0.21248 0.17736,0.42496 0.26872,0.64388 0.19431,0.56328 0.19431,0.56328 0.19431,1.35703 0.17462,0 0.34925,0 0.52916,0 0.0873,0.52387 0.17463,1.04775 0.26459,1.5875 -12.31107,0 -24.62213,0 -37.30625,0 -0.0873,-0.26194 -0.17463,-0.52388 -0.26459,-0.79375 -0.26194,-0.0873 -0.52387,-0.17463 -0.79375,-0.26459 -0.32392,-0.37314 -0.62937,-0.76239 -0.92604,-1.15755 -1.22484,-1.53457 -2.56634,-2.92609 -3.95221,-4.31601 -0.20805,-0.2104 -0.4161,-0.42079 -0.63045,-0.63756 -2.01203,-2.00246 -4.20201,-3.739 -6.5133,-5.38172 -0.15809,-0.11442 -0.31617,-0.22885 -0.47904,-0.34674 -0.68072,-0.48601 -1.25249,-0.858816 -2.05104,-1.125 0,-0.174625 0,-0.34925 0,-0.529167 -0.16917,-0.06548 -0.33834,-0.130969 -0.51263,-0.198438 -1.51421,-0.618045 -2.99533,-1.282689 -4.44831,-2.033984 -1.56342,-0.79022 -3.18409,-1.401945 -4.82864,-2.000911 -0.19782,-0.07333 -0.39564,-0.146659 -0.59945,-0.222208 -5.1518,-1.81886 -10.55805,-2.737816 -16.00413,-2.737236 -0.60313,-5.29e-4 -1.20614,-0.0054 -1.80925,-0.0104 -5.5051,-0.02114 -11.909456,0.539956 -16.781986,3.254581 -0.550324,0.256741 -1.026674,0.361355 -1.623609,0.464571 -1.366718,0.288901 -2.493542,0.848265 -3.712435,1.516187 -0.217557,0.117091 -0.435113,0.234183 -0.659262,0.354822 -2.672038,1.457029 -5.232199,3.049533 -7.58003,4.995753 -0.442349,0.32143 -0.442349,0.32143 -0.971515,0.32143 0,0.17463 0,0.34925 0,0.52917 -0.406278,0.35669 -0.828651,0.6951 -1.256771,1.02526 -2.719983,2.18158 -5.100553,4.66299 -7.209896,7.4414 -0.121377,0.15984 -0.242752,0.31967 -0.367808,0.48434 -2.017932,2.68459 -3.679825,5.46823 -5.171776,8.47545 -0.184689,0.37116 -0.372451,0.74081 -0.56353,1.10872 -0.620379,1.20182 -1.115306,2.40511 -1.536729,3.68983 -0.06608,0.20084 -0.132162,0.40168 -0.200248,0.60862 -2.679517,8.36471 -3.694789,17.13436 -2.214075,25.84971 0.05327,0.32288 0.05327,0.32288 0.107616,0.65229 0.479788,2.83038 1.109478,5.44491 2.273634,8.07896 0.07674,0.18009 0.153479,0.36017 0.232545,0.54571 0.185869,0.43597 0.37348,0.8712 0.561205,1.30638 0.104706,0.30525 0.209412,0.6105 0.317293,0.925 0.549783,1.47199 1.333357,2.8084 2.113566,4.16822 0.155205,0.27136 0.310412,0.54272 0.470321,0.82231 2.077212,3.60639 4.454429,6.79448 7.152986,9.95947 0.15625,0.18368 0.3125,0.36736 0.473485,0.55662 0.917956,1.06576 1.857145,2.05459 2.899953,2.99871 0.244202,0.2234 0.488405,0.4468 0.740007,0.67696 0.624539,0.57425 0.624539,0.57425 1.442805,0.79479 0.440973,0.44097 0.881944,0.88194 1.322917,1.32292 0.851215,0.67497 1.609968,1.24221 2.645833,1.5875 0,0.17462 0,0.34925 0,0.52916 0.261938,0.09 0.261938,0.09 0.529167,0.1819 0.853916,0.37359 1.589098,0.83482 2.364713,1.34772 0.603927,0.35687 1.215774,0.59657 1.86862,0.85163 0.382136,0.19496 0.762418,0.39358 1.141016,0.59531 1.544943,0.78411 3.150798,1.37026 4.775935,1.96268 0.55184,0.20212 1.101534,0.41099 1.643311,0.63872 0.776312,0.29377 1.550374,0.46537 2.361613,0.63975 1.585675,0.34085 1.585675,0.34085 2.348177,0.65939 5.739282,2.20348 14.594682,1.72196 20.520192,0.38887 0.59528,-0.13294 1.19265,-0.24891 1.79162,-0.36406 2.36449,-0.47014 4.49492,-1.13055 6.69313,-2.13941 0.45082,-0.18479 0.9028,-0.36681 1.35599,-0.5457 0.2159,-0.087 0.43179,-0.17394 0.65423,-0.26355 0.40718,-0.15956 0.81706,-0.31251 1.22989,-0.45682 4.74841,-1.7216 9.05574,-5.05917 12.89948,-8.25893 0.18724,-0.1545 0.37448,-0.309 0.5674,-0.46819 1.07078,-0.90699 2.01279,-1.86427 2.91765,-2.93625 0.32957,-0.3845 0.66917,-0.76057 1.017,-1.12862 1.3179,-1.39849 2.45994,-2.87981 3.56774,-4.44624 0.20985,-0.29618 0.20985,-0.29618 0.42394,-0.59834 0.76876,-1.10022 0.76876,-1.10022 1.29585,-2.32861 -10.21556,0 -20.43113,0 -30.95625,0 0,-0.0873 0,-0.17463 0,-0.26458 19.558,0 39.116,0 59.26667,0 -0.29554,2.06872 -0.29554,2.06872 -0.72761,2.94349 -0.45074,0.9564 -0.83907,1.91912 -1.20716,2.91041 -0.75584,1.9784 -1.63866,3.88432 -2.56315,5.78776 -0.12001,0.24864 -0.24003,0.49727 -0.36367,0.75345 -0.40503,0.8362 -0.81391,1.67042 -1.22383,2.50424 -0.1286,0.26511 -0.25721,0.53022 -0.38971,0.80337 -0.76377,1.53939 -1.60387,2.94456 -2.62303,4.32906 -0.45374,0.64388 -0.83869,1.30622 -1.22059,1.99478 -1.96622,3.4276 -4.27256,6.70482 -6.69727,9.82265 -0.11895,0.15412 -0.23789,0.30824 -0.36044,0.46703 -0.27992,0.35148 -0.57809,0.6883 -0.87979,1.02126 -0.17463,0 -0.34925,0 -0.52917,0 -0.0875,0.21333 -0.0875,0.21333 -0.17674,0.43098 -0.47163,0.83953 -1.10277,1.50128 -1.75803,2.19831 -0.12534,0.13558 -0.25068,0.27115 -0.37982,0.41083 -0.79718,0.85825 -1.61632,1.69101 -2.44791,2.51613 -0.25,0.25264 -0.49976,0.50552 -0.74931,0.75861 -0.26285,0.26528 -0.52572,0.53055 -0.78858,0.79581 -0.12773,0.12995 -0.25546,0.2599 -0.38706,0.39378 -1.78201,1.79366 -3.71605,3.38615 -5.71489,4.93096 -0.2104,0.16278 -0.42079,0.32555 -0.63756,0.49325 -3.70613,2.85483 -7.58218,5.464 -11.83093,7.44425 -0.19305,0.0969 -0.38609,0.19373 -0.58498,0.29352 -1.67395,0.80898 -3.44552,1.24457 -5.24245,1.69086 -0.49728,0.12589 -0.99217,0.26114 -1.48686,0.39687 -2.15788,0.57845 -4.32134,0.99867 -6.52673,1.35599 -0.38517,0.0629 -0.38517,0.0629 -0.77812,0.12713 -0.85844,0.13368 -1.71762,0.25408 -2.57878,0.36897 -0.26282,0.0354 -0.26282,0.0354 -0.53094,0.0716 -3.42595,0.44904 -6.82428,0.54802 -10.27719,0.54106 -0.86016,-7.9e-4 -1.72007,0.005 -2.5802,0.0121 -5.41633,0.0168 -10.710311,-0.55693 -15.996954,-1.73271 -0.336119,-0.0721 -0.672238,-0.14427 -1.018542,-0.21859 -0.80212,-0.17253 -1.603562,-0.34765 -2.404505,-0.52555 0,-0.17462 0,-0.34925 0,-0.52916 -0.464529,-0.0256 -0.464529,-0.0256 -0.938444,-0.0517 -1.714972,-0.19137 -3.316315,-0.76457 -4.941042,-1.31969 -0.538271,-0.18361 -1.077843,-0.3629 -1.617731,-0.5417 -1.464315,-0.49225 -2.832166,-0.9587 -4.144449,-1.7911 -0.376611,-0.15802 -0.757246,-0.30675 -1.141016,-0.44648 -5.412443,-2.1317 -10.722165,-5.19368 -15.263151,-8.81394 -0.328694,-0.24457 -0.658471,-0.4877 -0.989086,-0.72967 -4.77067,-3.49487 -9.237895,-7.41864 -13.03383,-11.97033 -0.332539,-0.38574 -0.332539,-0.38574 -0.671793,-0.77928 -4.619874,-5.36904 -4.619874,-5.36904 -4.619874,-6.36447 -0.174625,0 -0.34925,0 -0.529166,0 -0.391708,-0.53433 -0.391708,-0.53433 -0.84336,-1.2733 -0.165076,-0.2674 -0.330149,-0.53479 -0.500226,-0.81029 -0.167804,-0.27285 -0.335608,-0.5457 -0.508498,-0.82682 -0.302604,-0.4689 -0.605758,-0.93744 -0.909505,-1.4056 -1.082905,-1.70101 -2.071068,-3.45199 -3.059245,-5.20899 -0.125851,-0.21862 -0.251706,-0.43724 -0.381373,-0.66249 -1.234453,-2.16319 -2.191887,-4.40252 -3.034244,-6.74313 -0.288999,-0.7977 -0.585483,-1.59218 -0.884896,-2.38603 -0.100444,-0.26637 -0.200885,-0.53274 -0.304374,-0.80718 -0.205105,-0.54303 -0.410435,-1.08598 -0.615982,-1.62884 -1.783585,-4.73394 -1.783585,-4.73394 -1.658297,-6.02858 -0.174625,0 -0.34925,0 -0.529167,0 -0.379465,-1.25212 -0.65387,-2.46756 -0.851627,-3.76411 -0.02736,-0.17715 -0.05472,-0.3543 -0.08291,-0.53681 -0.08648,-0.56159 -0.171317,-1.12342 -0.25609,-1.68527 -0.05673,-0.37037 -0.113578,-0.74072 -0.170532,-1.11105 -0.133657,-0.87049 -0.267089,-1.74101 -0.396216,-2.61219 -0.07166,-0.46106 -0.149331,-0.9212 -0.229825,-1.3808 -0.355738,-2.10453 -0.475287,-4.1396 -0.473633,-6.27202 -0.0011,-0.33369 -0.0024,-0.66738 -0.0034,-1.01118 -0.0016,-0.70243 -0.0019,-1.40475 -5.29e-4,-2.10717 0.0019,-1.05538 -0.0054,-2.11065 -0.01209,-3.16602 -0.02315,-9.33981 -0.02315,-9.33981 1.418518,-13.39505 0.126595,-0.72224 0.24134,-1.44116 0.347266,-2.16627 0.825045,-5.19689 2.283042,-10.59984 4.679817,-15.29622 0.13153,-0.34173 0.259088,-0.685 0.38344,-1.0294 0.397679,-1.08839 0.890481,-2.10776 1.419034,-3.13779 0.189902,-0.37341 0.379728,-0.74686 0.569474,-1.12035 0.09239,-0.18127 0.184771,-0.36255 0.279958,-0.54932 0.224329,-0.44529 0.441073,-0.89439 0.656421,-1.3441 1.10513,-2.30472 2.449676,-4.434452 3.835423,-6.577378 0.109268,-0.170405 0.218538,-0.34081 0.331116,-0.516377 2.218954,-3.451413 4.674012,-6.633938 7.480294,-9.627706 0.5319,-0.571333 1.043726,-1.150419 1.548226,-1.745631 1.886558,-2.173645 3.977441,-4.3338 6.250781,-6.101953 0.174625,0 0.34925,0 0.529166,0 0,-0.174625 0,-0.34925 0,-0.529167 0.61299,-0.501829 1.228707,-0.973234 1.86862,-1.438671 0.191487,-0.140967 0.382974,-0.281933 0.580263,-0.427171 0.399008,-0.293539 0.798497,-0.586427 1.198441,-0.878693 0.540422,-0.396977 1.076563,-0.798916 1.61127,-1.203544 2.065917,-1.555425 4.183584,-2.94949 6.425189,-4.238501 0.484153,-0.27842 0.966296,-0.560089 1.448232,-0.842326 1.934707,-1.126772 3.900103,-2.170916 5.917985,-3.141927 0.31037,-0.152797 0.620736,-0.305594 0.940512,-0.463021 2.903958,-1.410875 5.871625,-2.377101 8.96334,-3.300315 0.647467,-0.195735 1.292534,-0.397818 1.937286,-0.602289 2.828512,-0.888919 5.600469,-1.554734 8.531779,-1.984375 0.289777,-0.04297 0.579553,-0.08595 0.878111,-0.130224 2.656013,-0.393536 2.656013,-0.393536 3.884453,-0.569087 0.296705,-0.04276 0.59341,-0.08552 0.899106,-0.129579 0.266499,-0.0379 0.532998,-0.0758 0.807573,-0.114851 0.703847,-0.1019 0.703847,-0.1019 1.468298,-0.379186 2.94727,-0.415448 5.97591,-0.350915 8.94622,-0.363802 z"
         fill="#7a7c81"
         id="path3"
         style="stroke-width:0.264583" /><path
         d="m 92.251798,125.30279 c 50.117372,0 100.234742,0 151.870832,0 0.44806,3.58452 0.8353,6.9689 0.82889,10.55956 2.5e-4,0.31933 5.2e-4,0.63866 7.9e-4,0.96767 1.8e-4,0.67262 -2.7e-4,1.34525 -0.001,2.01787 -0.001,1.01418 -2e-5,2.02833 0.002,3.04252 8e-4,2.81789 -0.002,5.63307 -0.15399,8.44754 -0.0102,0.19111 -0.0205,0.38221 -0.0311,0.5791 -0.0493,0.77841 -0.13218,1.42265 -0.38029,2.16699 -0.0633,0.50363 -0.11582,1.00865 -0.16226,1.51412 -0.0295,0.30851 -0.059,0.61702 -0.0894,0.93489 -0.0316,0.33234 -0.0631,0.66469 -0.0956,1.00711 -0.26405,2.6562 -0.57211,5.29805 -0.97565,7.9375 -0.0407,0.27133 -0.0814,0.54267 -0.12331,0.82223 -0.33481,2.12345 -0.76831,4.22859 -1.45437,6.26887 -0.31614,0.95606 -0.57533,1.92283 -0.82838,2.89692 -0.0508,0.19366 -0.1017,0.38732 -0.15409,0.58685 -0.16135,0.61454 -0.32204,1.22925 -0.48256,1.84401 -0.21162,0.81044 -0.42393,1.6207 -0.63666,2.43086 -0.0477,0.1836 -0.0954,0.3672 -0.14453,0.55636 -0.27522,1.04787 -0.58504,2.07424 -0.9386,3.09819 -0.0823,0.24292 -0.16452,0.48585 -0.24928,0.73613 -1.66049,4.86392 -3.37001,9.65498 -5.51988,14.32587 -0.48711,1.05974 -0.94906,2.12076 -1.37253,3.20769 -0.4931,1.24781 -1.07164,2.42635 -1.70532,3.60805 -0.11293,0.21214 -0.22587,0.42428 -0.34223,0.64285 -2.30277,4.29786 -4.71526,8.51523 -7.36402,12.60957 -0.37391,0.57904 -0.74429,1.16021 -1.11388,1.74201 -2.21234,3.47022 -4.49809,6.89426 -7.14995,10.04693 -0.532,0.64425 -1.03972,1.30231 -1.54203,1.96984 -1.1126,1.47789 -2.28237,2.86209 -3.54855,4.2106 -0.74094,0.79227 -1.42858,1.60385 -2.09038,2.46296 -0.95235,1.2194 -2.01141,2.29033 -3.11473,3.37053 -0.70062,0.68723 -1.37241,1.37739 -1.99504,2.13611 -0.68511,0.82893 -1.46064,1.50213 -2.27893,2.19729 -0.61229,0.53953 -1.18339,1.10734 -1.75596,1.68878 -1.94329,1.96319 -4.07205,3.6879 -6.21771,5.42396 -0.14423,0.11767 -0.28845,0.23533 -0.43705,0.35657 -6.60636,5.38865 -13.6807,10.55642 -21.23088,14.54898 -0.64485,0.34555 -1.28095,0.69986 -1.91616,1.06247 -2.66156,1.50889 -5.37254,2.87503 -8.14937,4.15685 -0.16243,0.075 -0.32486,0.14999 -0.49221,0.22725 -4.06713,1.87288 -4.06713,1.87288 -5.0806,1.87288 0,0.17462 0,0.34925 0,0.52917 -2.33145,0.8811 -4.665,1.75034 -7.01766,2.57348 -0.72134,0.26422 -1.42599,0.54554 -2.13527,0.83923 -1.60314,0.64517 -3.24501,1.13164 -4.90306,1.61437 -0.47163,0.13845 -0.47163,0.13845 -0.95278,0.2797 -2.76087,0.80401 -5.52718,1.53754 -8.34071,2.13462 -0.93212,0.17028 -0.93212,0.17028 -1.47071,0.49506 -0.78654,0.36033 -1.52341,0.41762 -2.38229,0.51367 -1.35174,0.16125 -2.66985,0.37281 -4.00182,0.66145 -2.79968,0.58241 -5.64261,0.89376 -8.4832,1.20716 -0.23118,0.0267 -0.46236,0.0533 -0.70054,0.0808 -2.07644,0.21778 -4.14215,0.21385 -6.22824,0.20031 -0.35639,-0.001 -0.71279,-0.003 -1.06918,-0.004 -0.86181,-0.003 -1.72358,-0.007 -2.58538,-0.0129 0,-0.17463 0,-0.34925 0,-0.52917 0.1702,-0.0259 0.34039,-0.0518 0.51574,-0.0786 2.47057,-0.40882 4.83966,-1.08824 7.15718,-2.03811 1.14471,-0.42305 2.22782,-0.64834 3.43958,-0.79375 0,-0.17463 0,-0.34925 0,-0.52917 0.21829,-0.0709 0.43657,-0.14188 0.66146,-0.21498 2.01079,-0.68223 3.89152,-1.48142 5.77226,-2.4691 1.031,-0.53782 2.05936,-0.9722 3.15278,-1.36722 0.56377,-0.21944 1.0442,-0.50178 1.54254,-0.84349 0.63353,-0.43252 1.21047,-0.73265 1.9234,-1.03353 0.97241,-0.42252 1.82711,-0.91533 2.72335,-1.48001 0.28717,-0.18009 0.57435,-0.36017 0.87023,-0.54571 0.51316,-0.32219 1.02468,-0.64703 1.53375,-0.97565 0.60565,-0.33073 0.60565,-0.33073 1.3994,-0.33073 0,-0.17462 0,-0.34925 0,-0.52916 0.34108,-0.17769 0.683,-0.35378 1.02526,-0.52917 0.19032,-0.0982 0.38063,-0.19645 0.57671,-0.29766 0.5147,-0.23151 0.5147,-0.23151 1.04386,-0.23151 0,-0.17462 0,-0.34925 0,-0.52916 0.56613,-0.39756 1.13045,-0.76441 1.7198,-1.12448 1.28159,-0.79765 2.50369,-1.61131 3.66489,-2.58073 0.43615,-0.26354 0.43615,-0.26354 1.49448,-0.26354 0.09,-0.23739 0.09,-0.23739 0.1819,-0.47956 0.43706,-0.72842 0.93955,-0.96037 1.67018,-1.37253 0.0873,-0.17462 0.17463,-0.34925 0.26459,-0.52916 0.26194,0 0.52387,0 0.79375,0 0.0873,-0.26194 0.17462,-0.52388 0.26458,-0.79375 0.43475,-0.2747 0.87707,-0.53747 1.32292,-0.79375 0.76868,-0.61559 1.51769,-1.25116 2.26859,-1.88826 0.64182,-0.49299 0.64182,-0.49299 1.17099,-0.49299 0.0546,-0.14735 0.10914,-0.29468 0.16537,-0.44649 0.51642,-0.86853 1.14228,-1.328 1.9513,-1.93476 0.17462,0 0.34925,0 0.52916,0 0,-0.17463 0,-0.34925 0,-0.52917 0.37001,-0.3638 0.37001,-0.3638 0.89297,-0.79375 1.17851,-0.99542 2.24416,-2.07978 3.3135,-3.1905 0.55603,-0.51367 0.55603,-0.51367 1.0852,-0.51367 0.0709,-0.15416 0.14188,-0.30832 0.21497,-0.46715 0.31812,-0.59856 0.66828,-1.06896 1.10795,-1.58337 0.13642,-0.16234 0.27285,-0.32469 0.41341,-0.49196 0.38034,-0.36793 0.38034,-0.36793 0.9095,-0.36793 0.0679,-0.15485 0.13575,-0.30969 0.20568,-0.46923 0.35144,-0.64 0.73763,-1.04736 1.26607,-1.54822 0.682,-0.64035 0.682,-0.64035 1.17409,-1.42214 0.17462,0 0.34925,0 0.52916,0 0.0679,-0.15245 0.13575,-0.30491 0.20568,-0.46198 0.46342,-0.85429 1.10705,-1.49898 1.7632,-2.20969 0.46645,-0.50831 0.46645,-0.50831 0.67696,-1.29708 0.17462,0 0.34925,0 0.52916,0 0.0982,-0.21282 0.0982,-0.21282 0.19844,-0.42995 0.52448,-0.99651 1.09164,-1.9227 1.89653,-2.71611 0.56408,-0.57149 1.00495,-1.15436 1.46037,-1.81488 0.15894,-0.22987 0.31788,-0.45975 0.48163,-0.69659 0.53075,-0.79732 1.028,-1.61034 1.50791,-2.43913 0.1366,-0.18315 0.1366,-0.18315 0.27596,-0.37 0.17462,0 0.34925,0 0.52916,0 0.06,-0.22374 0.12006,-0.44748 0.1819,-0.678 0.35231,-0.92269 0.77509,-1.56222 1.37357,-2.33474 0.3488,-0.45917 0.3488,-0.45917 0.5612,-1.2206 0.17463,0 0.34925,0 0.52917,0 0.0225,-0.23533 0.045,-0.47067 0.0682,-0.71313 0.22396,-0.99721 0.54636,-1.40978 1.22163,-2.16421 0.80901,-0.96016 1.33778,-1.75152 1.70164,-2.94801 0.29782,-0.85143 0.78614,-1.60218 1.24185,-2.37673 0.40472,-0.70424 0.806,-1.4104 1.20716,-2.11667 0.10215,-0.17803 0.2043,-0.35607 0.30954,-0.5395 0.63445,-1.11973 1.16671,-2.23996 1.6583,-3.42925 0.21926,-0.47461 0.43967,-0.9487 0.66146,-1.42213 0.39184,-0.85673 0.74659,-1.69656 1.02526,-2.59623 0.35927,-1.14762 0.84616,-2.22916 1.33945,-3.32382 0.82325,-1.83717 1.44449,-3.68667 2.00091,-5.6224 0.13511,-0.4198 0.27266,-0.83883 0.41342,-1.25677 0.0634,-0.18929 0.12687,-0.37858 0.19223,-0.57361 0.12288,-0.35985 0.24818,-0.71889 0.37621,-1.07694 0.52765,-1.50636 0.91418,-3.03603 1.28151,-4.5879 0.17534,-0.72941 0.35429,-1.43204 0.63982,-2.1268 0.51502,-1.32012 0.75319,-2.72059 1.04903,-4.10324 0.0705,-0.32881 0.14103,-0.65761 0.21368,-0.99639 0.58671,-2.81203 0.98664,-5.62376 1.31529,-8.47564 0.0961,-0.78793 0.22373,-1.56897 0.35618,-2.35154 0.29923,-1.85024 0.44196,-3.71602 0.5928,-5.58319 0.0203,-0.24315 0.0405,-0.48631 0.0614,-0.73684 0.0174,-0.21919 0.0348,-0.43839 0.0528,-0.66423 0.0702,-0.53983 0.0702,-0.53983 0.3348,-1.06899 -0.15789,0.002 -0.31579,0.003 -0.47846,0.005 -9.36348,0.0948 -18.72687,0.1674 -28.09073,0.21131 -1.12497,0.005 -2.24995,0.0108 -3.37492,0.0164 -0.33593,0.002 -0.33593,0.002 -0.67865,0.003 -3.62366,0.0184 -7.24703,0.0518 -10.87052,0.0907 -3.71964,0.0396 -7.43912,0.0631 -11.15896,0.0717 -2.2945,0.006 -4.58819,0.0241 -6.88244,0.0585 -1.57451,0.0224 -3.1486,0.0291 -4.72326,0.0237 -0.90811,-0.003 -1.81481,10e-4 -2.72267,0.0242 -5.30266,0.11361 -5.30266,0.11361 -6.72628,-0.91173 -0.93361,-0.97112 -1.5347,-2.0566 -2.08243,-3.27823 -0.42918,-0.8951 -0.99943,-1.68926 -1.56914,-2.49932 -0.21767,-0.32709 -0.43513,-0.65433 -0.65216,-0.98185 -0.75636,-1.14024 -1.51556,-2.27856 -2.2748,-3.41687 -0.26941,-0.4041 -0.53882,-0.80821 -0.80821,-1.21233 -0.13089,-0.19632 -0.26177,-0.39265 -0.39662,-0.59492 -0.35976,-0.53963 -0.71951,-1.07926 -1.07926,-1.61889 -0.10963,-0.16444 -0.21927,-0.32888 -0.33222,-0.49829 -0.21902,-0.32855 -0.438,-0.65713 -0.65694,-0.98573 -0.511,-0.76686 -1.02268,-1.53323 -1.53575,-2.2987 -1.65839,-2.47594 -3.29009,-4.96922 -4.92166,-7.46287 -1.3522,-2.06649 -2.71007,-4.12859 -4.08554,-6.17971 -0.64625,-0.96912 -1.282296,-1.94484 -1.918232,-2.92075 -0.220483,-0.33796 -0.440969,-0.67593 -0.661459,-1.01389 -0.329502,-0.50512 -0.658742,-1.0104 -0.987019,-1.51631 -1.293505,-1.99344 -2.6158,-3.95477 -4.029179,-5.8659 -0.812903,-1.11298 -0.812903,-1.11298 -0.812903,-1.69837 z"
         fill="#1a1d22"
         id="path4"
         style="stroke-width:0.264583" /><path
         d="m 114.5567,-7.4022878 c 1.02164,0.01643 2.04285,0.02168 3.06461,0.02481 4.00282,0.0249 7.95705,0.22926 11.93674,0.65319 0.39585,0.04039 0.79172,0.08075 1.18758,0.121052 1.05502,0.109923 2.10834,0.231983 3.1615,0.358505 0.18332,0.02196 0.36664,0.04391 0.55551,0.06653 2.93131,0.355483 5.80479,0.867249 8.68631,1.513732 1.26924,0.282766 2.54171,0.503967 3.82541,0.709841 2.8697,0.460675 5.57601,1.152306 8.3409,2.039087 0.75514,0.235155 1.51383,0.452713 2.27518,0.666884 2.86598,0.80651098 5.65108,1.68676998 8.40982,2.807064 1.34962,0.546215 2.72496,1.016233 4.10718,1.472843 1.0477,0.356664 1.95236,0.795879 2.90073,1.363806 0.65172,0.356847 1.3303,0.591803 2.02875,0.841034 1.03001,0.388039 2.01462,0.874975 3.00602,1.351468 0.22069,0.105516 0.44138,0.211033 0.66876,0.319747 0.63757,0.305615 1.27437,0.612769 1.91093,0.920487 0.45583,0.219475 0.45583,0.219475 0.92087,0.443384 1.61615,0.792063 3.16367,1.667981 4.71082,2.5869218 0.83798,0.477466 1.67185,0.855863 2.57039,1.203027 0,0.174625 0,0.34925 0,0.529167 0.22581,0.04521 0.22581,0.04521 0.45617,0.09134 0.66929,0.192557 1.17349,0.469801 1.77005,0.828502 0.22176,0.132845 0.44351,0.26569 0.67199,0.40256 0.23322,0.142053 0.46645,0.284106 0.70674,0.430464 0.24021,0.145464 0.48043,0.290928 0.72793,0.4408 1.60036,0.975623 3.14822,1.994117 4.66295,3.098002 0.3603,0.254482 0.72104,0.508323 1.08211,0.761711 0.19724,0.138472 0.39448,0.276944 0.5977,0.419612 0.38924,0.273216 0.77849,0.546412 1.16776,0.819589 1.08304,0.763455 2.14986,1.544389 3.20723,2.342944 0.61742,0.461742 1.2411,0.914029 1.86617,1.365358 0.21998,0.159618 0.43997,0.319236 0.66662,0.48369 0.45594,0.330573 0.91279,0.659887 1.37046,0.988055 0.21726,0.158252 0.43452,0.316508 0.65836,0.479557 0.19714,0.142309 0.39427,0.284618 0.59738,0.431239 0.2118,0.185581 0.2118,0.185581 0.42788,0.374912 0,0.174625 0,0.34925 0,0.529167 0.14086,0.05935 0.28172,0.118689 0.42685,0.179834 0.84464,0.467249 1.54341,1.075291 2.26859,1.705322 0.16049,0.138708 0.32099,0.277413 0.48634,0.420322 2.84607,2.481969 5.56822,5.102601 8.24491,7.765225 0.15858,0.157337 0.31715,0.314674 0.48053,0.476779 0.44625,0.447892 0.88559,0.901248 1.32195,1.358768 0.15642,0.161282 0.31284,0.322561 0.474,0.48873 0.22223,0.240514 0.22223,0.240514 0.44894,0.485886 0.20122,0.214585 0.20122,0.214585 0.4065,0.433501 0.25806,0.443966 0.25806,0.443966 0.18727,0.949537 -0.21778,0.621181 -0.45538,0.912323 -0.91983,1.374251 -0.23144,0.233072 -0.23144,0.233072 -0.46755,0.47085 -0.25523,0.250949 -0.25523,0.250949 -0.51561,0.506971 -0.26784,0.26801 -0.26784,0.26801 -0.54109,0.541435 -0.59163,0.591077 -1.18603,1.179293 -1.78048,1.767531 -0.41186,0.410387 -0.82356,0.820949 -1.23508,1.23168 -1.08518,1.082149 -2.17272,2.161892 -3.26077,3.241159 -1.10385,1.095759 -2.20548,2.193737 -3.30729,3.291546 -1.78181,1.774831 -3.56498,3.548288 -5.34991,5.319975 -0.88843,0.88194 -1.77514,1.765527 -2.65994,2.651114 -0.42257,0.419751 -0.84529,0.839359 -1.26814,1.258837 -0.47578,0.47334 -0.95155,0.946695 -1.4273,1.420069 -0.24198,0.239768 -0.48397,0.479536 -0.73329,0.72657 -0.23107,0.230219 -0.46214,0.460438 -0.70021,0.697632 -0.2105,0.209116 -0.421,0.418232 -0.63788,0.633682 -0.56349,0.56447 -0.56349,0.56447 -1.05401,1.348627 -0.17462,0 -0.34925,0 -0.52917,0 0,0.174625 0,0.34925 0,0.529166 -0.49609,0.56224 -0.49609,0.56224 -1.05833,1.058333 -0.17462,0 -0.34925,0 -0.52917,0 -0.17462,0.34925 -0.34925,0.6985 -0.52916,1.058334 -0.17463,0 -0.34925,0 -0.52917,0 0,0.174625 0,0.34925 0,0.529166 -0.39584,0.380339 -0.39584,0.380339 -0.9095,0.79375 -0.71818,0.567598 -0.71818,0.567598 -1.20717,1.322917 -0.89565,-0.152106 -1.29574,-0.415253 -1.89962,-1.086239 -0.1567,-0.171235 -0.3134,-0.342471 -0.47484,-0.518895 -0.16595,-0.185177 -0.3319,-0.370354 -0.50288,-0.561142 -0.35469,-0.387001 -0.70989,-0.77353 -1.06557,-1.159618 -0.18004,-0.195858 -0.36008,-0.391713 -0.54557,-0.593506 -2.00885,-2.157746 -4.10554,-4.233942 -6.35943,-6.134766 -0.25546,-0.226127 -0.51092,-0.452253 -0.77411,-0.685229 -3.71701,-3.277087 -7.74692,-6.181029 -11.92589,-8.839771 -0.21948,-0.140475 -0.43895,-0.280953 -0.66508,-0.425686 -4.51529,-2.872708 -9.17769,-5.404963 -14.2167,-7.237928 -0.73024,-0.274487 -1.42832,-0.587161 -2.13424,-0.918808 -5.4258,-2.504824 -11.47253,-4.286435 -17.37981,-5.175911 0,-0.174625 0,-0.34925 0,-0.529167 -0.30867,0.0075 -0.61733,0.015 -0.93535,0.02273 -1.08665,-5.29e-4 -2.08304,-0.166113 -3.14916,-0.38654 -10.4379,-1.945344 -22.54378,-1.783372 -32.85865,0.745561 -0.77895,0.182933 -1.561901,0.342667 -2.345399,0.505008 -1.954368,0.416562 -3.880374,0.914011 -5.807333,1.440738 -0.561213,0.152948 -1.123177,0.302874 -1.685233,0.452686 -3.043878,0.821894 -5.947141,1.873708 -8.801013,3.223578 -0.673193,0.301093 -1.348859,0.57927 -2.033984,0.851627 -6.504311,2.58593 -12.610227,6.019724 -18.269686,10.144078 -0.203893,0.148194 -0.407786,0.296387 -0.617857,0.44907 -4.170998,3.047886 -8.124931,6.334786 -11.857932,9.907857 -1.010711,0.954011 -1.010711,0.954011 -1.596737,0.954011 -0.059,0.145976 -0.118009,0.291951 -0.1788,0.442349 -0.460311,0.809281 -1.053536,1.35877 -1.722892,2.005046 -1.71545,1.680197 -3.263268,3.399518 -4.643644,5.366081 -0.110165,0.128241 -0.220329,0.256482 -0.33383,0.388607 -0.174625,0 -0.34925,0 -0.529167,0 -0.11076,0.234407 -0.11076,0.234407 -0.223761,0.473548 -0.283218,0.542298 -0.585115,0.992005 -0.958596,1.474653 -0.128047,0.167315 -0.256098,0.334626 -0.388024,0.50701 -0.136618,0.177504 -0.273236,0.355005 -0.413994,0.537888 -1.328145,1.745742 -2.570403,3.530819 -3.76928,5.367115 -0.41242,0.631259 -0.842312,1.245306 -1.285709,1.855182 -0.52587,0.730403 -0.975839,1.471223 -1.39423,2.26963 -0.707112,1.326745 -1.456758,2.622505 -2.22622,3.913973 -0.442986,0.781799 -0.847814,1.573371 -1.245274,2.378861 -0.247695,0.500269 -0.501317,0.996878 -0.757706,1.492737 -3.80638,7.411739 -6.403258,15.269759 -8.239289,23.385649 -0.07231,0.31097 -0.144611,0.62193 -0.219109,0.94232 -1.471586,6.37399 -2.161421,12.75479 -2.370913,19.28797 -0.04037,1.11855 -0.164992,2.20942 -0.320395,3.31763 -0.08731,0 -0.174625,0 -0.264583,0 -0.847812,-3.80181 -0.570444,-7.91953 -0.56366,-11.78772 0.0013,-0.9554 10e-6,-1.91077 -0.0016,-2.86617 -0.0019,-4.99211 0.07408,-9.94645 0.763778,-14.89676 0.04568,-0.33987 0.09136,-0.67974 0.138428,-1.02991 0.148111,-1.09597 0.302164,-2.19106 0.456885,-3.28611 0.05534,-0.39433 0.110675,-0.78867 0.16601,-1.183 0.168037,-1.19355 0.339481,-2.38659 0.511984,-3.5795 0.02641,-0.18418 0.0528,-0.36836 0.08,-0.55813 0.461639,-3.20566 0.983154,-6.382287 1.887836,-9.496033 0.105167,-0.430395 0.206819,-0.861677 0.303858,-1.293979 1.021006,-4.465357 1.021006,-4.465357 1.823466,-6.471825 0.260223,-0.71824 0.443032,-1.425832 0.616694,-2.169506 0.408455,-1.668923 0.921816,-3.287776 1.472779,-4.914429 0.08851,-0.266372 0.177011,-0.532744 0.2682,-0.807186 0.776428,-2.312831 1.673262,-4.561059 2.642216,-6.799585 0.481338,-1.114362 0.951201,-2.231343 1.405599,-3.356901 1.787528,-4.28439 3.92964,-8.386392 6.190062,-12.437031 0.23295,-0.41816 0.464376,-0.837173 0.694013,-1.257159 0.7781,-1.419802 1.608032,-2.798342 2.475561,-4.165185 0.137768,-0.217344 0.275537,-0.434686 0.41748,-0.658617 3.626155,-5.686406 7.572314,-11.265669 12.117155,-16.25818 0.303996,-0.34654 0.607171,-0.693803 0.909505,-1.041797 1.094415,-1.252526 2.207734,-2.487498 3.323828,-3.720703 0.241522,-0.269732 0.483024,-0.539482 0.724503,-0.809252 1.195388,-1.3283 2.396649,-2.60124 3.769278,-3.750675 0.635122,-0.556347 1.21707,-1.15263 1.80661,-1.757 1.132435,-1.146331 2.326171,-2.165789 3.584276,-3.170864 0.63279,-0.512973 1.237715,-1.043177 1.839682,-1.591636 1.446654,-1.300948 2.981936,-2.486916 4.521301,-3.675098 0.371811,-0.287119 0.742248,-0.576015 1.112464,-0.865193 1.361509,-1.049031 1.361509,-1.049031 1.956469,-1.049031 0,-0.174625 0,-0.34925 0,-0.529167 0.505444,-0.344621 1.027028,-0.665668 1.554427,-0.975651 1.087261,-0.6413028 2.131968,-1.3057008 3.162597,-2.0350178 1.29939,-0.918119 2.627434,-1.776232 3.981153,-2.611727 0.23866,-0.147425 0.477319,-0.29485 0.723212,-0.446743 2.2561,-1.381302 4.558313,-2.667353 6.890018,-3.91591 0.596836,-0.320239 1.191427,-0.64431802 1.785679,-0.96932102 2.472567,-1.342591 4.994763,-2.51867598 7.576669,-3.63491998 0.702271,-0.30708 1.396391,-0.630915 2.090958,-0.954981 1.110286,-0.504828 2.226497,-0.955229 3.382357,-1.345396 0.60452,-0.214803 1.20155,-0.451419 1.79123,-0.704156 3.46299,-1.414327 6.83464,-1.400136 10.53318,-1.340411 z"
         fill="#0261b6"
         id="path5"
         style="stroke-width:0.264583" /><path
         d="m 253.11846,169.4882 c 0.17462,0 0.34925,0 0.52917,0 0,40.68762 0,81.37525 0,123.29583 -1.03291,-0.20658 -1.58042,-0.34734 -2.46394,-0.81028 -3.32108,-1.72499 -6.68569,-3.3641 -10.05416,-4.99402 -0.28511,-0.1381 -0.28511,-0.1381 -0.57598,-0.27901 -2.74144,-1.32789 -5.48879,-2.64236 -8.24403,-3.9414 -3.66769,-1.73296 -7.32056,-3.4916 -10.94106,-5.32112 -0.7548,-0.38106 -1.51005,-0.76124 -2.26549,-1.14102 -0.17017,-0.0862 -0.34034,-0.17236 -0.51567,-0.26116 -1.08529,-0.54555 -2.18549,-1.03376 -3.30426,-1.50824 -0.65859,-0.29755 -1.31345,-0.60282 -1.96783,-0.9095 -0.25919,-0.12131 -0.25919,-0.12131 -0.52362,-0.24508 -3.46503,-1.6269 -3.46503,-1.6269 -3.85855,-2.02042 -0.0389,-0.58622 -0.059,-1.17369 -0.072,-1.76107 -0.004,-0.18417 -0.009,-0.36834 -0.013,-0.5581 -0.0372,-1.70657 -0.0578,-3.41351 -0.0738,-5.1204 -0.0108,-1.14625 -0.0267,-2.2919 -0.0553,-3.43786 -0.0276,-1.10862 -0.0419,-2.2167 -0.0472,-3.32563 -0.004,-0.42104 -0.0129,-0.84205 -0.0265,-1.26288 -0.10076,-3.28822 -0.10076,-3.28822 0.8625,-4.67741 0.65971,-0.66116 1.34017,-1.23738 2.07117,-1.81706 0.31701,-0.33969 0.62767,-0.68563 0.92604,-1.0418 0.72158,-0.84354 1.46399,-1.66379 2.21589,-2.48047 1.0885,-1.19373 2.12357,-2.41912 3.13779,-3.67626 0.60915,-0.75094 1.23178,-1.489 1.85622,-2.22726 1.6781,-2.00848 3.25253,-4.09578 4.82864,-6.18463 0.19048,-0.25049 0.19048,-0.25049 0.3848,-0.50604 3.02203,-3.99255 5.80681,-8.14484 8.34645,-12.45854 0.30902,-0.51919 0.61804,-1.03836 0.92708,-1.55753 1.75145,-2.95705 3.41746,-5.92278 4.89375,-9.02581 0.23927,-0.49686 0.47872,-0.99364 0.71831,-1.49034 0.73608,-1.52916 1.46527,-3.06151 2.19211,-4.59507 0.12598,-0.26469 0.12598,-0.26469 0.25451,-0.53473 0.79947,-1.68247 1.54557,-3.38384 2.25903,-5.10421 0.10347,-0.24882 0.10347,-0.24882 0.20903,-0.50268 1.37108,-3.34939 2.59169,-6.75518 3.71011,-10.1964 0.0614,-0.18839 0.12274,-0.37678 0.18597,-0.57088 0.99812,-3.08283 1.8617,-6.18969 2.64177,-9.33446 0.0486,-0.19532 0.0971,-0.39063 0.14712,-0.59186 0.64095,-2.59517 1.20175,-5.19981 1.70496,-7.8252 z"
         fill="#1b1d22"
         id="path6"
         style="stroke-width:0.264583" /></g></g></svg>
