<svg version="1.1" id="Layer_1" xmlns="http://www.w3.org/2000/svg" xmlns:xlink="http://www.w3.org/1999/xlink" x="0px" y="0px"
	 width="100%" viewBox="0 0 1024 1024" enable-background="new 0 0 1024 1024" xml:space="preserve">
<path fill="#000000" opacity="1.000000" stroke="none" 
	d="
M525.388733,334.633118 
	C540.410400,357.856964 555.207825,380.796783 570.068298,403.695709 
	C571.653564,406.138489 571.530823,408.152222 569.908264,410.544098 
	C562.525940,421.426514 555.204102,432.351685 548.011475,443.360107 
	C545.537354,447.146759 543.701416,446.826965 540.849548,443.606140 
	C533.015747,434.759094 524.800720,426.250549 516.913330,417.449585 
	C514.114502,414.326508 512.219238,413.728638 509.090240,417.316681 
	C501.216797,426.345093 492.907471,434.992798 484.797546,443.815796 
	C481.072479,447.868408 480.430023,447.889191 477.473511,443.418945 
	C470.311340,432.589874 463.249817,421.693726 456.019043,410.910889 
	C454.337341,408.403076 454.001740,406.398682 455.760986,403.689514 
	C473.799469,375.911316 491.721680,348.057648 509.686737,320.231781 
	C510.483063,318.998291 511.180481,317.628693 513.279907,316.900665 
	C517.862427,322.199829 521.206238,328.497406 525.388733,334.633118 
z"/>
<path fill="#000000" opacity="1.000000" stroke="none" 
	d="
M619.260193,388.787598 
	C644.276306,427.229919 669.098755,465.366486 693.916992,503.496582 
	C691.464355,505.584778 689.204956,505.039246 687.134399,505.054749 
	C674.984070,505.145630 662.830444,504.996002 650.683777,505.231903 
	C646.855957,505.306213 644.608765,503.871490 642.580933,500.753571 
	C622.894104,470.484039 603.094910,440.287567 583.293335,410.092834 
	C582.054810,408.204285 580.916504,406.541443 582.447144,404.221466 
	C589.593567,393.389801 596.661743,382.506561 603.794250,371.665680 
	C604.221619,371.016113 604.964783,370.574341 605.963867,369.672089 
	C611.357422,375.415771 614.663513,382.349457 619.260193,388.787598 
z"/>
<path fill="#000000" opacity="1.000000" stroke="none" 
	d="
M377.319580,434.348236 
	C391.395905,412.743256 405.269714,391.437164 419.045868,370.281006 
	C421.743683,370.507538 422.329865,372.499207 423.280060,373.928284 
	C429.730286,383.629486 436.029449,393.431580 442.527496,403.100220 
	C444.180908,405.560364 444.020111,407.437408 442.431519,409.863770 
	C422.467316,440.356628 402.588593,470.905426 382.707825,501.452850 
	C381.585205,503.177856 380.550690,504.642914 378.089081,504.599030 
	C363.618042,504.341003 349.145050,504.190796 334.677551,504.855072 
	C334.069183,504.882996 333.443604,504.535919 331.613190,504.025085 
	C346.976746,480.600891 362.046906,457.624023 377.319580,434.348236 
z"/>
<path fill="#000000" opacity="1.000000" stroke="none" 
	d="
M591.014709,436.021912 
	C605.659424,458.651001 620.115906,480.971100 634.515686,503.203552 
	C632.652466,505.505524 630.507874,504.894440 628.627197,504.899994 
	C598.823853,504.988068 569.019714,504.939972 539.217224,505.138672 
	C534.488220,505.170197 532.699097,503.739258 532.859375,498.854675 
	C533.170593,489.374695 533.172363,479.869415 532.852478,470.389832 
	C532.678711,465.238678 534.707764,463.636383 539.589355,463.879761 
	C545.539368,464.176422 551.515503,463.950317 557.792847,463.950317 
	C557.553589,460.151611 554.634705,458.920624 552.911804,456.910004 
	C551.529663,455.297089 550.278625,453.932434 551.750000,451.699554 
	C559.348999,440.167938 566.894958,428.601379 574.499756,417.073639 
	C574.926880,416.426147 575.713257,416.015778 577.129028,414.825165 
	C581.806274,421.957611 586.316406,428.835297 591.014709,436.021912 
z"/>
<path fill="#000000" opacity="1.000000" stroke="none" 
	d="
M450.000000,504.914429 
	C430.422852,504.914490 411.345734,504.914490 392.055939,504.914490 
	C393.150940,499.748962 444.967560,419.481232 449.071228,416.030334 
	C449.638611,416.515350 450.398071,416.928009 450.824249,417.563995 
	C458.335938,428.774261 465.788544,440.024139 473.301422,451.233612 
	C474.903625,453.624084 474.467590,455.490662 472.419708,457.360870 
	C470.514587,459.100616 468.798706,461.047638 466.561371,463.355316 
	C474.028717,465.205383 480.663910,464.033508 487.233002,463.972717 
	C491.583069,463.932434 493.098450,465.473785 493.014496,469.817474 
	C492.796143,481.119843 492.941101,492.429230 492.941101,504.038788 
	C478.344879,505.045929 464.419739,504.885345 450.000000,504.914429 
z"/>
<path fill="#000000" opacity="1.000000" stroke="none" 
	d="
M714.672729,581.026001 
	C714.673279,579.531677 714.517700,578.502991 714.704224,577.540527 
	C715.199707,574.983948 713.054504,571.089172 716.794983,570.178894 
	C720.886963,569.183044 725.046326,569.122742 728.317444,573.544800 
	C736.710144,584.890381 745.594849,595.872009 754.601074,607.406677 
	C755.806763,605.155884 755.635437,603.208252 755.641846,601.321106 
	C755.672546,592.334717 755.846741,583.343506 755.611328,574.363403 
	C755.477478,569.260376 758.793945,569.935730 761.934509,569.805786 
	C765.071228,569.675964 767.418579,569.965576 767.383362,574.174500 
	C767.241333,591.147827 767.337097,608.123047 767.301147,625.097473 
	C767.297791,626.675903 767.689331,628.945984 765.398193,629.079529 
	C761.758057,629.291809 757.893433,630.613525 754.920410,626.654541 
	C747.827881,617.209778 740.481873,607.954712 733.197205,598.655212 
	C731.384827,596.341553 729.416443,594.150208 726.294312,592.202087 
	C726.294312,597.761292 726.293091,603.320496 726.294617,608.879700 
	C726.296082,614.205078 726.118652,619.538574 726.358643,624.853271 
	C726.565918,629.444519 723.731079,629.396423 720.527954,629.378967 
	C717.397522,629.361877 714.575928,629.621948 714.630127,624.955994 
	C714.798096,610.479675 714.679749,596.000061 714.672729,581.026001 
z"/>
<path fill="#000000" opacity="1.000000" stroke="none" 
	d="
M646.931396,593.000000 
	C646.919983,586.504028 646.985779,580.506653 646.870728,574.512695 
	C646.806580,571.172485 648.067017,569.712769 651.565796,569.744568 
	C663.889771,569.856628 676.216187,569.834900 688.540222,569.715576 
	C691.823242,569.683777 693.350769,571.086365 692.812134,574.178650 
	C692.317322,577.019226 694.050781,581.354919 688.354614,581.223877 
	C680.531067,581.043823 672.692383,581.411011 664.874451,581.137451 
	C660.229492,580.974854 658.473328,582.725464 658.955261,587.251648 
	C659.181274,589.374451 658.993958,591.541321 658.993958,593.427612 
	C660.253418,594.912231 661.648193,594.520935 662.944458,594.496216 
	C669.600647,594.369263 676.262146,594.345764 682.910278,594.037598 
	C686.993042,593.848206 688.985352,594.974121 689.008850,599.569946 
	C689.033081,604.316406 687.148743,605.562378 682.733704,605.349854 
	C676.419861,605.045959 670.077026,605.404724 663.751343,605.263367 
	C660.415588,605.188843 658.681580,606.310791 658.919189,609.834595 
	C658.985840,610.822632 658.954041,611.861206 658.723816,612.817993 
	C657.552673,617.685059 659.762695,618.901428 664.286011,618.742493 
	C672.271240,618.461853 680.275146,618.756409 688.266174,618.579834 
	C691.927673,618.498962 693.334412,619.820679 693.179443,623.538696 
	C693.032043,627.075073 692.816895,629.559937 688.086853,629.458374 
	C675.767761,629.193970 663.437439,629.297974 651.114563,629.470520 
	C647.670471,629.518738 646.863342,628.042419 646.893250,624.978699 
	C646.995667,614.486633 646.932800,603.993042 646.931396,593.000000 
z"/>
<path fill="#000000" opacity="1.000000" stroke="none" 
	d="
M336.628571,579.050781 
	C336.626129,578.058716 336.621521,577.559204 336.622437,577.059692 
	C336.635345,569.852478 336.635468,569.831726 343.721069,569.807251 
	C354.710205,569.769287 365.703735,569.933960 376.686646,569.660400 
	C381.197144,569.548157 382.306793,571.305481 382.353607,575.524841 
	C382.403137,579.993713 380.779480,581.334595 376.492401,581.189087 
	C369.008972,580.935181 361.501892,581.358765 354.020050,581.082642 
	C349.478455,580.915039 347.482391,582.428223 348.091797,587.058533 
	C348.369781,589.170837 347.757111,591.372681 348.882996,594.063416 
	C356.423492,594.063416 364.187012,594.029785 371.950104,594.074341 
	C377.851349,594.108215 378.326813,594.805969 378.200348,600.826355 
	C378.133881,603.990051 376.936371,605.334167 373.729675,605.285278 
	C366.904816,605.181152 360.071045,605.445801 353.252625,605.214172 
	C349.345093,605.081421 347.659698,606.451477 348.078430,610.377014 
	C348.218903,611.694092 348.183777,613.044556 348.087616,614.369446 
	C347.851257,617.626099 349.361176,618.761841 352.539612,618.709351 
	C360.529541,618.577209 368.528595,618.842041 376.513062,618.594788 
	C380.697723,618.465149 382.487244,619.589661 382.438660,624.154724 
	C382.393127,628.431824 380.799408,629.510254 376.820221,629.450134 
	C364.668365,629.266418 352.511749,629.408020 340.356964,629.397278 
	C339.225983,629.396301 338.014221,629.675293 336.628967,628.522522 
	C336.628967,612.401428 336.628967,595.972412 336.628571,579.050781 
z"/>
<path fill="#000000" opacity="1.000000" stroke="none" 
	d="
M272.628143,593.204590 
	C280.600494,595.907654 288.564117,594.368530 296.454010,594.460938 
	C298.623322,594.486389 298.663818,592.331604 298.680481,590.633850 
	C298.732788,585.305298 298.958160,579.968201 298.738434,574.650085 
	C298.544830,569.964966 301.253906,569.713501 304.798859,569.704285 
	C308.242371,569.695251 310.443665,570.117676 310.400269,574.491760 
	C310.235077,591.142822 310.243103,607.798645 310.475830,624.448608 
	C310.541290,629.130371 308.115631,629.389038 304.546478,629.436829 
	C300.827454,629.486450 298.449341,628.874146 298.713409,624.334900 
	C298.993408,619.521851 298.678284,614.677124 298.813477,609.851501 
	C298.900543,606.743347 297.869476,605.248535 294.522461,605.342957 
	C288.698547,605.507202 282.861267,605.543030 277.040070,605.337219 
	C273.191254,605.201172 272.126526,606.959839 272.254150,610.463623 
	C272.429810,615.286621 272.122131,620.129272 272.352722,624.947632 
	C272.577698,629.648071 269.541840,629.319214 266.438690,629.358459 
	C263.211670,629.399231 260.579987,629.373169 260.626129,624.805115 
	C260.796082,607.987366 260.784851,591.166016 260.631195,574.347961 
	C260.589722,569.806030 263.277740,569.773193 266.493530,569.737671 
	C269.756958,569.701660 272.456024,569.803711 272.319519,574.337463 
	C272.134338,580.488708 272.394043,586.653320 272.628143,593.204590 
z"/>
<path fill="#000000" opacity="1.000000" stroke="none" 
	d="
M467.858887,616.310303 
	C462.723236,616.307983 458.049286,616.540771 453.412048,616.228577 
	C449.793701,615.984924 447.736450,617.329712 446.800995,620.705750 
	C446.713379,621.022034 446.527344,621.311035 446.387299,621.612732 
	C442.308258,630.398132 442.241669,630.432251 432.015442,628.952576 
	C431.031464,627.368103 432.170074,626.075989 432.735138,624.792786 
	C440.306885,607.597656 447.972534,590.443726 455.488739,573.224548 
	C456.572418,570.741943 457.980865,569.360168 460.714600,569.710938 
	C463.626801,570.084534 467.198547,568.310303 468.983276,572.381897 
	C476.991852,590.651917 485.044800,608.902466 493.053528,627.172424 
	C493.232147,627.579895 493.075958,628.134216 493.075958,628.792786 
	C489.755096,629.845825 486.422852,629.463867 483.176941,629.207153 
	C479.970184,628.953674 479.601257,625.785950 479.072388,623.596985 
	C477.646027,617.692932 474.277222,615.262756 467.858887,616.310303 
M469.721161,602.155823 
	C467.711945,596.515869 465.414215,591.018860 462.154175,584.924255 
	C458.899536,591.856201 456.261017,597.645386 454.269653,604.356140 
	C459.392700,605.516479 464.139252,605.131653 468.828827,605.126831 
	C470.032227,605.125610 470.178375,603.885742 469.721161,602.155823 
z"/>
<path fill="#000000" opacity="1.000000" stroke="none" 
	d="
M538.203979,607.736572 
	C531.954346,604.855225 525.298889,604.452637 519.427185,601.536682 
	C509.627716,596.670349 506.613281,584.308289 513.409851,575.803955 
	C517.602478,570.557861 523.732910,569.171692 529.942566,568.911316 
	C536.871704,568.620667 543.360779,570.702454 549.456055,574.107971 
	C553.728394,576.494934 551.173828,578.907654 549.898193,581.500366 
	C548.573425,584.192871 547.271729,585.996643 543.857605,583.918396 
	C539.074036,581.006592 533.807129,579.603882 528.117432,580.163208 
	C525.158691,580.453979 523.017578,581.757935 522.364319,584.770508 
	C521.647644,588.075439 523.209961,590.383667 526.222168,591.414917 
	C531.091064,593.081848 536.124634,594.271179 540.982361,595.966431 
	C551.816528,599.747437 556.429016,608.158203 553.293457,618.000305 
	C552.193359,621.453491 550.155701,624.200684 547.208496,626.296692 
	C536.669678,633.791809 516.217773,630.850708 507.955414,620.612427 
	C508.170166,618.643555 510.028870,617.703735 510.868011,616.131897 
	C512.806702,612.500183 514.859070,612.092102 518.228394,614.833252 
	C522.888611,618.624756 528.479675,620.417419 534.558472,619.499207 
	C537.547791,619.047729 540.495911,617.869690 541.531006,614.593079 
	C542.463196,611.641907 541.144714,609.421875 538.203979,607.736572 
z"/>
<path fill="#000000" opacity="1.000000" stroke="none" 
	d="
M619.951172,586.100403 
	C614.476074,582.971985 609.449585,579.822510 603.019714,580.089050 
	C595.014648,580.420898 589.367004,584.250366 586.151550,591.338196 
	C582.707825,598.929260 583.437439,606.377136 588.920105,612.846008 
	C593.978821,618.814697 600.594055,620.862366 608.255798,619.180969 
	C611.205750,618.533691 613.894409,617.187439 616.414795,615.519653 
	C620.229675,612.995483 624.709290,614.471313 626.467957,618.783569 
	C627.429932,621.142212 625.524902,622.131042 624.265808,623.278076 
	C610.581299,635.744324 579.807800,633.624329 573.017273,608.311523 
	C569.321655,594.535400 574.956299,580.152466 586.735657,573.253906 
	C599.107910,566.008118 615.887268,567.691284 625.740906,577.188171 
	C626.080872,577.515869 626.240356,578.030823 626.571777,578.612793 
	C624.967224,581.477173 623.198425,584.225830 619.951172,586.100403 
z"/>
<path fill="#000000" opacity="1.000000" stroke="none" 
	d="
M806.048950,615.975220 
	C806.016602,605.995361 805.825745,596.507385 806.020020,587.027344 
	C806.106384,582.814575 804.868347,580.716919 800.377502,581.180176 
	C798.402771,581.383972 796.387695,581.198120 794.390930,581.187073 
	C788.006775,581.151855 786.285095,578.797913 787.757202,572.480286 
	C788.256714,570.336487 789.642273,569.911682 791.401123,569.908569 
	C805.211731,569.883911 819.022522,569.856079 832.832947,569.905518 
	C837.469849,569.922119 836.107666,573.553894 836.305298,576.128418 
	C836.510315,578.800415 836.304626,581.243408 832.592896,581.149841 
	C829.600220,581.074402 826.583801,581.387024 823.613037,581.126709 
	C819.120850,580.733032 817.915100,582.710266 817.993958,586.957397 
	C818.219421,599.100464 818.109497,611.250549 818.070068,623.397583 
	C818.053040,628.662720 812.360291,631.642395 807.709778,628.911072 
	C806.349670,628.112183 806.206909,626.764282 806.161499,625.452820 
	C806.058044,622.460876 806.077637,619.464722 806.048950,615.975220 
z"/>
<path fill="#000000" opacity="1.000000" stroke="none" 
	d="
M220.314148,622.895630 
	C220.066681,625.271973 221.141205,627.883789 218.904465,628.787598 
	C216.128906,629.909058 212.909073,629.874512 210.096924,628.803894 
	C208.036850,628.019653 208.731567,625.618591 208.722565,623.877625 
	C208.658813,611.546997 208.511963,599.212830 208.752029,586.886841 
	C208.836838,582.532654 207.503342,580.703003 203.078033,581.168518 
	C200.771515,581.411133 198.416901,581.205383 196.084122,581.187683 
	C190.042419,581.141846 189.745880,580.680237 189.684937,574.598450 
	C189.651489,571.260376 190.697678,569.741882 194.240860,569.766235 
	C207.737366,569.859253 221.236786,569.888611 234.731415,569.690186 
	C239.204254,569.624451 239.434525,572.112610 239.374268,575.444031 
	C239.317184,578.600037 239.572083,581.598267 234.890182,581.258240 
	C231.575882,581.017456 228.221497,581.372009 224.897736,581.206055 
	C221.420120,581.032349 220.238968,582.484924 220.276642,585.917297 
	C220.410172,598.080078 220.319229,610.245239 220.314148,622.895630 
z"/>
<path fill="#000000" opacity="1.000000" stroke="none" 
	d="
M576.669434,684.001221 
	C576.674500,679.009216 576.769104,674.514526 576.653076,670.025330 
	C576.580872,667.232971 577.847656,666.114075 580.504700,666.070190 
	C583.180725,666.026001 584.492676,667.126099 584.432434,669.924011 
	C584.357300,673.415222 584.501099,676.910522 584.502319,680.404053 
	C584.503296,683.148926 585.377563,684.777100 588.570984,684.619202 
	C592.554504,684.422302 596.556702,684.501282 600.547729,684.595032 
	C603.496643,684.664307 604.810669,683.422241 604.721619,680.433167 
	C604.617676,676.942627 604.801575,673.443787 604.707214,669.952637 
	C604.629822,667.090088 606.148315,666.139709 608.704468,666.110352 
	C611.400330,666.079285 613.201355,666.902649 613.193298,670.052307 
	C613.162781,682.031738 613.167908,694.011536 613.243103,705.990662 
	C613.261353,708.897217 611.779663,709.778137 609.191345,709.655518 
	C606.685059,709.536804 604.495300,709.182556 604.691467,705.817078 
	C604.817078,703.662048 604.693604,701.492676 604.690063,699.329773 
	C604.678528,692.311218 604.679932,692.310730 597.432861,692.311096 
	C595.935364,692.311157 594.437927,692.317505 592.940430,692.319580 
	C584.476135,692.331055 584.467651,692.330872 584.420715,700.652344 
	C584.412292,702.148193 584.447998,703.649292 584.566162,705.139771 
	C584.775635,707.782837 584.290771,709.748657 581.031372,709.878540 
	C577.848083,710.005310 576.567627,708.708130 576.636414,705.464355 
	C576.784363,698.479431 576.674316,691.488953 576.669434,684.001221 
z"/>
<path fill="#000000" opacity="1.000000" stroke="none" 
	d="
M486.913269,676.965027 
	C488.261993,673.876526 489.277496,671.038940 490.677887,668.406128 
	C492.597595,664.796875 498.395020,664.483398 500.007782,668.135498 
	C505.900818,681.480652 512.398682,694.579834 517.417908,708.262390 
	C511.833008,711.116394 509.436951,710.514343 507.669708,705.140747 
	C506.153290,700.529846 503.557343,698.695068 498.839172,699.356201 
	C497.045105,699.607483 495.152924,699.619995 493.362885,699.354309 
	C487.456726,698.477844 483.620453,700.224976 482.075287,706.537659 
	C480.903992,711.322937 477.102783,710.350281 472.777496,709.219421 
	C476.770966,698.106201 482.322906,687.937439 486.913269,676.965027 
M499.637360,685.779297 
	C498.292297,683.222290 497.630096,680.265869 495.120575,677.749390 
	C492.576843,682.177673 490.611328,686.337891 489.577423,691.246765 
	C493.826141,691.818970 497.472595,692.214233 501.030457,691.034973 
	C501.230225,689.112549 500.499512,687.803406 499.637360,685.779297 
z"/>
<path fill="#000000" opacity="1.000000" stroke="none" 
	d="
M459.127380,693.285156 
	C454.787445,696.333801 450.058807,696.661560 445.447235,696.786865 
	C436.674683,697.025391 437.180511,697.168457 437.414764,705.225586 
	C437.523468,708.965088 436.115326,710.398254 432.451385,710.009521 
	C430.185791,709.769165 429.413025,708.716064 429.326294,706.449280 
	C428.862213,694.323547 429.526672,682.212952 429.614899,670.095703 
	C429.633392,667.549866 430.344421,665.863281 433.231140,665.944214 
	C439.199341,666.111450 445.184875,665.425354 451.135986,666.535828 
	C457.153168,667.658569 461.637726,670.514587 463.454285,676.674133 
	C465.294647,682.914307 464.429871,688.496216 459.127380,693.285156 
M442.970551,673.884155 
	C440.968872,674.285339 438.196686,672.494019 437.385681,676.167175 
	C434.792755,687.911011 438.390045,691.549744 449.979431,688.762268 
	C450.139832,688.723694 450.307220,688.714844 450.468323,688.678528 
	C454.337311,687.808167 455.917206,685.151123 455.852570,681.436707 
	C455.783447,677.462219 453.864960,674.826477 449.760803,674.256836 
	C447.802734,673.985107 445.804199,674.005005 442.970551,673.884155 
z"/>
<path fill="#000000" opacity="1.000000" stroke="none" 
	d="
M538.557678,681.403076 
	C537.973022,674.341309 537.971130,674.397034 531.076660,674.164734 
	C528.608459,674.081604 525.471680,675.016052 525.372131,670.637024 
	C525.271973,666.233093 527.962769,665.973572 531.245728,665.992676 
	C539.238098,666.039307 547.231018,665.968872 555.223755,665.959167 
	C557.860840,665.955933 560.211731,666.091614 560.294556,669.795776 
	C560.378784,673.563232 558.316162,674.119507 555.246887,674.206360 
	C546.382874,674.457092 546.382263,674.527954 546.372498,683.541382 
	C546.364746,690.701843 546.300781,697.863037 546.392090,705.022278 
	C546.428772,707.895569 545.949707,709.906738 542.406494,709.843140 
	C538.823792,709.778809 538.570374,707.625488 538.596619,704.837036 
	C538.668762,697.177979 538.585571,689.517456 538.557678,681.403076 
z"/>
</svg>