<svg version="1.1" id="Layer_1" xmlns="http://www.w3.org/2000/svg" xmlns:xlink="http://www.w3.org/1999/xlink" x="0px" y="0px"
	 width="100%" viewBox="0 0 1024 544" enable-background="new 0 0 1024 544" xml:space="preserve">
<path fill="#000000" opacity="1.000000" stroke="none" 
	d="
M759.722290,218.480621 
	C764.743530,240.536530 767.895142,262.428192 767.227295,284.667755 
	C764.738770,367.540619 732.173523,435.825836 667.302002,487.959076 
	C631.135864,517.023621 589.676697,534.761047 543.632935,539.953186 
	C468.885590,548.382141 402.937439,527.178040 346.581726,477.309723 
	C300.966034,436.945129 272.675140,386.218567 263.260712,326.311951 
	C248.676453,233.508728 274.579590,153.169144 343.484161,88.291397 
	C379.461334,54.416752 422.632172,33.855137 471.477264,26.058817 
	C527.847595,17.061375 581.837097,25.103022 632.131775,52.422024 
	C693.388367,85.695366 734.366821,136.122604 755.288208,202.705200 
	C756.882996,207.780609 758.166626,212.953796 759.722290,218.480621 
M309.497986,144.974869 
	C299.314026,161.461075 290.727661,178.689011 284.274109,197.016464 
	C270.454651,236.262314 266.763794,276.566956 272.602173,317.543335 
	C279.203156,363.871979 297.220459,405.598297 327.324707,441.594971 
	C371.655121,494.602417 428.163879,525.210815 497.345001,530.445190 
	C538.994873,533.596497 579.225525,526.163269 616.424866,506.847534 
	C707.374268,459.622131 752.779785,383.405731 756.309753,281.863831 
	C757.226013,255.507111 752.423950,229.525131 744.465088,204.209579 
	C714.618896,109.275108 629.642517,38.150757 523.320312,33.478039 
	C493.465881,32.165977 464.145416,36.133896 435.817993,45.888702 
	C382.565125,64.226791 340.780518,97.361473 309.497986,144.974869 
z"/>
<path fill="#000000" opacity="1.000000" stroke="none" 
	d="
M541.939392,38.885864 
	C569.397705,42.230232 595.373352,49.368240 619.553894,61.853138 
	C681.660522,93.920029 723.287231,143.451172 742.568665,210.711121 
	C763.227966,282.776947 754.005066,351.466064 713.973083,414.914978 
	C680.752808,467.567627 633.480713,502.613922 573.275757,519.440918 
	C547.567505,526.626221 521.340881,528.502747 494.638763,526.532349 
	C397.771637,519.384705 313.742950,448.506378 285.296967,356.923401 
	C276.093140,327.291321 272.003326,297.098724 273.931274,266.260742 
	C277.384186,211.030838 296.398376,161.766235 332.701019,119.665207 
	C367.334106,79.500359 410.668457,53.599663 462.515961,42.308701 
	C475.342194,39.515499 488.369080,37.890701 501.616394,37.663769 
	C514.952698,37.435314 528.227966,37.509529 541.939392,38.885864 
M358.924133,461.558777 
	C359.687622,462.204224 360.461304,462.838043 361.213104,463.496826 
	C400.322662,497.767853 445.661438,517.830688 497.601959,521.424988 
	C543.478638,524.599670 586.843811,514.856689 626.452209,491.162598 
	C699.665100,447.365997 739.382202,382.262726 746.442383,297.574677 
	C749.775696,257.590576 743.023132,218.770111 726.435242,182.092575 
	C701.537048,127.039978 661.771973,86.566109 606.355652,61.862427 
	C561.700317,41.955780 515.141235,37.279907 467.570496,46.955410 
	C399.281891,60.844761 347.383423,98.904449 312.093933,158.669754 
	C282.262909,209.190750 273.000885,264.209778 282.662170,321.935425 
	C291.848450,376.822876 317.368530,423.294983 358.924133,461.558777 
z"/>
<path fill="#000000" opacity="1.000000" stroke="none" 
	d="
M625.309692,279.644836 
	C633.121704,282.871490 634.989868,288.618958 634.314453,296.241577 
	C633.743042,302.690247 634.159485,309.229950 634.221619,315.728546 
	C634.235046,317.128174 633.817322,319.244781 635.841492,319.373260 
	C638.319885,319.530518 637.792725,317.192688 637.972900,315.660370 
	C638.108459,314.508331 638.026611,313.330414 638.036743,312.163971 
	C638.097412,305.175995 638.297607,304.980865 645.443726,304.960754 
	C653.233948,304.938812 653.237305,304.938782 653.261963,312.640503 
	C653.271545,315.640228 653.360779,318.644104 653.235718,321.638672 
	C653.090515,325.114227 653.338379,328.105103 657.961975,328.065765 
	C658.977173,328.057129 660.171997,328.655762 660.142822,329.757141 
	C659.972046,336.201172 665.821960,335.873627 669.397644,337.808655 
	C672.593567,339.538208 673.249023,336.257996 673.963379,334.195526 
	C677.577332,323.761719 679.316467,312.920074 680.706726,302.012329 
	C681.001343,299.700775 681.273315,297.386169 681.540100,295.071198 
	C682.573730,286.101654 685.135193,284.088531 694.880249,284.882904 
	C696.169800,291.975372 694.915466,299.057068 693.948120,306.066254 
	C689.401123,339.014038 677.034973,368.753021 658.297729,396.269043 
	C654.835205,401.353790 651.275940,405.763000 647.152710,410.240906 
	C617.761536,442.160156 582.055420,462.205170 539.108154,468.946960 
	C532.277710,470.019196 525.330750,471.143921 517.665833,469.941956 
	C518.602661,465.970978 517.441833,462.279846 523.088745,460.129395 
	C531.774597,456.821686 535.562256,455.504425 544.880798,457.002197 
	C545.832947,457.155243 547.096619,457.301971 547.788940,456.828064 
	C552.441101,453.643646 559.011108,454.362610 562.781128,449.394470 
	C563.352966,448.640961 564.277527,447.811035 565.142151,447.675537 
	C577.024109,445.813538 585.845276,437.719971 596.141357,432.642273 
	C607.129456,427.223297 615.164490,418.125275 624.471130,410.613007 
	C625.462341,409.812897 626.533508,408.851349 626.310791,407.224121 
	C625.000305,405.480652 623.032593,405.938995 621.277222,405.922150 
	C613.623718,405.848663 605.967773,405.766937 598.315857,405.886353 
	C594.126953,405.951721 592.410156,404.429260 592.590881,400.007324 
	C592.903625,392.354309 592.552917,384.676483 592.713318,377.013947 
	C592.799866,372.881134 590.890869,371.307648 587.000122,371.308624 
	C551.336670,371.317383 515.673157,371.309387 480.009766,371.250916 
	C477.632477,371.247009 476.028198,372.155121 474.407837,373.851105 
	C470.232941,378.220795 465.047607,379.279419 459.270325,377.733643 
	C453.558350,376.205353 447.587067,379.615936 445.907532,385.301697 
	C441.101685,401.570862 430.856384,411.590881 413.527252,413.552643 
	C411.806061,413.747467 409.801636,413.605713 408.553345,415.329956 
	C408.550873,417.601135 410.436249,418.327118 411.787964,419.471161 
	C416.090607,423.112671 421.124664,425.894379 424.603790,430.519989 
	C425.137451,431.229523 426.241180,431.567291 427.139252,431.935699 
	C430.775818,433.427673 434.131866,434.757568 436.901733,438.234955 
	C438.778198,440.590729 443.431702,440.677765 446.790588,441.921478 
	C453.485443,444.400421 460.063171,447.224487 466.840759,449.443176 
	C473.477600,451.615845 479.747589,454.315247 485.814941,457.846069 
	C489.076477,459.744019 493.144806,460.199951 496.928009,456.912262 
	C500.554657,453.760620 502.803070,455.285126 505.197784,459.493591 
	C507.141418,462.909302 508.748566,466.009644 508.045441,470.368805 
	C501.141754,471.099182 494.370392,470.063354 487.744598,469.006104 
	C435.595673,460.684937 394.543549,434.451141 364.937805,390.910583 
	C344.504059,360.859070 332.840057,327.470642 330.863068,290.980438 
	C330.734192,288.601715 328.934814,284.743713 333.379089,284.223785 
	C339.147064,283.548981 344.694122,286.948151 344.834106,291.033600 
	C345.258240,303.411133 347.260986,315.530609 350.364288,327.484985 
	C350.974823,329.836945 351.135406,332.461823 353.266327,334.188721 
	C355.609161,334.299835 356.274628,332.234680 357.449249,330.995422 
	C360.835358,327.423004 364.659607,324.374695 369.338867,322.967651 
	C373.328949,321.767853 375.094452,319.297180 376.507416,315.603210 
	C383.271210,297.920502 401.204010,288.746552 419.336273,293.804810 
	C423.863129,295.067657 424.996429,293.898743 424.782562,289.593414 
	C424.551331,284.938110 424.949036,280.247131 424.632294,275.601746 
	C424.325409,271.102112 426.229126,269.637665 430.467041,269.915955 
	C434.118591,270.155792 437.797150,269.957123 441.462738,270.016449 
	C447.900787,270.120636 449.066254,271.856079 446.843140,278.025696 
	C446.463654,279.078796 446.323303,280.337189 444.742584,281.035614 
	C442.744324,279.729156 440.843964,276.689362 437.684662,279.204010 
	C434.788605,281.509155 433.537445,287.834503 435.273041,291.641937 
	C437.054749,295.550446 439.283844,298.737030 444.315002,296.557373 
	C447.385712,300.601715 446.970734,305.306396 447.892670,309.632843 
	C448.149658,310.838745 447.370026,311.817444 446.562592,312.728333 
	C441.593903,318.333618 443.197174,326.214478 450.018311,329.771820 
	C455.815948,332.795441 461.942444,332.305878 468.083618,331.340515 
	C469.208130,331.163788 470.457764,330.143982 471.426758,330.899902 
	C477.974762,336.007965 484.799103,332.009796 491.491669,331.600677 
	C493.018707,331.507324 494.595612,330.945160 495.570312,332.466125 
	C497.987885,336.238708 501.259735,335.349609 504.375580,334.003052 
	C508.249084,332.329071 511.571716,331.043945 514.707825,335.577850 
	C516.051086,337.519867 518.984558,337.952118 521.641968,337.503479 
	C528.539795,336.338928 535.427307,335.054321 542.443787,334.833557 
	C546.008728,334.721375 546.849243,332.428162 546.940369,329.471222 
	C547.329468,316.838776 548.005493,304.206116 547.144348,291.568939 
	C546.843628,287.155884 547.534790,282.666199 546.331482,277.905914 
	C538.333130,281.180786 532.012451,287.183075 523.935791,289.612579 
	C522.895752,287.188873 524.090942,285.953949 525.188171,285.142212 
	C528.914673,282.385315 528.869751,278.599670 529.091187,274.473389 
	C530.092224,255.817017 528.644348,237.191483 528.730103,218.551514 
	C528.743347,215.679794 529.579773,212.180710 524.746216,212.179596 
	C523.545776,212.179321 523.629639,210.677002 523.027832,209.952484 
	C521.757324,208.422821 520.522461,206.776810 518.042786,207.868088 
	C515.845093,208.835281 514.156738,209.652176 514.193298,212.754150 
	C514.334412,224.749817 514.114746,236.749695 514.033813,248.748047 
	C514.021545,250.567032 514.032166,252.386200 514.032166,254.123154 
	C511.440674,255.216187 510.291870,254.125381 509.466125,252.193405 
	C507.925415,248.588623 506.032776,249.510513 503.825348,251.672714 
	C500.834564,254.602173 499.086395,258.412048 496.709717,261.784760 
	C494.400482,260.802368 494.875732,258.884888 494.845917,257.396606 
	C494.545837,242.412979 494.330627,227.427582 494.135376,212.442108 
	C494.113831,210.786362 494.050812,208.692169 495.692230,207.939011 
	C499.706787,206.096939 500.040009,202.818024 499.625366,199.190796 
	C499.212891,195.582642 500.909851,193.456619 504.127960,192.416199 
	C509.389923,190.714996 510.793091,187.149872 510.885010,181.769302 
	C511.045502,172.373718 512.180054,162.994781 512.919556,153.439346 
	C515.469666,154.273026 515.074219,155.991806 515.184814,157.386795 
	C515.908020,166.510880 516.765991,175.631012 517.164673,184.770554 
	C517.311523,188.136627 518.540894,190.193695 521.530823,191.177139 
	C527.156067,193.027405 530.170105,196.407806 529.094788,202.674347 
	C528.849426,204.104050 528.876160,205.977173 530.450256,206.692825 
	C534.537354,208.551041 534.243835,212.014084 534.228394,215.577225 
	C534.148193,234.073456 534.148621,252.570038 534.121887,271.066498 
	C534.118774,273.196655 534.121399,275.326813 534.121399,277.646027 
	C538.340210,277.383545 538.782471,274.879028 538.776428,272.054932 
	C538.753784,261.389435 538.876404,250.720230 538.618164,240.060333 
	C538.516479,235.864365 539.971375,233.379974 543.659912,231.304077 
	C556.163025,224.267502 555.989136,224.342041 568.813049,230.688553 
	C573.662842,233.088745 575.507629,236.049667 575.354187,241.516998 
	C574.942932,256.171570 575.139709,270.843719 575.148560,285.508911 
	C575.149597,287.274414 574.656433,289.161224 576.090759,291.121918 
	C578.405029,289.957153 577.819763,287.752777 577.834717,286.024323 
	C577.906555,277.692719 577.950500,269.356812 577.745361,261.028839 
	C577.663086,257.689514 578.736145,255.468796 581.481262,253.487503 
	C593.493652,244.817566 593.359497,244.878372 605.919067,252.787476 
	C609.898560,255.293442 611.527405,258.166382 611.408752,262.924347 
	C611.092957,275.582275 611.284973,288.252838 611.276367,300.918396 
	C611.275269,302.584900 611.172729,304.260773 611.313782,305.915527 
	C611.483337,307.904266 610.496948,311.151276 613.613037,311.013611 
	C616.562073,310.883331 615.593506,307.654968 615.617126,305.679199 
	C615.716675,297.347870 615.612549,289.014313 615.669861,280.682129 
	C615.683105,278.755493 615.084534,276.700226 616.528748,274.687836 
	C619.994751,275.096924 622.177002,277.889374 625.309692,279.644836 
M557.326660,343.403839 
	C530.337952,343.379974 503.349243,343.331329 476.360596,343.363831 
	C473.017578,343.367859 470.517029,343.024719 468.742950,339.371796 
	C466.570282,334.898041 461.325195,335.157440 458.775726,339.370178 
	C455.857635,344.192108 455.275909,344.234253 452.118866,339.286957 
	C450.710480,337.079926 448.919403,335.633453 446.370117,336.327667 
	C441.892578,337.546997 440.294342,335.165131 439.410492,331.459961 
	C438.908966,329.357452 438.203430,327.300842 437.758728,325.188019 
	C434.752380,310.904388 424.360748,301.603668 410.972626,301.273041 
	C397.287811,300.935028 386.744659,309.315857 383.124786,323.709351 
	C382.262299,327.138855 380.955505,328.833496 377.102234,329.613770 
	C367.694519,331.518921 361.871552,337.773438 358.635895,346.777008 
	C355.365997,355.875671 360.480316,362.709900 364.477325,369.804535 
	C365.522247,371.659241 367.409607,373.668335 370.287140,372.067108 
	C373.004669,370.554901 373.296478,368.401581 372.301056,365.692535 
	C371.214539,362.735474 370.157623,359.754822 369.328491,356.718719 
	C367.871796,351.384766 370.310852,345.530334 375.097107,342.408356 
	C379.108765,339.791687 384.496338,339.852539 388.126190,343.035065 
	C391.923035,346.364014 394.688934,350.789398 400.999725,353.662109 
	C393.219116,356.189148 390.912659,363.017822 385.173920,365.502686 
	C380.316742,367.605865 380.438049,370.905518 381.639404,374.877686 
	C382.618225,378.114166 384.177887,381.043457 386.904785,383.183990 
	C388.628998,384.537445 389.709259,387.437439 392.590393,386.259216 
	C395.375946,385.120026 394.779327,382.409485 394.645569,380.140839 
	C394.287720,374.070068 396.107239,368.979309 401.019867,365.189606 
	C402.405518,364.120636 403.510803,362.773193 403.498779,361.033905 
	C403.444397,353.186768 405.901520,345.243896 398.148010,338.562500 
	C391.729492,333.031464 393.233429,322.274292 399.623993,316.751770 
	C406.458679,310.845459 415.927246,311.428406 422.010437,318.130005 
	C427.734039,324.435455 427.400696,334.666443 421.289978,340.241272 
	C414.787628,346.173462 414.521759,359.971344 420.775848,366.105927 
	C425.582336,370.820618 427.325897,376.375732 425.387085,382.957428 
	C424.922241,384.535492 424.238098,386.073700 424.566498,387.826172 
	C425.083679,390.586060 424.991455,393.684082 428.774323,394.304260 
	C432.136993,394.855499 433.492004,392.462738 434.850861,390.127136 
	C436.895752,386.612274 437.795410,382.698395 438.430389,378.758392 
	C439.127747,374.431519 441.383240,371.696960 445.730072,371.087891 
	C449.114502,370.613739 450.965088,368.925537 452.076538,365.674500 
	C453.193390,362.407623 455.489777,361.394165 457.853882,364.692413 
	C459.338196,366.763245 460.819183,366.814087 462.985901,366.024475 
	C471.056488,363.083557 479.389648,362.346558 487.981018,362.585205 
	C500.799957,362.941284 513.636230,362.670685 526.465149,362.668518 
	C535.916626,362.666901 545.368164,362.668182 554.819641,362.668182 
	C554.820312,362.172607 554.820984,361.677063 554.821655,361.181488 
	C537.479797,360.882111 520.143433,360.491333 501.565979,359.246277 
	C505.169220,356.592987 507.907471,357.008392 510.490936,356.933716 
	C525.300598,356.505463 540.114868,356.226715 554.922485,355.742126 
	C560.212524,355.569031 565.619873,355.596527 570.114502,351.905945 
	C570.921021,351.243774 572.297852,351.115051 573.431274,351.039459 
	C579.079712,350.662964 584.732971,350.161194 590.387817,350.114594 
	C612.044922,349.936005 633.703430,349.932159 655.361023,349.802155 
	C657.081909,349.791840 658.982666,350.425293 660.551819,349.084320 
	C660.296570,347.390259 658.993958,347.452728 657.892517,347.362518 
	C643.846130,346.212311 629.932983,344.277802 615.686890,344.671692 
	C596.578308,345.200012 577.419495,343.912811 557.326660,343.403839 
M557.241089,293.501007 
	C557.218140,301.982117 557.166504,310.463348 557.189941,318.944305 
	C557.196838,321.433838 557.306519,323.934814 557.576965,326.407806 
	C557.762756,328.106354 558.453857,329.711487 560.424744,330.066925 
	C562.712830,330.479645 563.745605,328.817780 564.512878,327.145874 
	C565.570984,324.840424 565.678589,322.318115 565.678467,319.810364 
	C565.678101,310.830139 565.637939,301.849640 565.708435,292.869995 
	C565.720398,291.338135 565.025940,288.915192 567.169617,288.634033 
	C570.474854,288.200531 570.193604,285.716858 570.291870,283.841217 
	C571.049011,269.387817 570.067810,254.939575 569.862732,240.487991 
	C569.817871,237.326202 564.555786,233.011139 561.449280,233.376144 
	C556.985413,233.900650 557.341187,237.439041 557.334290,240.615326 
	C557.296753,257.910553 557.277466,275.205780 557.241089,293.501007 
z"/>
<path fill="#000000" opacity="1.000000" stroke="none" 
	d="
M633.808716,158.158951 
	C631.695618,155.139832 629.805725,152.398117 627.922485,149.651825 
	C624.850525,145.172073 621.323608,142.606506 615.355957,141.293213 
	C607.497986,139.563919 600.519775,134.516083 596.673462,126.439964 
	C594.152283,121.146164 588.848328,119.132614 583.702209,118.285835 
	C576.886353,117.164307 570.829346,115.297783 566.194275,109.894073 
	C564.497009,107.915306 562.330200,106.780960 559.514221,107.647514 
	C557.455811,108.280952 555.545776,107.926956 554.085938,106.168198 
	C553.510925,105.475487 553.187500,104.556236 553.767334,103.883347 
	C555.409851,101.977264 557.667847,102.172005 559.794006,102.651711 
	C571.381470,105.266068 582.604797,109.126595 593.073792,114.643669 
	C611.563904,124.387726 628.734924,136.014450 643.333435,151.258820 
	C670.414062,179.537415 687.483521,212.689850 693.282104,251.523560 
	C694.431580,259.221558 695.651489,266.903046 695.373352,274.915649 
	C691.175415,275.965790 687.605469,274.474976 684.009583,273.386230 
	C681.502563,272.627197 681.772949,270.376892 681.596619,268.418884 
	C679.685730,247.194656 674.999939,226.688263 665.734070,207.379990 
	C661.186523,197.903717 656.286987,188.592834 649.735840,180.336700 
	C644.137817,173.281830 640.346008,164.957581 633.808716,158.158951 
z"/>
<path fill="#000000" opacity="1.000000" stroke="none" 
	d="
M362.683289,175.726410 
	C366.261597,170.366577 369.569946,165.240341 374.649048,161.549454 
	C379.492584,168.210617 380.004517,174.226898 376.006470,180.201828 
	C361.568634,201.778641 351.212402,225.013245 346.962067,250.757233 
	C346.177856,255.507004 345.585297,260.307129 345.249786,265.108124 
	C344.672638,273.366760 344.789337,273.387848 336.554016,275.007965 
	C334.935760,275.326324 333.294525,275.757202 330.681213,274.778381 
	C331.987823,238.998093 341.868225,205.842728 362.683289,175.726410 
z"/>
<path fill="#000000" opacity="1.000000" stroke="none" 
	d="
M473.910461,217.258804 
	C474.671906,221.660782 473.174469,226.948395 479.836884,227.256302 
	C480.471130,231.479691 485.341431,233.600967 485.304291,238.095261 
	C485.284576,240.482071 485.809967,242.340881 488.158325,243.359451 
	C489.704712,244.030182 490.352844,245.287399 490.351501,246.943970 
	C490.344269,256.063385 490.348022,265.182770 490.348022,274.902130 
	C487.249542,273.790070 487.378357,271.824249 487.030945,270.188385 
	C485.742371,264.121307 485.790283,257.956512 485.677979,251.797379 
	C485.602814,247.674728 480.392456,243.658020 476.392395,244.487839 
	C473.507751,245.086273 472.986420,247.086243 472.955475,249.701981 
	C472.831451,260.181549 472.564667,270.659424 472.352020,281.137970 
	C472.338501,281.803619 472.372986,282.472321 472.322357,283.134796 
	C472.185303,284.927979 472.481110,286.952179 470.483246,287.976471 
	C467.905212,289.298248 468.180847,285.560486 465.989105,285.464844 
	C464.407074,286.699402 463.040131,288.851013 460.019989,287.652496 
	C458.737274,287.143433 457.576996,289.066132 457.559387,290.757660 
	C457.536041,293.002594 456.348480,294.029968 454.301727,294.289612 
	C452.307007,292.684692 452.789124,290.538788 452.777252,288.634674 
	C452.694366,275.318054 452.712250,262.000854 452.665741,248.683960 
	C452.657379,246.288864 452.682129,244.000793 455.206238,242.663406 
	C455.747528,242.376617 456.526733,241.626053 456.452454,241.227951 
	C455.438110,235.792053 461.593445,233.495819 461.906006,228.655472 
	C461.940552,228.120255 462.577942,227.220505 463.008789,227.174545 
	C469.965668,226.432449 467.771667,220.604736 468.519287,216.766281 
	C469.294983,212.783768 469.231018,208.631653 470.694305,203.625229 
	C474.563354,208.057892 472.483398,212.878220 473.910461,217.258804 
z"/>
<path fill="#000000" opacity="1.000000" stroke="none" 
	d="
M683.030212,182.954681 
	C685.579834,181.131149 688.363342,180.230637 690.401917,177.620193 
	C688.202148,175.122879 685.408813,176.261093 682.984375,176.241257 
	C676.122498,176.185043 675.123657,174.705353 678.081116,168.616760 
	C678.936035,166.856750 679.742004,165.072968 680.672119,163.082352 
	C677.159912,161.266357 675.253418,163.750870 673.303833,165.098740 
	C670.233765,167.221329 668.171448,167.162079 665.993042,163.802856 
	C663.756104,160.353394 665.847900,159.168152 668.266968,157.645706 
	C676.542480,152.437408 684.762939,147.141525 692.900696,141.945236 
	C697.087830,145.473907 698.379639,148.738770 695.382080,153.181122 
	C693.348389,156.195145 691.970825,159.651230 690.291626,162.905396 
	C688.511475,166.355423 689.721008,167.958221 693.435425,167.902893 
	C697.930359,167.835938 702.444031,167.913193 706.912231,167.511932 
	C710.378235,167.200668 711.667542,169.208511 712.738281,171.789795 
	C713.974365,174.769913 711.443298,175.536682 709.723633,176.634964 
	C701.469727,181.906372 693.173096,187.110809 684.307983,192.707489 
	C683.298218,189.170853 676.952515,187.482498 683.030212,182.954681 
z"/>
<path fill="#000000" opacity="1.000000" stroke="none" 
	d="
M390.024017,130.027374 
	C385.937347,121.436775 380.023438,113.973083 375.165222,105.860435 
	C374.170685,104.199707 371.558533,102.487175 373.811676,100.259125 
	C375.950958,98.143669 378.422333,96.543701 381.834076,98.332542 
	C386.933014,101.005989 392.196350,103.365807 398.635345,106.457031 
	C398.635345,99.498756 398.621002,93.631783 398.645447,87.764977 
	C398.651581,86.298187 398.268890,84.788254 399.195160,83.405075 
	C401.554047,79.882355 404.987885,79.855171 407.371857,83.454193 
	C412.145782,90.661148 416.780487,97.961876 421.647217,105.104973 
	C423.398193,107.674973 422.939850,109.204613 420.402252,110.715172 
	C418.138123,112.062950 416.166046,113.544128 414.205475,110.263680 
	C412.349121,107.157623 410.230804,104.208076 407.954163,100.777512 
	C405.427307,103.750786 407.139893,106.554794 407.234894,109.104195 
	C407.557159,117.751762 405.960022,118.912933 398.326569,115.238365 
	C396.132355,114.182129 394.059021,112.705101 391.056183,112.901794 
	C391.653717,115.531311 393.201172,117.459068 394.556244,119.463684 
	C398.958160,125.975754 398.488129,127.295929 390.359802,130.018646 
	C390.001801,130.002457 390.024017,130.027374 390.024017,130.027374 
z"/>
<path fill="#000000" opacity="1.000000" stroke="none" 
	d="
M696.577515,210.838989 
	C698.412292,207.593491 702.097290,205.994278 702.533691,201.897186 
	C698.984009,201.326187 696.157288,202.977417 693.272217,203.942795 
	C689.721497,205.130905 688.600891,203.338013 687.492554,200.475235 
	C686.232544,197.220337 688.015686,196.348862 690.480713,195.541183 
	C698.706543,192.845840 706.911072,190.085236 715.132202,187.375534 
	C716.940491,186.779541 718.973328,185.343094 720.292297,188.050980 
	C721.444580,190.416580 722.892395,192.768524 720.440063,195.354660 
	C717.807007,198.131470 715.346924,201.077042 712.892578,204.016861 
	C711.552979,205.621475 709.643616,206.943207 709.705200,209.780807 
	C714.829102,212.125000 720.559265,212.302994 725.966187,213.696777 
	C727.750305,214.156662 729.539612,214.424454 730.440918,216.398056 
	C731.928955,219.656235 732.479736,222.162247 727.864258,223.526886 
	C719.567444,225.979996 711.397827,228.870682 703.208557,231.676270 
	C700.253967,232.688477 698.591003,232.037430 697.569153,228.889389 
	C696.590576,225.874695 697.064697,224.239639 700.289246,223.335983 
	C703.267090,222.501465 706.380432,221.817566 709.246765,219.747131 
	C706.779785,216.499374 703.132202,217.174744 700.141663,216.335815 
	C697.327026,215.546234 695.568542,214.384506 696.577515,210.838989 
z"/>
<path fill="#000000" opacity="1.000000" stroke="none" 
	d="
M419.558319,72.378967 
	C424.529999,70.413261 429.072998,68.299301 433.818573,66.847313 
	C442.036926,64.332764 447.394928,68.378365 447.087128,76.848152 
	C447.008148,79.021820 447.903259,79.616333 449.367188,80.570953 
	C456.158386,84.999489 456.436920,92.346710 449.778442,96.837654 
	C443.822327,100.854851 436.768341,102.616592 430.223511,105.429489 
	C428.071960,106.354179 427.204010,104.865913 426.539459,103.233513 
	C423.034729,94.624451 419.583282,85.993538 416.040253,77.400345 
	C414.677551,74.095192 416.980011,73.378731 419.558319,72.378967 
M439.212769,86.734932 
	C437.832428,87.277306 436.458801,87.837547 435.070221,88.357956 
	C432.886932,89.176224 431.211395,90.113968 432.351776,93.027878 
	C433.473755,95.894760 435.222321,95.698662 437.431732,94.596046 
	C438.758698,93.933853 440.144958,93.388786 441.461029,92.706978 
	C443.241669,91.784462 445.232300,90.808395 444.467468,88.297531 
	C443.775391,86.025459 441.784119,86.251350 439.212769,86.734932 
M431.245209,75.673080 
	C429.353455,76.837746 425.868713,76.770714 427.459473,80.617424 
	C428.451019,83.015137 430.173615,82.743469 431.917419,81.737419 
	C434.284424,80.371834 438.603668,80.328018 437.454376,76.151932 
	C436.641022,73.196640 433.896271,74.970139 431.245209,75.673080 
z"/>
<path fill="#000000" opacity="1.000000" stroke="none" 
	d="
M515.380432,74.125328 
	C513.545959,76.870735 515.599365,78.423409 516.627625,80.193390 
	C517.684875,82.013283 519.466064,83.424400 519.889587,85.622429 
	C514.043152,88.170670 511.752472,87.671303 508.142792,83.181786 
	C507.518616,82.405464 506.912231,81.614120 506.268433,80.854439 
	C504.941071,79.288177 503.538208,77.853294 501.188599,78.676262 
	C498.992371,79.445503 498.830566,81.344650 498.939636,83.185089 
	C499.142853,86.613739 497.536102,87.957008 494.237488,88.048553 
	C491.196625,88.132935 489.663239,87.193390 489.596405,83.846359 
	C489.424133,75.221527 489.175293,66.589134 488.580872,57.985756 
	C488.296906,53.875626 489.996185,52.683296 493.688904,52.731148 
	C497.501648,52.780548 501.320587,52.417912 505.131958,52.490326 
	C510.558380,52.593430 515.342346,54.158657 517.916382,59.494648 
	C520.465637,64.779175 519.057373,69.491196 515.380432,74.125328 
M508.811432,67.449692 
	C509.960785,62.831749 508.680237,60.655010 504.353638,60.380932 
	C502.336243,60.253136 499.721771,59.469349 498.641388,62.010342 
	C497.736481,64.138680 497.660187,66.716499 498.880341,68.721024 
	C500.094879,70.716255 502.444550,69.852791 504.372070,69.774406 
	C505.909058,69.711906 507.276825,69.205788 508.811432,67.449692 
z"/>
<path fill="#000000" opacity="1.000000" stroke="none" 
	d="
M723.588379,298.167267 
	C717.066711,293.083496 710.942566,292.461273 705.143494,298.901001 
	C702.532043,292.317749 703.160522,290.068909 707.917236,286.853088 
	C708.880859,286.201599 709.863281,285.577240 710.816223,284.910645 
	C712.321594,283.857727 714.004578,282.869995 713.352722,280.576080 
	C712.714355,278.329346 710.846680,278.132111 708.966064,278.145233 
	C705.463562,278.169617 703.877502,276.661255 703.952087,272.993683 
	C704.035217,268.907837 706.451294,268.614777 709.596985,268.650208 
	C717.739563,268.741974 725.889771,268.867096 734.025085,268.608063 
	C738.224609,268.474335 739.680054,270.041260 739.373413,274.097260 
	C739.123657,277.402283 739.386169,280.742645 739.312683,284.064972 
	C739.081787,294.500336 734.494019,298.726746 723.588379,298.167267 
M730.895081,285.408142 
	C731.903931,282.319611 732.222046,279.308258 728.200500,278.364777 
	C726.047913,277.859741 723.234741,277.538300 722.479614,280.596649 
	C721.808716,283.313660 721.490234,286.387695 724.432983,288.141815 
	C727.031311,289.690613 729.158508,288.627441 730.895081,285.408142 
z"/>
<path fill="#000000" opacity="1.000000" stroke="none" 
	d="
M313.651306,229.862915 
	C323.844208,234.980621 327.513611,243.185608 324.371521,253.089706 
	C321.156616,263.223328 312.421875,267.963837 302.014313,265.223419 
	C292.564819,262.735260 287.400818,253.293533 289.733307,242.769089 
	C291.851593,233.211090 300.681305,227.313278 310.360901,229.013336 
	C311.341919,229.185623 312.298248,229.498169 313.651306,229.862915 
M312.585388,239.726425 
	C308.022278,237.582367 303.566589,237.097977 299.860352,241.255737 
	C296.295105,245.255280 296.787170,250.630386 300.779022,254.078796 
	C304.827759,257.576324 310.805939,257.426422 314.316498,253.739258 
	C317.990723,249.880203 317.554504,244.474930 312.585388,239.726425 
z"/>
<path fill="#000000" opacity="1.000000" stroke="none" 
	d="
M307.940735,336.259644 
	C297.561340,335.271027 291.034241,329.187286 289.793823,319.750732 
	C288.666260,311.172791 293.237030,303.334351 301.208160,300.176239 
	C310.402771,296.533447 320.655609,300.886902 324.325317,309.992096 
	C328.481842,320.305145 324.603485,330.757172 315.127319,334.662598 
	C312.974457,335.549866 310.743805,336.234528 307.940735,336.259644 
M312.038055,325.825745 
	C316.055603,323.621490 318.418121,320.329742 317.411194,315.686493 
	C316.478973,311.387665 313.334412,308.914246 308.994385,308.385468 
	C304.858856,307.881561 301.446838,309.492584 299.373810,313.140839 
	C297.518890,316.405212 297.592926,319.895905 299.829163,322.977386 
	C302.754242,327.008118 306.833496,327.549988 312.038055,325.825745 
z"/>
<path fill="#000000" opacity="1.000000" stroke="none" 
	d="
M561.902710,91.399834 
	C553.641602,93.578629 546.930176,91.190613 541.562805,85.534676 
	C536.821655,80.538635 536.032532,74.372139 538.345703,67.883202 
	C540.999512,60.438480 548.982483,55.298347 556.692932,56.014160 
	C565.804565,56.860054 573.088135,62.812046 574.289307,70.393448 
	C575.863403,80.328560 571.966370,87.123726 561.902710,91.399834 
M550.762573,66.171944 
	C547.544373,68.952187 545.649475,72.322029 546.671814,76.675423 
	C547.962219,82.170288 553.278992,85.158318 558.533813,83.527245 
	C563.470154,81.995041 566.692017,75.397720 564.825195,70.644531 
	C562.674011,65.167419 557.307617,63.208145 550.762573,66.171944 
z"/>
<path fill="#000000" opacity="1.000000" stroke="none" 
	d="
M323.950714,172.106506 
	C322.533203,171.184875 321.457214,170.386154 320.290283,169.755676 
	C317.260620,168.118729 317.003937,166.211899 318.917969,163.307480 
	C320.847198,160.380035 322.708405,159.263702 325.676422,161.717346 
	C325.930664,161.927551 326.235474,162.076782 326.517365,162.253403 
	C332.415649,165.948929 336.774261,164.134201 338.249084,157.190750 
	C339.050812,153.416077 335.527130,152.584198 333.354797,151.162659 
	C330.235687,149.121552 329.382935,147.418610 331.941162,144.066452 
	C334.088531,141.252670 335.708649,141.070099 338.452026,142.944229 
	C345.454498,147.727921 352.546295,152.384964 359.690063,156.955658 
	C362.680511,158.868973 362.518890,160.713440 360.771179,163.516891 
	C358.919586,166.487000 357.158203,166.980484 354.354645,164.980881 
	C352.204437,163.447281 349.869354,162.172882 347.508545,160.716614 
	C344.690155,162.462585 343.576569,165.342697 341.853394,167.704758 
	C340.214722,169.950943 340.899139,171.698654 343.071045,173.133102 
	C344.458282,174.049286 345.705505,175.216629 347.171265,175.967285 
	C351.285797,178.074509 349.570007,180.598312 347.975067,183.323486 
	C346.058868,186.597504 343.989288,185.267044 341.771210,183.801620 
	C335.943329,179.951233 330.092499,176.135590 323.950714,172.106506 
z"/>
<path fill="#000000" opacity="1.000000" stroke="none" 
	d="
M643.646484,130.207687 
	C645.222229,120.435379 653.217590,113.446739 661.874207,113.850418 
	C670.844666,114.268738 679.635132,122.267265 680.323059,130.637115 
	C681.174561,140.996368 675.618896,148.657349 665.922302,150.943924 
	C655.136658,153.487305 641.967407,141.625977 643.646484,130.207687 
M657.945129,141.661026 
	C663.173340,143.150650 667.468933,141.779602 670.071350,137.616409 
	C672.298889,134.052856 672.513977,130.410049 669.851196,126.925224 
	C667.523315,123.878654 664.401978,122.566544 660.625061,123.318649 
	C656.495850,124.140915 653.728638,126.842438 652.634888,130.743668 
	C651.354492,135.310608 653.430481,138.817276 657.945129,141.661026 
z"/>
<path fill="#000000" opacity="1.000000" stroke="none" 
	d="
M706.197876,338.696350 
	C713.226562,340.913422 719.851562,343.115143 726.542114,345.095215 
	C729.498840,345.970276 730.678101,347.185364 729.458374,350.431824 
	C727.357483,356.023438 725.567505,361.735840 723.776855,367.438324 
	C722.878906,370.297791 721.257935,370.978027 718.483154,370.065674 
	C715.561707,369.105042 715.085327,367.381592 716.096436,364.709076 
	C717.153931,361.914154 718.011841,359.043671 718.953369,356.205017 
	C719.489685,354.588196 719.386414,353.237213 717.465393,352.638245 
	C715.652527,352.073059 714.558044,352.946747 713.961243,354.520966 
	C713.019775,357.004456 712.152893,359.517822 711.317627,362.039459 
	C710.560425,364.325592 709.327576,365.248657 706.820862,364.326141 
	C704.442871,363.451019 703.042236,362.229584 703.880920,359.542450 
	C704.573853,357.322296 705.318481,355.117035 706.094299,352.924286 
	C706.834900,350.830750 707.058044,349.022797 704.366516,348.135315 
	C701.824097,347.296906 701.103882,349.044159 700.466553,350.803558 
	C699.391602,353.771301 698.387756,356.766632 697.431763,359.775055 
	C696.680847,362.138306 695.643738,363.522522 692.742920,362.577545 
	C690.018188,361.689972 688.796509,360.372406 689.774292,357.477295 
	C691.794250,351.496643 693.805725,345.512360 695.730835,339.500793 
	C696.651001,336.627411 698.433594,335.988556 701.102661,336.977509 
	C702.660706,337.554810 704.247070,338.055603 706.197876,338.696350 
z"/>
<path fill="#000000" opacity="1.000000" stroke="none" 
	d="
M716.417236,254.474030 
	C716.087769,252.586777 715.876709,251.106277 715.606750,249.636597 
	C715.288574,247.903854 714.719299,246.311584 712.519165,246.465118 
	C710.234375,246.624573 709.984558,248.309753 710.140259,250.077774 
	C710.402161,253.050568 710.744873,256.017273 711.109558,258.979645 
	C711.438293,261.650452 711.528748,263.918152 707.845154,264.351898 
	C704.581360,264.736206 703.303162,263.365967 702.944519,260.378326 
	C702.232361,254.445908 701.511353,248.512054 700.625671,242.604019 
	C700.175476,239.600998 701.442627,238.365265 704.243103,237.933594 
	C712.936768,236.593521 721.618103,235.172150 730.298218,233.746048 
	C733.441223,233.229675 735.178955,233.887573 735.505676,237.649368 
	C736.006653,243.417664 737.137695,249.135086 738.096680,254.858109 
	C738.579224,257.737640 737.513855,259.138092 734.630310,259.712219 
	C731.658813,260.303864 730.770752,258.918976 730.405701,256.373108 
	C729.958862,253.256668 729.320862,250.167923 728.785461,247.063751 
	C728.449585,245.116135 727.404968,244.077896 725.352722,244.364716 
	C723.301331,244.651443 723.213745,246.228836 723.351501,247.759552 
	C723.529419,249.737228 723.990845,251.690292 724.151184,253.668457 
	C724.378479,256.472260 724.999817,259.565582 720.761108,260.070831 
	C716.596558,260.567230 716.871033,257.478149 716.417236,254.474030 
z"/>
<path fill="#000000" opacity="1.000000" stroke="none" 
	d="
M389.990479,129.990417 
	C388.106384,135.700378 385.195923,137.576019 379.939453,136.077805 
	C378.052338,135.539917 376.743164,135.856461 375.466064,137.180161 
	C373.269073,139.457321 371.046600,141.710052 368.818817,143.957169 
	C367.785126,144.999817 367.609375,146.067398 367.977509,147.563690 
	C369.398376,153.338593 368.891022,154.373245 363.623657,157.904282 
	C362.054657,157.528214 361.799347,156.113693 361.322021,154.913574 
	C357.692535,145.787430 354.204926,136.602188 350.402069,127.549248 
	C349.155548,124.581833 349.702850,122.665283 351.904968,120.508743 
	C354.154938,118.305336 356.127930,117.366936 359.372223,118.654686 
	C369.266602,122.582031 379.297150,126.166481 389.649353,129.955872 
	C390.024017,130.027374 390.001801,130.002457 389.990479,129.990417 
M362.366638,129.237106 
	C361.460602,129.029068 360.563416,129.056824 360.935486,130.306793 
	C361.581360,132.476318 362.135162,134.743759 364.223969,136.369034 
	C366.278290,135.577072 367.877380,134.450104 368.331421,132.157776 
	C366.718048,130.534485 364.748810,130.124512 362.366638,129.237106 
z"/>
<path fill="#000000" opacity="1.000000" stroke="none" 
	d="
M454.722473,69.130371 
	C452.379089,58.318314 452.761963,60.227432 461.433380,58.212006 
	C465.160858,57.345661 468.887909,56.463120 472.644257,55.738914 
	C479.087311,54.496742 479.096893,54.546524 479.654114,61.469112 
	C474.944885,64.349602 469.019775,63.508545 464.115479,65.975960 
	C463.636505,69.990211 465.256042,71.338356 469.005432,70.328804 
	C471.093445,69.766586 473.201996,69.268753 475.319885,68.832214 
	C477.832611,68.314301 479.852448,68.390701 480.424072,71.753754 
	C480.950806,74.852722 479.799622,75.922180 476.917358,76.380623 
	C473.513306,76.922066 470.179535,77.905579 466.987244,78.656975 
	C466.355621,80.861206 467.130585,82.305702 468.039154,83.980949 
	C472.514404,84.083069 476.798370,82.727486 481.123871,81.743095 
	C483.820709,81.129356 485.695831,81.452202 486.170563,84.652832 
	C486.595123,87.515198 485.628052,88.882202 482.632812,89.405357 
	C476.736603,90.435211 470.879791,91.736862 465.062042,93.153442 
	C461.319122,94.064819 459.638428,92.867081 458.957306,89.058449 
	C457.786896,82.513657 456.194641,76.044312 454.722473,69.130371 
z"/>
<path fill="#000000" opacity="1.000000" stroke="none" 
	d="
M339.923248,398.085999 
	C354.954285,421.665161 373.460327,441.456024 396.048187,457.377319 
	C396.727722,457.856354 397.389069,458.362579 398.083405,458.818909 
	C399.934235,460.035400 401.235382,461.397797 399.548462,463.678406 
	C397.936157,465.858093 396.334900,464.599762 394.804413,463.615967 
	C384.552155,457.026215 375.164948,449.317352 366.495911,440.801331 
	C350.616821,425.202545 337.274017,407.639954 326.978271,387.860077 
	C325.722595,385.447784 322.768555,381.995941 326.489197,380.087524 
	C329.925049,378.325226 330.764343,382.668549 332.139099,384.891815 
	C334.760376,389.130981 337.204071,393.480011 339.923248,398.085999 
z"/>
<path fill="#000000" opacity="1.000000" stroke="none" 
	d="
M669.976685,429.967896 
	C658.790222,442.904053 646.184753,453.698547 632.328308,463.049469 
	C630.712524,464.139923 628.875916,466.385864 626.803406,463.640350 
	C624.583557,460.699524 627.185730,459.453918 629.019775,458.189270 
	C657.401733,438.618622 679.522705,413.575195 695.092896,382.784607 
	C695.242981,382.487793 695.410583,382.199646 695.574951,381.910248 
	C696.598999,380.107056 697.709229,378.261780 700.206421,379.372162 
	C702.922913,380.580048 701.812744,382.637909 700.981567,384.443359 
	C697.772583,391.413239 693.844849,397.981567 689.590820,404.353546 
	C683.674133,413.216003 677.474731,421.867706 669.976685,429.967896 
z"/>
<path fill="#000000" opacity="1.000000" stroke="none" 
	d="
M334.896423,360.616425 
	C332.394745,363.365387 329.869781,362.116760 327.150085,361.811707 
	C327.156403,357.867065 328.234619,354.225983 326.716339,350.694824 
	C325.965332,348.948151 325.314331,346.971405 322.998688,347.537964 
	C320.911316,348.048706 320.405334,350.013397 320.649200,351.955536 
	C321.002167,354.766510 321.432617,357.558624 320.943298,360.390686 
	C320.277924,364.241943 318.614258,367.230652 314.553192,368.491150 
	C310.285431,369.815765 306.580994,368.886261 303.572601,365.785278 
	C299.141113,361.217377 297.884888,355.408417 297.818726,349.265350 
	C297.791809,346.763519 299.195618,345.688995 301.627930,345.781067 
	C303.893829,345.866852 306.045197,345.996033 306.132477,349.106934 
	C306.192871,351.260223 306.216858,353.457489 306.674438,355.543579 
	C307.060822,357.305054 307.983917,359.380066 310.177856,359.146790 
	C312.474274,358.902588 312.565430,356.687103 312.585541,354.844086 
	C312.614349,352.195526 312.447418,349.544891 312.474762,346.896271 
	C312.528717,341.667480 315.242767,338.399750 320.272949,337.385956 
	C325.066406,336.419922 328.773376,338.656250 331.271210,342.559570 
	C334.692627,347.906311 336.072205,353.826691 334.896423,360.616425 
z"/>
<path fill="#000000" opacity="1.000000" stroke="none" 
	d="
M700.160645,318.634155 
	C702.650513,308.886200 707.429871,304.325653 715.972717,303.256866 
	C723.427307,302.324219 731.178162,306.282471 734.350037,312.641846 
	C737.816406,319.591644 736.608521,328.894409 731.267700,334.492706 
	C729.880981,335.946259 728.291077,339.101013 725.761963,336.341797 
	C723.946350,334.361023 721.483521,332.136627 724.668091,328.708435 
	C728.757996,324.305542 728.702209,320.095520 725.461670,316.210205 
	C722.114136,312.196686 717.335693,311.263458 712.972351,313.771240 
	C708.568970,316.302032 706.974182,320.700867 709.265747,326.291016 
	C710.856628,330.171844 708.745972,331.481171 706.046631,332.688080 
	C702.729858,334.171112 702.045410,331.299744 701.195312,329.287659 
	C699.818481,326.029419 699.320312,322.581085 700.160645,318.634155 
z"/>
<path fill="#000000" opacity="1.000000" stroke="none" 
	d="
M323.781616,203.692825 
	C330.167450,202.041977 333.131744,198.604904 332.454102,192.591293 
	C331.951965,188.135254 334.885010,187.332611 337.631592,186.803406 
	C340.917572,186.170258 340.480927,189.503342 340.850769,191.328979 
	C342.535767,199.646423 336.504181,209.509521 328.277618,212.264832 
	C320.386414,214.907806 310.323822,210.753448 306.573608,203.304245 
	C302.585297,195.382141 305.190277,184.418106 312.213531,179.566208 
	C316.817322,176.385712 319.075623,177.040268 320.278564,181.626953 
	C320.905029,184.015732 319.555023,184.863235 318.007385,185.969391 
	C314.319031,188.605652 312.236969,192.151245 313.598572,196.717773 
	C314.994202,201.398438 318.538879,203.601883 323.781616,203.692825 
z"/>
<path fill="#000000" opacity="1.000000" stroke="none" 
	d="
M644.651489,94.114380 
	C648.660828,96.585922 651.179016,99.765526 652.488770,103.909317 
	C653.123718,105.918182 653.775574,107.930504 650.828674,108.595367 
	C648.476868,109.125954 645.852112,110.414688 644.614136,106.836304 
	C643.949524,104.915146 642.886536,103.245110 641.242981,101.995392 
	C637.783936,99.365120 634.107361,98.312447 630.193115,100.901947 
	C626.175598,103.559814 624.348572,107.468346 625.595276,112.098480 
	C626.730042,116.312782 629.876343,118.731064 634.431702,118.847321 
	C636.580566,118.902168 638.633667,118.506454 639.382263,121.597504 
	C640.511963,126.262215 639.960144,127.407066 635.115540,127.282410 
	C627.023926,127.074234 621.272156,122.936432 617.786560,115.838974 
	C614.641174,109.434219 616.113892,101.403427 621.095337,96.413696 
	C626.693909,90.805832 633.282288,89.269829 640.754700,92.161865 
	C641.988403,92.639351 643.142212,93.323204 644.651489,94.114380 
z"/>
<path fill="#000000" opacity="1.000000" stroke="none" 
	d="
M593.226074,66.732758 
	C597.734009,68.564415 601.914429,70.212624 606.034851,71.999321 
	C608.225830,72.949364 611.030701,73.457748 609.525574,77.203331 
	C608.117798,80.706558 606.039978,80.554314 603.197754,79.225822 
	C600.641724,78.031128 597.922241,77.190865 595.333801,76.059364 
	C592.602112,74.865227 591.348816,76.264496 590.378845,78.531982 
	C589.354980,80.925255 590.808228,81.865845 592.637024,82.640266 
	C594.935181,83.613464 597.216492,84.629906 599.539551,85.539856 
	C601.875610,86.454933 603.173035,87.602409 601.882629,90.412430 
	C600.679932,93.031296 599.225708,94.124786 596.491394,92.602531 
	C595.915100,92.281715 595.255005,92.113480 594.639465,91.860710 
	C586.847961,88.661293 586.690430,88.587265 583.168945,96.160637 
	C581.682251,99.357948 579.898560,99.197411 577.240479,98.079201 
	C574.552979,96.948647 573.114075,95.685959 574.508362,92.456230 
	C577.606812,85.279060 580.488647,78.006828 583.373840,70.739655 
	C586.084351,63.912685 586.036377,63.893631 593.226074,66.732758 
z"/>
<path fill="#000000" opacity="1.000000" stroke="none" 
	d="
M409.076904,485.976257 
	C407.613647,484.221100 408.572357,482.876465 409.215881,481.572266 
	C412.236908,475.449280 415.379730,469.385284 418.328278,463.228027 
	C419.745880,460.267639 421.363007,459.256744 424.550232,461.020203 
	C428.622894,463.273560 432.944702,465.072754 437.123108,467.140442 
	C438.977173,468.057861 440.690613,469.059479 439.333130,471.723969 
	C438.132538,474.080505 436.554443,474.212494 434.432129,473.189911 
	C432.182831,472.106171 429.896820,471.096588 427.608429,470.096710 
	C426.494781,469.610107 425.288300,469.283447 424.567169,470.663788 
	C423.804169,472.124207 424.436096,473.294434 425.749420,474.011688 
	C427.352966,474.887360 429.053436,475.583893 430.696503,476.389435 
	C432.875275,477.457550 434.286652,478.788605 432.799713,481.470520 
	C431.466309,483.875549 429.815796,483.592285 427.790985,482.498077 
	C426.038055,481.550751 424.210846,480.716980 422.353790,479.994080 
	C420.956451,479.450165 419.596985,479.897644 418.910065,481.221588 
	C418.058075,482.863922 419.437469,483.692261 420.582794,484.311157 
	C423.071381,485.655914 425.644348,486.843964 428.175690,488.110291 
	C430.321655,489.183868 430.982941,490.662231 429.849548,492.989716 
	C428.603821,495.547791 426.913300,495.180389 424.923706,494.159912 
	C419.739349,491.500732 414.545410,488.860291 409.076904,485.976257 
z"/>
<path fill="#000000" opacity="1.000000" stroke="none" 
	d="
M562.919250,496.037720 
	C561.639954,505.016998 558.138184,508.970856 551.253540,509.646301 
	C544.851746,510.274323 539.876221,506.562408 537.744995,499.568359 
	C535.248535,491.376007 537.344177,484.081116 543.067078,481.042572 
	C548.518311,478.148224 555.103760,479.510864 559.302734,484.405396 
	C562.077332,487.639679 562.175781,491.733185 562.919250,496.037720 
M546.527039,499.836212 
	C548.107422,502.088287 550.247192,503.941071 552.691528,501.700989 
	C556.156006,498.526154 555.045349,494.374756 553.618225,490.588623 
	C552.701538,488.156738 551.018250,486.106873 547.969788,486.844696 
	C545.981873,487.325806 545.279968,489.215118 544.763000,491.003326 
	C543.914734,493.937500 545.131409,496.550629 546.527039,499.836212 
z"/>
<path fill="#000000" opacity="1.000000" stroke="none" 
	d="
M464.027771,479.975708 
	C461.305756,483.505341 458.496277,483.960327 454.940735,480.838257 
	C453.470184,479.546997 450.807404,478.149750 449.319275,480.830994 
	C448.104462,483.019867 450.713013,483.809448 452.007050,484.911530 
	C453.144196,485.880005 454.473450,486.619843 455.639954,487.557587 
	C458.864014,490.149384 460.871002,493.273468 459.150970,497.544189 
	C457.422302,501.836426 453.816803,503.531372 449.512604,503.142944 
	C444.627625,502.702118 440.161987,500.861115 436.476715,497.426910 
	C434.711395,495.781860 433.655304,494.194244 435.624146,491.907440 
	C437.604492,489.607239 439.099518,490.353607 441.003510,492.091614 
	C443.623199,494.482941 446.443451,496.934021 450.513702,494.622986 
	C449.801300,491.331207 447.231323,490.537933 445.236542,489.173798 
	C440.341705,485.826447 438.573730,481.939240 440.118927,477.869812 
	C441.661224,473.807892 446.359436,471.635376 451.890259,472.647308 
	C456.584198,473.506134 460.808075,475.331909 463.833466,479.729126 
	C463.999512,480.014832 464.027771,479.975708 464.027771,479.975708 
z"/>
<path fill="#000000" opacity="1.000000" stroke="none" 
	d="
M571.157959,481.149902 
	C568.302734,483.477325 564.954773,486.655762 562.550659,482.800629 
	C560.584167,479.647339 564.339783,476.889801 567.185791,475.160370 
	C575.598389,470.048340 584.291382,473.177856 584.810242,481.402802 
	C584.973145,483.984283 583.926697,486.258423 582.873413,488.537872 
	C582.268982,489.845917 581.244507,491.242859 582.488159,492.696655 
	C583.589783,493.984497 584.945007,493.327454 586.184448,492.897339 
	C588.543213,492.078857 589.964783,492.882721 590.808960,495.200562 
	C591.812439,497.955688 590.003784,498.803314 588.030762,499.485413 
	C583.318542,501.114410 578.601929,502.739471 573.836121,504.199738 
	C572.377991,504.646545 570.556152,505.820648 569.292114,503.916473 
	C568.132812,502.170105 567.888977,500.195923 569.001648,498.250671 
	C571.230652,494.353699 573.682251,490.565918 575.644714,486.539459 
	C577.727539,482.265839 576.292786,480.543457 571.157959,481.149902 
z"/>
<path fill="#000000" opacity="1.000000" stroke="none" 
	d="
M591.678711,478.800842 
	C592.524475,474.828308 593.438660,471.288757 594.092773,467.701721 
	C594.862000,463.483093 597.698486,462.208801 601.436035,461.727020 
	C602.886230,464.696259 601.351624,467.218658 601.075806,469.766052 
	C600.794861,472.360352 599.804871,474.889374 600.568909,478.043488 
	C602.668396,476.575836 601.556885,473.935242 603.839661,472.662689 
	C608.505615,470.061615 611.175415,474.614624 614.898621,475.221161 
	C616.801758,475.531189 616.950378,478.952789 615.685913,481.718750 
	C614.533081,484.240692 616.402954,488.126129 611.958130,489.141449 
	C610.625244,489.445953 609.251648,490.114227 608.369995,488.677612 
	C606.291504,485.290649 603.832214,486.510498 601.051147,487.603729 
	C598.140381,488.747955 595.163452,492.430756 592.122620,489.987946 
	C588.608521,487.165009 590.936646,482.887787 591.678711,478.800842 
z"/>
<path fill="#000000" opacity="1.000000" stroke="none" 
	d="
M322.460022,277.127625 
	C322.434509,281.540253 322.267700,285.528412 322.417145,289.504669 
	C322.532593,292.576508 321.297943,293.521667 318.307312,293.443481 
	C309.514709,293.213715 300.715668,293.158051 291.919403,293.174438 
	C288.474823,293.180878 286.737457,292.077393 286.762451,288.279877 
	C286.788116,284.381897 288.696014,283.540833 292.079407,283.654602 
	C297.385498,283.833069 302.700775,283.773163 308.011963,283.756287 
	C313.679718,283.738281 314.538330,282.841339 314.643341,277.026123 
	C314.670319,275.532684 314.687622,274.038055 314.660187,272.544891 
	C314.616821,270.182465 314.923431,268.170074 318.026337,268.222809 
	C321.020416,268.273712 322.728333,269.414795 322.398010,272.718048 
	C322.266876,274.029724 322.427246,275.370514 322.460022,277.127625 
z"/>
<path fill="#000000" opacity="1.000000" stroke="none" 
	d="
M532.818420,494.312073 
	C531.682617,498.277344 527.726135,500.052826 526.939758,503.791809 
	C528.180481,505.564850 530.020691,504.941467 531.567078,505.107056 
	C533.939514,505.361053 534.530884,506.867401 534.680237,508.864075 
	C534.841431,511.019897 533.592224,511.910004 531.699402,512.018372 
	C526.231262,512.331543 520.758606,512.754700 515.287415,512.759827 
	C511.705688,512.763245 510.534424,509.434753 513.150330,506.300873 
	C515.908142,502.996948 519.189026,500.134918 522.139893,496.984711 
	C523.695557,495.323914 525.821472,493.498047 523.835144,490.991180 
	C521.960693,488.625549 519.661072,489.574921 517.643188,491.033356 
	C514.955139,492.976227 512.524475,491.793945 511.179169,489.700897 
	C509.527771,487.131561 512.258118,485.874146 514.006897,484.849152 
	C518.747986,482.070312 523.831360,481.535919 528.733826,484.178680 
	C532.473145,486.194489 533.786133,489.718781 532.818420,494.312073 
z"/>
<path fill="#000000" opacity="1.000000" stroke="none" 
	d="
M463.987671,480.035919 
	C465.149933,478.491150 466.540161,477.591705 468.657135,478.027557 
	C474.664520,479.264343 480.687714,480.426392 486.714508,481.565796 
	C488.663666,481.934265 490.329163,482.425964 489.994385,484.961853 
	C489.675201,487.379517 488.352905,488.548950 485.917511,488.137024 
	C481.317993,487.359100 479.705872,489.792480 479.133453,493.898315 
	C478.585358,497.829468 477.640503,501.706635 476.831482,505.599548 
	C476.341644,507.956482 475.461914,509.594086 472.441895,508.753387 
	C469.820251,508.023590 468.328217,507.021698 468.975739,503.937042 
	C470.194885,498.128998 471.783875,492.369812 472.031769,486.480835 
	C469.680237,483.919922 464.402466,485.744141 464.061462,480.353394 
	C464.027771,479.975708 463.999512,480.014832 463.987671,480.035919 
z"/>
<path fill="#000000" opacity="1.000000" stroke="none" 
	d="
M509.524597,302.418945 
	C508.770844,293.504395 508.059662,285.045746 511.198059,276.316986 
	C514.951111,281.608582 515.332947,308.748413 511.948914,313.400208 
	C508.411560,310.423340 510.542664,306.260559 509.524597,302.418945 
z"/>
<path fill="#000000" opacity="1.000000" stroke="none" 
	d="
M491.774689,511.551453 
	C487.867584,511.446747 486.305573,509.473816 486.830811,506.112030 
	C487.269257,503.305603 489.368164,502.447571 491.967072,502.855591 
	C493.738953,503.133759 494.952881,504.230896 495.225952,506.066254 
	C495.606934,508.627075 494.819397,510.598969 491.774689,511.551453 
z"/>
<path fill="#000000" opacity="1.000000" stroke="none" 
	d="
M518.193909,216.578873 
	C517.189209,212.414459 518.921448,212.160645 521.713196,213.725906 
	C524.035461,215.027954 527.166016,215.915939 525.758667,220.000153 
	C522.525635,220.656738 520.581848,218.444778 518.193909,216.578873 
z"/>
<path fill="#000000" opacity="1.000000" stroke="none" 
	d="
M525.738892,226.836945 
	C520.976807,227.958893 518.672546,226.297836 518.400024,221.623779 
	C521.713562,222.142029 524.813599,222.612427 525.738892,226.836945 
z"/>
<path fill="#000000" opacity="1.000000" stroke="none" 
	d="
M525.536682,233.955017 
	C524.190796,237.979538 522.367432,234.957718 520.850037,234.384964 
	C519.876953,234.017731 519.463379,232.533035 520.477539,231.959915 
	C522.546936,230.790466 524.170166,231.947418 525.536682,233.955017 
z"/>
<path fill="#000000" opacity="1.000000" stroke="none" 
	d="
M522.065552,265.374054 
	C523.890015,266.170776 526.186218,266.475830 525.113281,268.991119 
	C524.661743,270.049744 523.372192,269.719757 522.546326,269.166168 
	C521.101440,268.197601 519.186096,267.200226 522.065552,265.374054 
z"/>
<path fill="#000000" opacity="1.000000" stroke="none" 
	d="
M523.349365,244.226532 
	C521.757874,243.730377 520.432861,243.262039 520.524536,241.605530 
	C520.574768,240.697922 521.301208,240.179871 522.247620,240.262665 
	C523.637146,240.384216 524.848450,240.996399 525.373718,242.305161 
	C525.979858,243.815140 525.169556,244.424561 523.349365,244.226532 
z"/>
<path fill="#000000" opacity="1.000000" stroke="none" 
	d="
M424.819458,355.301758 
	C423.165894,353.815552 423.130554,352.519928 424.540192,351.266327 
	C426.154419,349.830719 427.880585,348.512665 429.416168,346.999481 
	C430.806763,345.629150 432.006470,344.065094 433.310089,342.563751 
	C440.800323,350.794586 440.118988,357.977661 433.608948,363.584961 
	C430.764893,360.937775 428.721588,357.349152 424.819458,355.301758 
z"/>
</svg>