<?xml version="1.0" encoding="utf-8"?>
<svg id="svg2" viewBox="0 0 600 595.907" xmlns="http://www.w3.org/2000/svg">
  <desc>Source: openclipart.org/detail/209545</desc>
  <g style="" transform="matrix(1.067304, 0, 0, 1.067304, -23.546231, -19.956599)">
    <path d="M 330.171 153.92 C 331.264 154.188 332.357 154.456 333.483 154.732 C 334.403 154.954 335.324 155.175 336.272 155.404 C 344.15 157.399 344.15 157.399 345.483 158.732 C 345.639 160.145 345.734 161.566 345.799 162.986 C 345.862 164.267 345.862 164.267 345.926 165.574 C 345.966 166.472 346.005 167.369 346.046 168.295 C 346.089 169.196 346.132 170.098 346.176 171.027 C 346.283 173.262 346.385 175.497 346.483 177.732 C 347.634 177.947 347.634 177.947 348.807 178.166 C 351.536 178.743 353.924 179.635 356.483 180.732 C 356.153 183.372 355.823 186.012 355.483 188.732 C 359.443 190.712 363.403 192.692 367.483 194.732 C 368.803 193.412 370.123 192.092 371.483 190.732 C 374.254 190.821 375.609 191.816 377.921 193.357 C 381.125 195.076 382.047 194.731 385.483 193.732 C 388.347 192.229 391.091 190.58 393.862 188.912 C 396.483 187.732 396.483 187.732 398.522 187.822 C 402.891 189.85 406.357 193.115 409.483 196.732 C 409.961 200.317 408.735 202.194 407.233 205.408 C 406.779 206.381 406.326 207.354 405.858 208.357 C 405.391 209.277 404.925 210.198 404.444 211.146 C 403.385 213.994 403.293 214.983 404.483 217.732 C 405.642 219.458 405.642 219.458 407.046 220.982 C 408.252 222.343 408.252 222.343 409.483 223.732 C 408.733 225.67 408.733 225.67 407.483 227.732 C 405.358 228.482 405.358 228.482 403.483 228.732 C 404.894 232.159 406.231 235.321 408.171 238.482 C 409.483 240.732 409.483 240.732 409.483 243.732 C 413.064 244.629 413.064 244.629 416.671 244.17 C 417.269 244.025 417.867 243.881 418.483 243.732 C 420.483 245.732 420.483 245.732 420.483 249.732 C 427.743 249.732 435.003 249.732 442.483 249.732 C 444.463 257.652 444.463 257.652 446.483 265.732 C 445.4 266.326 444.317 266.921 443.202 267.533 C 435.235 271.741 435.235 271.741 430.487 278.845 C 430.541 281.613 430.796 284.054 431.483 286.732 C 429.503 287.392 427.523 288.052 425.483 288.732 C 425.153 293.682 424.823 298.632 424.483 303.732 C 427.123 303.732 429.763 303.732 432.483 303.732 C 432.393 304.566 432.303 305.4 432.21 306.259 C 432.093 310.16 432.255 313.009 433.483 316.732 C 437.329 320.788 442.539 323.263 447.483 325.732 C 446.841 331.24 445.918 336.374 444.483 341.732 C 437.444 342.671 430.58 342.84 423.483 342.732 C 423.35 343.358 423.217 343.985 423.081 344.63 C 422.904 345.448 422.727 346.265 422.546 347.107 C 422.284 348.325 422.284 348.325 422.018 349.568 C 421.483 351.732 421.483 351.732 420.483 353.732 C 417.513 353.072 414.543 352.412 411.483 351.732 C 411.401 352.413 411.318 353.093 411.233 353.795 C 410.555 356.45 409.794 358.1 408.421 360.42 C 406.315 363.38 406.315 363.38 406.483 365.732 C 408.946 367.377 408.946 367.377 411.483 368.732 C 410.506 371.439 409.663 373.518 407.796 375.732 C 406.235 377.654 406.235 377.654 406.706 380.009 C 407.878 384.115 410.113 387.472 412.303 391.111 C 413.483 393.732 413.483 393.732 413.428 395.771 C 412.109 398.507 410.352 400.373 408.233 402.545 C 407.081 403.761 407.081 403.761 405.905 405.002 C 403.483 406.732 403.483 406.732 401.034 406.658 C 397.241 405.281 393.706 403.501 390.104 401.693 C 387.237 400.642 386.252 400.577 383.483 401.732 C 381.454 403.02 379.448 404.348 377.483 405.732 C 373.608 403.982 373.608 403.982 372.483 401.732 C 369.186 402.39 366.642 403.626 363.733 405.295 C 362.934 405.75 362.135 406.205 361.311 406.673 C 360.708 407.023 360.105 407.372 359.483 407.732 C 360.143 410.372 360.803 413.012 361.483 415.732 C 360.194 416.404 358.902 417.069 357.608 417.732 C 356.889 418.103 356.169 418.475 355.428 418.857 C 353.483 419.732 353.483 419.732 351.483 419.732 C 351.483 426.002 351.483 432.272 351.483 438.732 C 347.437 440.35 344.392 441.207 340.171 441.857 C 339.102 442.025 338.033 442.192 336.932 442.365 C 336.124 442.486 335.316 442.607 334.483 442.732 C 333.002 440.775 331.523 438.817 330.046 436.857 C 329.625 436.301 329.204 435.746 328.77 435.173 C 325.596 430.959 325.596 430.959 324.483 428.732 C 320.523 428.732 316.563 428.732 312.483 428.732 C 312.153 426.752 311.823 424.772 311.483 422.732 C 306.533 422.402 301.583 422.072 296.483 421.732 C 296.153 424.042 295.823 426.352 295.483 428.732 C 294.71 428.653 293.936 428.575 293.139 428.494 C 289.541 428.409 286.908 428.574 283.483 429.732 C 280.014 433.723 277.801 438.007 275.483 442.732 C 275.153 443.062 274.823 443.392 274.483 443.732 C 272.698 443.681 272.698 443.681 270.421 443.42 C 269.687 443.341 268.954 443.262 268.198 443.181 C 264.583 442.583 261.037 441.621 257.483 440.732 C 256.823 434.462 256.163 428.192 255.483 421.732 C 252.513 420.412 249.543 419.092 246.483 417.732 C 247.358 411.982 247.358 411.982 248.483 409.732 C 247.524 409.392 247.524 409.392 246.546 409.045 C 242.35 407.246 238.444 404.993 234.483 402.732 C 234.189 403.371 233.895 404.011 233.592 404.67 C 232.483 406.732 232.483 406.732 230.733 407.732 C 228.483 407.732 228.483 407.732 225.546 405.732 C 222.757 403.461 222.757 403.461 220.104 403.943 C 216.426 405.05 213.313 406.887 209.983 408.771 C 206.876 409.965 205.597 409.886 202.483 408.732 C 199.807 406.666 199.807 406.666 197.171 404.17 C 195.846 402.93 195.846 402.93 194.495 401.666 C 193.831 401.028 193.167 400.389 192.483 399.732 C 194.153 395.341 196.282 391.334 198.557 387.232 C 199.671 384.224 199.472 382.753 198.483 379.732 C 196.518 376.962 196.518 376.962 194.483 374.732 C 196.233 370.857 196.233 370.857 198.483 369.732 C 197.825 366.435 196.589 363.891 194.921 360.982 C 194.465 360.183 194.01 359.384 193.542 358.56 C 193.192 357.957 192.843 357.354 192.483 356.732 C 189.843 357.062 187.203 357.392 184.483 357.732 C 183.163 354.762 181.843 351.792 180.483 348.732 C 173.883 348.072 167.283 347.412 160.483 346.732 C 159.101 342.585 158.08 339.085 157.358 334.857 C 157.19 333.89 157.023 332.923 156.85 331.927 C 156.729 331.203 156.608 330.478 156.483 329.732 C 158.605 328.393 160.73 327.061 162.858 325.732 C 163.461 325.35 164.065 324.969 164.686 324.576 C 169.256 321.732 169.256 321.732 171.483 321.732 C 171.153 317.442 170.823 313.152 170.483 308.732 C 172.463 308.402 174.443 308.072 176.483 307.732 C 176.813 302.782 177.143 297.832 177.483 292.732 C 175.173 292.732 172.863 292.732 170.483 292.732 C 170.457 291.768 170.431 290.804 170.405 289.81 C 170.348 288.547 170.291 287.284 170.233 285.982 C 170.163 284.103 170.163 284.103 170.092 282.185 C 169.399 278.255 168.384 277.308 165.483 274.732 C 165.483 273.065 165.483 271.399 165.483 269.732 C 163.833 269.072 162.183 268.412 160.483 267.732 C 164.233 265.732 164.233 265.732 166.483 265.732 C 165.358 264.376 165.358 264.376 162.421 264.67 C 161.451 264.69 160.482 264.711 159.483 264.732 C 158.483 261.732 158.483 261.732 159.948 258.587 C 162.483 255.732 162.483 255.732 166.049 255.033 C 168.06 255.039 170.072 255.045 172.083 255.058 C 175.952 255.064 175.952 255.064 179.342 253.412 C 180.996 250.976 182.24 248.395 183.483 245.732 C 186.948 246.227 186.948 246.227 190.483 246.732 C 193.545 241.891 195.017 238.439 195.483 232.732 C 194.163 231.742 192.843 230.752 191.483 229.732 C 192.574 225.957 193.391 223.262 196.483 220.732 C 195.104 215.492 192.54 211.531 189.53 207.099 C 188.483 204.732 188.483 204.732 189.053 202.724 C 190.771 200.331 192.623 198.159 194.608 195.982 C 195.332 195.183 196.057 194.384 196.803 193.56 C 197.358 192.957 197.912 192.354 198.483 191.732 C 203.144 193.156 207.475 194.647 211.733 197.045 C 214.761 198.626 214.761 198.626 218.171 198.232 C 220.753 196.557 223.094 194.669 225.483 192.732 C 226.143 192.732 226.803 192.732 227.483 192.732 C 229.108 194.732 229.108 194.732 230.483 196.732 C 233.413 196.263 235.586 195.16 238.108 193.67 C 241.483 191.732 241.483 191.732 243.483 191.732 C 242.493 187.772 242.493 187.772 241.483 183.732 C 244.445 181.922 247.372 180.287 250.483 178.732 C 250.813 172.462 251.143 166.192 251.483 159.732 C 265.309 155.169 265.309 155.169 268.483 156.732 C 270.299 158.623 270.299 158.623 272.046 160.982 C 272.624 161.75 273.203 162.519 273.799 163.31 C 275.483 165.732 275.483 165.732 276.811 168.509 C 278.322 171.05 278.322 171.05 281.401 171.22 C 282.48 171.162 283.559 171.104 284.671 171.045 C 286.301 170.977 286.301 170.977 287.963 170.908 C 288.795 170.85 289.626 170.792 290.483 170.732 C 290.813 172.712 291.143 174.692 291.483 176.732 C 296.433 176.732 301.383 176.732 306.483 176.732 C 306.813 174.422 307.143 172.112 307.483 169.732 C 316.054 169.589 316.054 169.589 319.483 170.732 C 319.689 169.948 319.896 169.165 320.108 168.357 C 324.99 155.486 324.99 155.486 330.171 153.92 Z M 269.483 206.732 C 268.805 207.006 268.128 207.28 267.429 207.562 C 257.428 211.679 248.773 216.712 240.483 223.732 C 239.476 224.565 238.47 225.397 237.432 226.255 C 221.838 239.554 211.422 257.924 206.483 277.732 C 206.259 278.549 206.034 279.367 205.803 280.209 C 200.42 303.437 206.023 328.723 217.807 349.095 C 232.384 372.03 253.225 388.533 279.858 395.107 C 305.556 400.773 331.675 395.449 354.038 382.052 C 373.774 369.169 386.836 350.83 394.483 328.732 C 394.791 327.897 395.099 327.061 395.417 326.201 C 403.188 304.485 399.492 278.75 389.858 258.357 C 387.904 254.335 385.966 250.456 383.483 246.732 C 382.823 246.732 382.163 246.732 381.483 246.732 C 381.355 245.901 381.355 245.901 381.225 245.052 C 376.468 230.18 357.177 218.754 344.225 212.045 C 322.528 201.588 292.403 197.293 269.483 206.732 Z" fill="#BA8721" style="stroke-width: 1;"/>
    <path d="M 330.171 153.92 C 331.264 154.188 332.357 154.456 333.483 154.732 C 334.403 154.954 335.324 155.175 336.272 155.404 C 344.15 157.399 344.15 157.399 345.483 158.732 C 345.639 160.145 345.734 161.566 345.799 162.986 C 345.862 164.267 345.862 164.267 345.926 165.574 C 345.966 166.472 346.005 167.369 346.046 168.295 C 346.089 169.196 346.132 170.098 346.176 171.027 C 346.283 173.262 346.385 175.497 346.483 177.732 C 347.634 177.947 347.634 177.947 348.807 178.166 C 351.536 178.743 353.924 179.635 356.483 180.732 C 356.153 183.372 355.823 186.012 355.483 188.732 C 359.443 190.712 363.403 192.692 367.483 194.732 C 368.803 193.412 370.123 192.092 371.483 190.732 C 374.254 190.821 375.609 191.816 377.921 193.357 C 381.125 195.076 382.047 194.731 385.483 193.732 C 388.347 192.229 391.091 190.58 393.862 188.912 C 396.483 187.732 396.483 187.732 398.522 187.822 C 402.891 189.85 406.357 193.115 409.483 196.732 C 409.961 200.317 408.735 202.194 407.233 205.408 C 406.779 206.381 406.326 207.354 405.858 208.357 C 405.391 209.277 404.925 210.198 404.444 211.146 C 403.385 213.994 403.293 214.983 404.483 217.732 C 405.642 219.458 405.642 219.458 407.046 220.982 C 408.252 222.343 408.252 222.343 409.483 223.732 C 408.733 225.67 408.733 225.67 407.483 227.732 C 405.358 228.482 405.358 228.482 403.483 228.732 C 404.894 232.159 406.231 235.321 408.171 238.482 C 409.483 240.732 409.483 240.732 409.483 243.732 C 413.064 244.629 413.064 244.629 416.671 244.17 C 417.269 244.025 417.867 243.881 418.483 243.732 C 420.483 245.732 420.483 245.732 420.483 249.732 C 427.743 249.732 435.003 249.732 442.483 249.732 C 444.463 257.652 444.463 257.652 446.483 265.732 C 445.4 266.326 444.317 266.921 443.202 267.533 C 435.235 271.741 435.235 271.741 430.487 278.845 C 430.541 281.613 430.796 284.054 431.483 286.732 C 429.503 287.392 427.523 288.052 425.483 288.732 C 425.153 293.682 424.823 298.632 424.483 303.732 C 427.123 303.732 429.763 303.732 432.483 303.732 C 432.483 308.022 432.483 312.312 432.483 316.732 C 431.493 316.402 430.503 316.072 429.483 315.732 C 429.153 312.762 428.823 309.792 428.483 306.732 C 427.699 306.588 426.916 306.443 426.108 306.295 C 423.483 304.732 423.483 304.732 422.671 302.912 C 421.256 297.275 421.577 292.437 422.483 286.732 C 424.133 286.072 425.783 285.412 427.483 284.732 C 427.52 283.961 427.558 283.19 427.596 282.396 C 427.695 280.892 427.695 280.892 427.796 279.357 C 427.854 278.359 427.912 277.362 427.971 276.334 C 428.14 275.475 428.309 274.617 428.483 273.732 C 431.483 271.732 431.483 271.732 434.483 271.732 C 434.483 271.072 434.483 270.412 434.483 269.732 C 436.464 268.364 438.538 267.229 440.635 266.048 C 442.793 264.785 442.793 264.785 443.483 261.732 C 442.72 262.041 441.957 262.351 441.171 262.67 C 435.348 264.347 429.44 264.563 423.409 264.908 C 414.991 265.436 406.625 266.457 398.483 268.732 C 397.077 271.545 397.955 272.884 398.858 275.857 C 401.302 283.918 401.664 291.749 401.671 300.107 C 401.683 300.989 401.695 301.87 401.708 302.779 C 401.72 308.231 401.16 313.239 399.951 318.558 C 399.391 320.967 399.391 320.967 399.108 324.42 C 398.325 328.572 396.734 331.175 394.483 334.732 C 393.823 334.732 393.163 334.732 392.483 334.732 C 392.676 333.993 392.87 333.255 393.069 332.494 C 393.329 331.479 393.59 330.465 393.858 329.42 C 394.113 328.433 394.368 327.447 394.631 326.431 C 400.861 299.369 397.945 275.969 385.359 251.547 C 384.483 249.732 384.483 249.732 383.483 246.732 C 382.823 246.732 382.163 246.732 381.483 246.732 C 381.029 245.804 380.576 244.876 380.108 243.92 C 368.504 223.735 345.463 211.773 323.932 205.31 C 307.584 201.451 285.148 201.281 269.483 207.732 C 268.805 208.006 268.128 208.28 267.429 208.562 C 257.424 212.68 248.791 217.727 240.483 224.732 C 239.083 225.871 239.083 225.871 237.655 227.033 C 222.403 240.048 212.305 258.392 207.483 277.732 C 207.259 278.549 207.034 279.367 206.803 280.209 C 202.326 299.527 205.929 319.067 213.081 337.138 C 214.319 340.311 215.438 343.491 216.483 346.732 C 215.823 346.732 215.163 346.732 214.483 346.732 C 214.483 345.742 214.483 344.752 214.483 343.732 C 213.823 343.732 213.163 343.732 212.483 343.732 C 212.483 342.412 212.483 341.092 212.483 339.732 C 211.823 339.732 211.163 339.732 210.483 339.732 C 210.483 338.412 210.483 337.092 210.483 335.732 C 209.823 335.732 209.163 335.732 208.483 335.732 C 208.008 334.071 207.534 332.409 207.062 330.747 C 206.527 328.885 205.971 327.029 205.413 325.173 C 202.112 313.393 202.112 302.064 202.533 289.892 C 202.635 287.682 202.635 287.682 201.483 285.732 C 200.369 286.536 200.369 286.536 199.233 287.357 C 198.326 287.811 197.418 288.265 196.483 288.732 C 194.171 287.92 194.171 287.92 192.483 286.732 C 192.483 286.072 192.483 285.412 192.483 284.732 C 191.617 284.546 191.617 284.546 190.733 284.357 C 188.483 283.732 188.483 283.732 186.483 282.545 C 184.49 281.461 184.49 281.461 182.546 282.545 C 181.525 283.132 181.525 283.132 180.483 283.732 C 179.617 283.835 178.751 283.938 177.858 284.045 C 177.074 284.271 176.291 284.498 175.483 284.732 C 174.108 287.208 174.108 287.208 173.483 289.732 C 174.452 290.206 175.422 290.681 176.421 291.17 C 179.483 292.732 179.483 292.732 180.483 293.732 C 180.717 296.191 180.854 298.58 180.921 301.045 C 180.966 301.722 181.012 302.399 181.059 303.097 C 181.104 305.095 181.104 305.095 180.483 308.732 C 177.448 310.974 177.448 310.974 174.483 312.732 C 174.548 314.703 174.619 316.676 174.78 318.642 C 174.254 322.347 171.487 323.993 168.663 326.189 C 167.584 326.953 167.584 326.953 166.483 327.732 C 165.867 328.169 165.251 328.606 164.616 329.056 C 163.26 329.981 161.875 330.862 160.483 331.732 C 160.627 332.335 160.772 332.939 160.921 333.56 C 161.106 334.359 161.292 335.159 161.483 335.982 C 161.669 336.771 161.854 337.56 162.046 338.373 C 162.483 340.732 162.483 340.732 162.483 344.732 C 163.335 344.553 164.187 344.374 165.065 344.189 C 168.667 343.707 171.582 343.898 175.171 344.42 C 176.288 344.568 177.406 344.716 178.557 344.869 C 181.921 345.861 182.799 346.719 184.483 349.732 C 184.71 350.454 184.937 351.176 185.171 351.92 C 186.313 353.907 186.313 353.907 188.385 354.205 C 190.41 354.457 192.447 354.601 194.483 354.732 C 194.153 356.052 193.823 357.372 193.483 358.732 C 193.153 358.072 192.823 357.412 192.483 356.732 C 189.843 357.062 187.203 357.392 184.483 357.732 C 183.163 354.762 181.843 351.792 180.483 348.732 C 173.883 348.072 167.283 347.412 160.483 346.732 C 159.101 342.585 158.08 339.085 157.358 334.857 C 157.19 333.89 157.023 332.923 156.85 331.927 C 156.729 331.203 156.608 330.478 156.483 329.732 C 158.605 328.393 160.73 327.061 162.858 325.732 C 163.461 325.35 164.065 324.969 164.686 324.576 C 169.256 321.732 169.256 321.732 171.483 321.732 C 171.153 317.442 170.823 313.152 170.483 308.732 C 172.463 308.402 174.443 308.072 176.483 307.732 C 176.813 302.782 177.143 297.832 177.483 292.732 C 175.173 292.732 172.863 292.732 170.483 292.732 C 170.457 291.768 170.431 290.804 170.405 289.81 C 170.348 288.547 170.291 287.284 170.233 285.982 C 170.163 284.103 170.163 284.103 170.092 282.185 C 169.399 278.255 168.384 277.308 165.483 274.732 C 165.483 273.065 165.483 271.399 165.483 269.732 C 163.833 269.072 162.183 268.412 160.483 267.732 C 164.233 265.732 164.233 265.732 166.483 265.732 C 165.358 264.376 165.358 264.376 162.421 264.67 C 161.451 264.69 160.482 264.711 159.483 264.732 C 158.483 261.732 158.483 261.732 159.948 258.587 C 162.483 255.732 162.483 255.732 166.049 255.033 C 168.06 255.039 170.072 255.045 172.083 255.058 C 175.952 255.064 175.952 255.064 179.342 253.412 C 180.996 250.976 182.24 248.395 183.483 245.732 C 186.948 246.227 186.948 246.227 190.483 246.732 C 193.545 241.891 195.017 238.439 195.483 232.732 C 194.163 231.742 192.843 230.752 191.483 229.732 C 192.574 225.957 193.391 223.262 196.483 220.732 C 195.104 215.492 192.54 211.531 189.53 207.099 C 188.483 204.732 188.483 204.732 189.053 202.724 C 190.771 200.331 192.623 198.159 194.608 195.982 C 195.332 195.183 196.057 194.384 196.803 193.56 C 197.358 192.957 197.912 192.354 198.483 191.732 C 203.144 193.156 207.475 194.647 211.733 197.045 C 214.761 198.626 214.761 198.626 218.171 198.232 C 220.753 196.557 223.094 194.669 225.483 192.732 C 226.143 192.732 226.803 192.732 227.483 192.732 C 229.108 194.732 229.108 194.732 230.483 196.732 C 233.413 196.263 235.586 195.16 238.108 193.67 C 241.483 191.732 241.483 191.732 243.483 191.732 C 242.493 187.772 242.493 187.772 241.483 183.732 C 244.445 181.922 247.372 180.287 250.483 178.732 C 250.813 172.462 251.143 166.192 251.483 159.732 C 265.309 155.169 265.309 155.169 268.483 156.732 C 270.299 158.623 270.299 158.623 272.046 160.982 C 272.624 161.75 273.203 162.519 273.799 163.31 C 275.483 165.732 275.483 165.732 276.811 168.509 C 278.322 171.05 278.322 171.05 281.401 171.22 C 282.48 171.162 283.559 171.104 284.671 171.045 C 286.301 170.977 286.301 170.977 287.963 170.908 C 288.795 170.85 289.626 170.792 290.483 170.732 C 290.813 172.712 291.143 174.692 291.483 176.732 C 296.433 176.732 301.383 176.732 306.483 176.732 C 306.813 174.422 307.143 172.112 307.483 169.732 C 316.054 169.589 316.054 169.589 319.483 170.732 C 319.689 169.948 319.896 169.165 320.108 168.357 C 324.99 155.486 324.99 155.486 330.171 153.92 Z" fill="#CDAD4A" style="stroke-width: 1;"/>
    <path d="M 288.483 221.732 C 297.063 221.732 305.643 221.732 314.483 221.732 C 312.263 231.721 312.263 231.721 309.921 235.295 C 307.386 239.528 306.75 242.829 306.483 247.732 C 309.123 247.732 311.763 247.732 314.483 247.732 C 314.483 250.372 314.483 253.012 314.483 255.732 C 311.843 255.732 309.203 255.732 306.483 255.732 C 306.483 258.372 306.483 261.012 306.483 263.732 C 309.453 263.732 312.423 263.732 315.483 263.732 C 315.483 266.702 315.483 269.672 315.483 272.732 C 312.513 272.732 309.543 272.732 306.483 272.732 C 306.483 277.022 306.483 281.312 306.483 285.732 C 314.451 281.748 319.625 276.407 322.803 267.974 C 324.333 260.677 323.692 253.136 323.483 245.732 C 334.043 245.732 344.603 245.732 355.483 245.732 C 353.833 249.362 352.183 252.992 350.483 256.732 C 349.362 260.085 349.362 260.085 348.733 263.045 C 348.511 263.989 348.29 264.934 348.061 265.908 C 346.805 272.043 346.335 277.768 346.35 284.013 C 346.349 285.349 346.349 285.349 346.347 286.712 C 346.347 288.595 346.348 290.477 346.353 292.36 C 346.358 295.195 346.353 298.03 346.346 300.865 C 345.97 320.359 345.97 320.359 349.858 339.295 C 350.171 340.282 350.171 340.282 350.491 341.289 C 351.745 345.102 353.379 348.33 355.483 351.732 C 355.483 352.392 355.483 353.052 355.483 353.732 C 344.593 353.732 333.703 353.732 322.483 353.732 C 322.978 350.762 322.978 350.762 323.483 347.732 C 324.238 337.109 322.814 328.385 316.483 319.732 C 316.153 318.742 315.823 317.752 315.483 316.732 C 312.663 315.02 309.553 313.926 306.483 312.732 C 306.51 316.095 306.51 316.095 307.483 319.732 C 310.336 321.911 310.336 321.911 313.483 323.732 C 317.115 327.727 316.927 331.984 316.768 337.142 C 316.247 341.876 314.365 343.936 310.921 347.045 C 308.483 348.732 308.483 348.732 306.483 348.732 C 306.372 357.514 308.389 363.356 312.987 370.822 C 314.483 373.732 314.483 373.732 314.483 378.732 C 306.233 378.732 297.983 378.732 289.483 378.732 C 289.483 372.967 289.712 371.578 292.421 366.92 C 293.238 365.487 293.238 365.487 294.073 364.025 C 295.483 361.732 295.483 361.732 296.483 360.732 C 296.97 357.006 297.071 353.448 296.483 349.732 C 293.78 347.18 293.78 347.18 290.483 345.732 C 286.732 341.464 286.13 337.537 286.202 332.013 C 286.792 327.223 289.667 324.47 293.108 321.357 C 295.483 319.732 295.483 319.732 297.483 319.732 C 297.483 317.092 297.483 314.452 297.483 311.732 C 289.116 316.021 284.591 319.94 281.366 328.802 C 280.029 333.695 280.269 338.638 280.358 343.67 C 280.399 346.99 280.441 350.311 280.483 353.732 C 269.593 353.732 258.703 353.732 247.483 353.732 C 249.133 350.432 250.783 347.132 252.483 343.732 C 253.353 341.006 254.107 338.439 254.733 335.67 C 254.893 335.027 255.053 334.384 255.217 333.722 C 257.098 325.847 257.641 317.918 257.721 309.841 C 257.731 309.022 257.741 308.203 257.751 307.359 C 258.803 276.349 258.803 276.349 248.483 247.732 C 248.153 247.072 247.823 246.412 247.483 245.732 C 258.043 245.732 268.603 245.732 279.483 245.732 C 279.566 248.661 279.648 251.59 279.733 254.607 C 280.052 261.968 280.796 268.21 284.483 274.732 C 285.102 275.846 285.721 276.96 286.358 278.107 C 289.466 281.946 292.812 284.175 297.483 285.732 C 297.483 281.442 297.483 277.152 297.483 272.732 C 294.513 272.732 291.543 272.732 288.483 272.732 C 288.483 270.092 288.483 267.452 288.483 264.732 C 291.453 264.732 294.423 264.732 297.483 264.732 C 297.483 261.762 297.483 258.792 297.483 255.732 C 294.513 255.732 291.543 255.732 288.483 255.732 C 288.483 253.092 288.483 250.452 288.483 247.732 C 291.453 247.732 294.423 247.732 297.483 247.732 C 296.437 240.993 294.075 235.488 290.871 229.519 C 289.373 226.695 288.483 224.984 288.483 221.732 Z" fill="#262222" style="stroke-width: 1;"/>
    <path d="M 299.483 202.42 C 301.397 202.415 301.397 202.415 303.35 202.41 C 325.746 202.536 346.39 209.984 363.483 224.732 C 364.844 225.894 364.844 225.894 366.233 227.08 C 371.899 232.061 377.571 237.202 381.483 243.732 C 381.483 244.722 381.483 245.712 381.483 246.732 C 382.143 246.732 382.803 246.732 383.483 246.732 C 388.945 256.478 393.843 265.787 396.483 276.732 C 396.658 277.366 396.833 278.001 397.014 278.654 C 398.721 285.306 398.78 291.768 398.733 298.607 C 398.741 299.714 398.748 300.822 398.756 301.962 C 398.703 324.626 390.376 345.754 375.483 362.732 C 374.881 363.477 374.279 364.222 373.659 364.99 C 358.798 382.872 336.266 393.628 313.483 396.732 C 284.89 398.959 259.667 391.804 237.681 373.208 C 224.365 361.382 215.897 347.196 209.483 330.732 C 209.145 329.867 208.808 329.002 208.46 328.111 C 207.699 325.999 207.06 323.901 206.483 321.732 C 206.279 321.002 206.076 320.273 205.866 319.521 C 200.36 295.614 205.959 269.804 218.296 248.982 C 229.939 230.965 245.085 217.588 264.608 208.857 C 265.216 208.583 265.824 208.309 266.451 208.026 C 277.318 203.414 287.748 202.271 299.483 202.42 Z M 235.483 243.732 C 224.775 256.741 216.199 274.725 215.483 291.732 C 215.431 292.817 215.38 293.903 215.327 295.021 C 214.755 318.045 222.527 340.786 238.421 357.619 C 239.101 358.316 239.782 359.013 240.483 359.732 C 241.349 360.64 242.216 361.547 243.108 362.482 C 244.284 363.596 244.284 363.596 245.483 364.732 C 245.944 365.177 246.406 365.621 246.881 366.08 C 265.362 382.983 287.365 386.583 311.483 385.732 C 315.312 385.42 318.793 384.784 322.483 383.732 C 323.635 383.414 324.788 383.095 325.975 382.767 C 348.379 375.964 366.36 361.165 377.733 340.607 C 387.772 321.652 390.994 297.889 385.577 277.048 C 377.741 253.289 363.173 235.188 341.483 222.732 C 340.596 222.218 339.709 221.703 338.796 221.173 C 303.575 202.152 260.77 215.557 235.483 243.732 Z" fill="#FCF8E4" style="stroke-width: 1;"/>
    <path d="M 435.483 348.732 C 439.481 350.605 442.561 353.213 445.858 356.107 C 447.116 357.198 448.374 358.289 449.631 359.38 C 450.592 360.217 450.592 360.217 451.572 361.071 C 454.528 363.641 457.506 366.186 460.483 368.732 C 461.645 369.728 462.806 370.724 463.967 371.72 C 466.35 373.763 468.736 375.801 471.124 377.837 C 476.361 382.307 481.577 386.785 486.671 391.42 C 490.081 394.522 493.58 397.464 497.171 400.357 C 500.941 403.407 504.43 406.545 507.788 410.041 C 510.306 412.553 513.039 414.797 515.784 417.056 C 517.579 418.827 518.494 420.428 519.483 422.732 C 518.823 423.722 518.163 424.712 517.483 425.732 C 510.381 423.474 503.494 420.803 496.587 418.008 C 493.251 416.658 489.912 415.316 486.573 413.974 C 485.892 413.7 485.21 413.426 484.509 413.144 C 477.934 410.504 471.334 407.93 464.733 405.357 C 448.558 399.039 432.521 392.386 416.483 385.732 C 417.779 382.306 419.273 379.194 421.128 376.037 C 421.64 375.155 422.152 374.273 422.68 373.365 C 423.744 371.549 424.809 369.734 425.876 367.92 C 429.494 361.685 432.619 355.347 435.483 348.732 Z" fill="#E78226" style="stroke-width: 1;"/>
    <path d="M 325.483 439.732 C 324.849 447.891 323.433 455.822 321.873 463.843 C 321.247 467.064 320.631 470.288 320.015 473.512 C 319.517 476.113 319.019 478.713 318.52 481.313 C 316.91 489.715 315.325 498.122 313.751 506.531 C 313.412 508.34 313.071 510.148 312.729 511.956 C 310.354 524.51 308.297 537.084 306.483 549.732 C 304.173 549.732 301.863 549.732 299.483 549.732 C 299.342 548.75 299.2 547.768 299.054 546.756 C 297.703 537.375 296.35 527.994 294.996 518.614 C 294.301 513.794 293.606 508.975 292.912 504.155 C 289.865 482.999 286.807 461.847 283.483 440.732 C 284.829 440.74 284.829 440.74 286.202 440.748 C 289.564 440.765 292.926 440.778 296.288 440.787 C 297.737 440.792 299.186 440.799 300.635 440.807 C 308.962 440.856 317.233 439.732 325.483 439.732 Z" fill="#E87A29" style="stroke-width: 1;"/>
    <path d="M 296.483 50.732 C 298.793 50.732 301.103 50.732 303.483 50.732 C 303.588 51.618 303.694 52.503 303.803 53.416 C 306.226 74.284 306.226 74.284 309.768 94.982 C 311.33 103.177 312.345 111.469 313.483 119.732 C 314 123.462 314.521 127.191 315.046 130.92 C 315.16 131.756 315.275 132.592 315.393 133.453 C 316.092 138.427 316.981 143.308 318.096 148.206 C 318.483 150.732 318.483 150.732 318.483 157.732 C 304.953 158.062 291.423 158.392 277.483 158.732 C 278.089 152.673 278.697 146.981 279.776 141.045 C 279.905 140.332 280.033 139.62 280.166 138.886 C 280.599 136.5 281.04 134.116 281.483 131.732 C 281.723 130.437 281.723 130.437 281.968 129.116 C 283.042 123.347 284.126 117.58 285.214 111.814 C 289.052 91.468 292.817 71.11 296.483 50.732 Z" fill="#F1AD25" style="stroke-width: 1;"/>
    <path d="M 214.483 412.732 C 217.24 414.078 219.897 415.525 222.538 417.087 C 232.032 422.667 241.544 427.982 251.483 432.732 C 249.921 436.412 247.647 438.897 244.921 441.795 C 240.696 446.343 236.72 451.037 232.815 455.865 C 224.814 465.702 216.463 475.252 208.145 484.82 C 205.401 487.977 202.66 491.135 199.921 494.295 C 199.391 494.905 198.862 495.515 198.317 496.144 C 192.679 502.651 187.078 509.189 181.483 515.732 C 180.163 515.402 178.843 515.072 177.483 514.732 C 176.178 511.758 176.561 510.48 177.54 507.313 C 178.085 505.934 178.643 504.56 179.21 503.189 C 179.509 502.441 179.808 501.693 180.116 500.922 C 181.103 498.458 182.106 496.002 183.108 493.545 C 183.798 491.829 184.487 490.114 185.175 488.398 C 186.585 484.883 188 481.37 189.419 477.859 C 192.17 471.038 194.863 464.195 197.551 457.349 C 198.615 454.64 199.681 451.931 200.748 449.223 C 201.259 447.924 201.77 446.625 202.281 445.326 C 203.936 441.119 205.596 436.914 207.256 432.709 C 208.082 430.612 208.908 428.516 209.733 426.42 C 210.104 425.482 210.475 424.545 210.858 423.58 C 211.193 422.726 211.528 421.873 211.874 420.994 C 212.163 420.261 212.452 419.529 212.75 418.774 C 213.467 416.778 214.007 414.798 214.483 412.732 Z" fill="#E67C28" style="stroke-width: 1;"/>
    <path d="M 177.483 82.732 C 180.557 83.888 182.209 85.298 184.112 87.935 C 184.82 88.9 184.82 88.9 185.542 89.885 C 186.286 90.923 186.286 90.923 187.046 91.982 C 188.116 93.443 189.187 94.902 190.26 96.361 C 190.799 97.096 191.338 97.831 191.893 98.588 C 194.236 101.748 196.664 104.837 199.108 107.92 C 203.874 113.948 208.574 120.024 213.249 126.123 C 215.324 128.829 217.404 131.53 219.483 134.232 C 220.316 135.315 221.15 136.399 221.983 137.482 C 222.396 138.018 222.808 138.555 223.233 139.107 C 224.483 140.732 225.733 142.357 226.983 143.982 C 227.396 144.519 227.81 145.056 228.235 145.61 C 229.061 146.684 229.886 147.758 230.711 148.833 C 232.904 151.69 235.11 154.536 237.335 157.369 C 237.799 157.963 238.263 158.557 238.741 159.17 C 239.635 160.315 240.534 161.457 241.436 162.595 C 244.483 166.507 244.483 166.507 244.483 168.732 C 243.43 169.266 242.377 169.799 241.292 170.349 C 232.323 174.959 223.852 179.932 215.557 185.666 C 213.208 187.244 211.014 188.513 208.483 189.732 C 208.085 188.497 207.687 187.263 207.277 185.991 C 205.781 181.351 204.279 176.713 202.776 172.075 C 202.13 170.078 201.485 168.081 200.842 166.084 C 197.61 156.059 194.353 146.099 190.473 136.303 C 189.194 132.981 188.227 129.669 187.296 126.232 C 185.708 120.524 183.882 114.923 181.909 109.337 C 181.68 108.688 181.451 108.039 181.216 107.369 C 180.057 104.085 178.886 100.806 177.697 97.533 C 177.268 96.324 176.839 95.115 176.397 93.869 C 176.005 92.783 175.612 91.697 175.208 90.578 C 174.485 87.739 174.305 86.389 175.483 83.732 C 176.143 83.402 176.803 83.072 177.483 82.732 Z" fill="#F1AA25" style="stroke-width: 1;"/>
    <path d="M 391.483 409.732 C 392.143 409.732 392.803 409.732 393.483 409.732 C 396.338 417.503 399.089 425.306 401.784 433.134 C 402.383 434.871 402.383 434.871 402.994 436.643 C 404.262 440.318 405.529 443.994 406.796 447.67 C 413.572 467.337 413.572 467.337 420.401 486.986 C 420.672 487.765 420.944 488.544 421.224 489.346 C 423.295 495.263 425.482 501.13 427.733 506.982 C 428.495 509.777 428.508 511.067 427.483 513.732 C 425.833 514.062 424.183 514.392 422.483 514.732 C 421.961 514.028 421.439 513.324 420.901 512.599 C 415.344 505.145 409.655 497.808 403.89 490.514 C 401.582 487.591 399.283 484.661 396.983 481.732 C 394.27 478.278 391.556 474.824 388.838 471.373 C 387.949 470.242 387.06 469.112 386.171 467.982 C 385.726 467.417 385.281 466.852 384.823 466.27 C 382.202 462.934 379.594 459.589 376.995 456.236 C 370.594 447.978 364.169 439.762 357.483 431.732 C 361.421 428.363 365.517 425.93 370.046 423.482 C 381.441 417.536 381.441 417.536 391.483 409.732 Z" fill="#E77C2A" style="stroke-width: 1;"/>
    <path d="M 420.483 81.732 C 422.921 82.107 422.921 82.107 425.483 82.732 C 426.483 84.732 426.483 84.732 425.53 87.747 C 425.034 89.043 424.529 90.336 424.018 91.627 C 423.747 92.329 423.476 93.031 423.197 93.754 C 422.32 96.02 421.433 98.282 420.546 100.545 C 419.982 101.995 419.418 103.447 418.856 104.898 C 417.99 107.133 417.122 109.368 416.252 111.602 C 409.53 128.865 403.026 146.213 396.483 163.545 C 395.7 165.617 394.918 167.689 394.135 169.761 C 392.251 174.751 390.367 179.742 388.483 184.732 C 385.621 184.061 383.445 183.272 380.936 181.728 C 379.927 181.117 379.927 181.117 378.897 180.493 C 378.183 180.056 377.469 179.62 376.733 179.17 C 368.525 174.233 360.108 169.888 351.483 165.732 C 354.362 161.22 357.524 157.194 361.046 153.17 C 362.116 151.933 363.186 150.696 364.256 149.459 C 364.795 148.838 365.333 148.217 365.888 147.577 C 368.334 144.748 370.755 141.899 373.171 139.045 C 373.625 138.508 374.079 137.971 374.548 137.417 C 378.137 133.165 381.658 128.86 385.171 124.545 C 388.207 120.852 391.302 117.211 394.397 113.568 C 398.034 109.281 401.596 104.937 405.143 100.576 C 408.334 96.697 411.587 92.873 414.854 89.058 C 416.883 86.679 418.746 84.338 420.483 81.732 Z" fill="#E8AD2D" style="stroke-width: 1;"/>
    <path d="M 158.483 279.732 C 158.483 293.262 158.483 306.792 158.483 320.732 C 151.797 320.124 145.351 319.498 138.776 318.349 C 137.984 318.214 137.193 318.079 136.377 317.94 C 133.807 317.5 131.239 317.054 128.671 316.607 C 126.862 316.295 125.053 315.984 123.245 315.672 C 108.54 313.13 93.86 310.452 79.19 307.716 C 78.472 307.582 77.754 307.448 77.014 307.31 C 75.965 307.114 75.965 307.114 74.895 306.915 C 67.101 305.466 59.293 304.096 51.483 302.732 C 51.483 300.752 51.483 298.772 51.483 296.732 C 52.089 296.683 52.695 296.634 53.319 296.584 C 54.157 296.509 54.995 296.434 55.858 296.357 C 57.076 296.253 57.076 296.253 58.319 296.146 C 60.826 295.818 63.22 295.394 65.69 294.88 C 73.68 293.242 81.744 292.024 89.796 290.732 C 91.422 290.469 93.049 290.206 94.676 289.943 C 101.475 288.845 108.274 287.758 115.085 286.74 C 123.691 285.426 132.24 283.788 140.796 282.186 C 142.974 281.779 145.152 281.376 147.331 280.974 C 148.609 280.736 149.888 280.497 151.206 280.251 C 154.483 279.732 154.483 279.732 158.483 279.732 Z" fill="#ED9A26" style="stroke-width: 1;"/>
    <path d="M 443.483 275.732 C 449.801 276.364 455.894 277.05 462.107 278.191 C 462.905 278.334 463.704 278.477 464.526 278.625 C 467.132 279.093 469.737 279.567 472.342 280.041 C 474.178 280.371 476.013 280.701 477.849 281.031 C 482.664 281.897 487.479 282.766 492.293 283.638 C 499.981 285.029 507.671 286.416 515.361 287.798 C 518.023 288.278 520.685 288.761 523.346 289.244 C 532.704 290.934 542.055 292.479 551.483 293.732 C 551.483 295.712 551.483 297.692 551.483 299.732 C 532.482 302.923 513.47 306.046 494.45 309.129 C 486.032 310.495 477.615 311.87 469.206 313.291 C 468.499 313.41 467.792 313.529 467.064 313.652 C 463.814 314.2 460.564 314.752 457.315 315.31 C 456.196 315.5 455.077 315.689 453.924 315.884 C 452.962 316.049 452 316.214 451.009 316.384 C 448.483 316.732 448.483 316.732 444.483 316.732 C 444.153 303.202 443.823 289.672 443.483 275.732 Z" fill="#EE9722" style="stroke-width: 1;"/>
    <path d="M 167.483 354.732 C 170.907 355.873 171.037 356.209 172.612 359.24 C 173.003 359.973 173.393 360.706 173.796 361.461 C 174.208 362.252 174.621 363.042 175.046 363.857 C 179.693 372.521 184.885 380.657 190.483 388.732 C 189.483 390.732 189.483 390.732 187.364 391.642 C 186.432 391.952 185.501 392.261 184.542 392.58 C 183.497 392.932 182.452 393.285 181.376 393.648 C 180.236 394.027 179.095 394.405 177.921 394.795 C 169.415 397.678 160.944 400.611 152.546 403.795 C 144.57 406.815 136.587 409.815 128.592 412.787 C 127.627 413.146 126.662 413.504 125.667 413.874 C 121.733 415.336 117.799 416.797 113.865 418.257 C 111.088 419.289 108.311 420.321 105.534 421.353 C 104.695 421.664 103.857 421.975 102.993 422.296 C 102.209 422.587 101.425 422.879 100.617 423.179 C 99.531 423.582 99.531 423.582 98.423 423.992 C 96.798 424.612 95.193 425.283 93.593 425.967 C 90.9 426.943 89.196 426.507 86.483 425.732 C 86.153 424.742 85.823 423.752 85.483 422.732 C 92.238 416.972 99.013 411.261 105.971 405.748 C 108.759 403.51 111.496 401.219 114.233 398.92 C 118.521 395.327 122.875 391.847 127.296 388.42 C 132.905 384.059 138.294 379.491 143.635 374.806 C 150.637 368.681 157.838 362.802 165.047 356.924 C 166.444 355.801 166.444 355.801 167.483 354.732 Z" fill="#E88524" style="stroke-width: 1;"/>
    <path d="M 514.483 169.732 C 515.473 172.207 515.473 172.207 516.483 174.732 C 514.977 175.948 514.977 175.948 513.44 177.189 C 506.254 183.003 499.106 188.853 492.068 194.847 C 487.853 198.432 483.577 201.936 479.284 205.427 C 476.215 207.952 473.193 210.527 470.171 213.107 C 465.155 217.383 460.026 221.483 454.809 225.51 C 451.654 227.963 448.59 230.482 445.592 233.127 C 444.957 233.686 444.321 234.246 443.666 234.822 C 442.44 235.91 441.222 237.006 440.013 238.113 C 438.567 239.395 437.031 240.575 435.483 241.732 C 432.046 240.586 431.924 240.24 430.354 237.189 C 429.963 236.451 429.573 235.713 429.17 234.952 C 428.758 234.158 428.345 233.363 427.921 232.545 C 423.398 224.087 418.259 216.375 412.483 208.732 C 415.608 205.299 419.244 204.104 423.53 202.572 C 424.765 202.118 424.765 202.118 426.025 201.656 C 427.818 200.998 429.611 200.345 431.406 199.694 C 436.248 197.939 441.08 196.156 445.913 194.377 C 446.926 194.004 447.94 193.632 448.984 193.248 C 460.816 188.891 472.588 184.378 484.358 179.857 C 486.408 179.07 488.459 178.284 490.509 177.497 C 494.101 176.118 497.693 174.739 501.283 173.357 C 502.022 173.074 502.761 172.791 503.523 172.5 C 505.132 171.869 506.725 171.195 508.312 170.509 C 510.483 169.732 510.483 169.732 514.483 169.732 Z" fill="#DFAA2B" style="stroke-width: 1;"/>
    <path d="M 85.483 171.732 C 89.923 173.154 94.204 174.809 98.503 176.611 C 99.182 176.895 99.861 177.179 100.561 177.471 C 102.034 178.088 103.507 178.705 104.979 179.323 C 108.156 180.656 111.335 181.984 114.513 183.312 C 116.202 184.018 117.891 184.724 119.58 185.431 C 128.555 189.184 137.54 192.912 146.527 196.637 C 149.096 197.701 151.665 198.767 154.234 199.832 C 164.644 204.148 175.061 208.446 185.483 212.732 C 185.483 216.618 184.157 218.105 182.046 221.357 C 178.627 226.732 175.518 232.224 172.546 237.857 C 172.156 238.591 171.767 239.326 171.366 240.082 C 169.871 242.936 168.504 245.67 167.483 248.732 C 164.035 247.232 161.659 245.228 158.921 242.67 C 155.424 239.459 151.875 236.387 148.171 233.42 C 143.356 229.528 138.832 225.401 134.317 221.172 C 130.992 218.075 127.596 215.136 124.046 212.295 C 119.67 208.786 115.563 205.074 111.483 201.232 C 106.517 196.557 101.43 192.142 96.104 187.877 C 91.757 184.319 87.621 180.529 83.483 176.732 C 84.143 175.082 84.803 173.432 85.483 171.732 Z" fill="#EEA728" style="stroke-width: 1;"/>
    <path d="M 194.483 236.732 C 195.483 239.732 195.483 239.732 193.858 243.357 C 192.291 245.922 191.779 246.609 188.921 247.795 C 186.483 247.732 186.483 247.732 183.483 245.732 C 183.236 246.64 182.988 247.547 182.733 248.482 C 181.369 252.028 180.485 253.445 177.483 255.732 C 174.243 256.126 171.143 256.192 167.883 256.132 C 165.66 256.122 165.66 256.122 162.483 256.732 C 160.343 259.004 160.343 259.004 159.483 261.732 C 159.813 262.392 160.143 263.052 160.483 263.732 C 162.463 263.732 164.443 263.732 166.483 263.732 C 166.483 264.722 166.483 265.712 166.483 266.732 C 164.833 267.062 163.183 267.392 161.483 267.732 C 162.102 267.98 162.721 268.227 163.358 268.482 C 165.878 269.965 166.495 271.016 167.483 273.732 C 167.483 274.722 167.483 275.712 167.483 276.732 C 168.921 278.42 168.921 278.42 170.483 279.732 C 164.68 278.244 160.307 275.141 155.483 271.732 C 155.997 265.894 156.777 260.351 158.483 254.732 C 162.258 252.845 166.935 253.432 171.1 253.306 C 174.962 252.651 176.118 251.776 178.483 248.732 C 178.813 248.072 179.143 247.412 179.483 246.732 C 180.143 246.732 180.803 246.732 181.483 246.732 C 181.483 246.072 181.483 245.412 181.483 244.732 C 184.453 244.732 187.423 244.732 190.483 244.732 C 191.803 242.092 193.123 239.452 194.483 236.732 Z" style="fill: rgb(205, 173, 74); stroke-width: 1;"/>
    <path d="M 269.483 285.732 C 271.793 287.712 274.103 289.692 276.483 291.732 C 278.118 293.037 279.762 294.331 281.421 295.607 C 282.193 296.203 282.965 296.798 283.76 297.412 C 284.329 297.847 284.897 298.283 285.483 298.732 C 284.802 299.268 284.122 299.805 283.421 300.357 C 278.547 304.297 273.918 308.297 269.483 312.732 C 269.483 303.822 269.483 294.912 269.483 285.732 Z" fill="#F8F8F8" style="stroke-width: 1;"/>
    <path d="M 331.483 286.732 C 332.143 286.732 332.803 286.732 333.483 286.732 C 333.483 295.312 333.483 303.892 333.483 312.732 C 331.833 311.082 330.183 309.432 328.483 307.732 C 326.734 306.269 324.963 304.83 323.171 303.42 C 321.846 302.373 321.846 302.373 320.495 301.306 C 319.831 300.787 319.167 300.267 318.483 299.732 C 321.836 296.278 325.314 293.125 329.03 290.064 C 330.611 288.774 330.611 288.774 331.483 286.732 Z" fill="#FAF9F9" style="stroke-width: 1;"/>
    <path d="M 269.483 260.732 C 270.143 260.732 270.803 260.732 271.483 260.732 C 271.87 261.745 272.256 262.758 272.655 263.802 C 273.181 265.154 273.707 266.506 274.233 267.857 C 274.486 268.522 274.738 269.187 274.999 269.873 C 279.4 281.096 286.592 287.87 297.483 292.732 C 297.483 293.722 297.483 294.712 297.483 295.732 C 290.08 295.269 285.293 292.215 279.796 287.357 C 272.625 279.217 268.88 271.782 269.483 260.732 Z" fill="#ECEBEB" style="stroke-width: 1;"/>
    <path d="M 297.483 301.732 C 297.483 303.052 297.483 304.372 297.483 305.732 C 296.648 306.043 296.648 306.043 295.796 306.361 C 285.051 310.699 279.641 316.918 274.893 327.33 C 273.313 331.142 272.213 334.679 271.483 338.732 C 270.823 338.732 270.163 338.732 269.483 338.732 C 268.973 328.014 271.733 320.13 278.483 311.732 C 283.609 306.317 289.865 301.732 297.483 301.732 Z" fill="#EDEDEC" style="stroke-width: 1;"/>
    <path d="M 306.483 301.732 C 317.728 305.03 325.356 310.809 331.421 320.982 C 333.713 326.914 333.593 332.443 333.483 338.732 C 332.823 338.732 332.163 338.732 331.483 338.732 C 331.245 337.589 331.245 337.589 331.003 336.423 C 328.229 324.15 323.621 316.055 313.198 308.802 C 311.056 307.466 308.875 306.529 306.483 305.732 C 306.483 304.412 306.483 303.092 306.483 301.732 Z" fill="#F0EFEF" style="stroke-width: 1;"/>
    <path d="M 332.483 260.732 C 332.813 260.732 333.143 260.732 333.483 260.732 C 334.271 271.022 331.935 278.213 325.233 286.107 C 319.721 291.873 314.492 294.931 306.483 295.732 C 306.483 294.412 306.483 293.092 306.483 291.732 C 307.617 291.402 308.752 291.072 309.921 290.732 C 317.221 287.949 322.741 282.782 326.296 275.857 C 327.054 274.161 327.783 272.452 328.483 270.732 C 328.875 269.788 329.267 268.845 329.671 267.873 C 330.635 265.502 331.572 263.124 332.483 260.732 Z" fill="#F1F0F0" style="stroke-width: 1;"/>
  </g>
</svg>